SplineFontDB: 3.2
FontName: NotoSansNandinagari-Regular
FullName: Noto Sans Nandinagari Regular
FamilyName: Noto Sans Nandinagari
Weight: Book
Copyright: Copyright 2021 Google LLC. All Rights Reserved.
Version: 1.000; ttfautohint (v1.8) -l 8 -r 50 -G 200 -x 14 -D latn -f none -a qsq -X ""
ItalicAngle: 0
UnderlinePosition: -125
UnderlineWidth: 50
Ascent: 800
Descent: 200
InvalidEm: 0
sfntRevision: 0x00010000
LayerCount: 2
Layer: 0 1 "+BBcEMAQ0BD0EOAQ5 +BD8EOwQwBD0A" 1
Layer: 1 1 "+BB8ENQRABDUENAQ9BDgEOQAA +BD8EOwQwBD0A" 0
HasVMetrics: 1
XUID: [1021 59 1751208496 7826]
StyleMap: 0x0040
FSType: 0
OS2Version: 4
OS2_WeightWidthSlopeOnly: 0
OS2_UseTypoMetrics: 0
CreationTime: 1634367268
ModificationTime: 1636888196
PfmFamily: 81
TTFWeight: 400
TTFWidth: 5
LineGap: 0
VLineGap: 1000
Panose: 0 0 0 0 0 0 0 0 0 0
OS2TypoAscent: 900
OS2TypoAOffset: 0
OS2TypoDescent: -560
OS2TypoDOffset: 0
OS2TypoLinegap: 0
OS2WinAscent: 900
OS2WinAOffset: 0
OS2WinDescent: 560
OS2WinDOffset: 0
HheadAscent: 900
HheadAOffset: 0
HheadDescent: -560
HheadDOffset: 0
OS2SubXSize: 650
OS2SubYSize: 600
OS2SubXOff: 0
OS2SubYOff: 75
OS2SupXSize: 650
OS2SupYSize: 600
OS2SupXOff: 0
OS2SupYOff: 350
OS2StrikeYSize: 50
OS2StrikeYPos: 335
OS2CapHeight: 622
OS2XHeight: 558
OS2Vendor: 'GOOG'
OS2CodePages: 00000001.00000000
OS2UnicodeRanges: 80408003.02002000.00000000.00000000
Lookup: 1 0 0 "'aalt' +BBIEQQQ1 +BDAEOwRMBEIENQRABD0EMARCBDgEMgQ9BEsENQAA +BDIEMARABDgEMAQ9BEIESwAA in 'DFLT' lookup 0" { "'aalt' +BBIEQQQ1 +BDAEOwRMBEIENQRABD0EMARCBDgEMgQ9BEsENQAA +BDIEMARABDgEMAQ9BEIESwAA in 'DFLT' lookup 0 subtable"  } ['aalt' ('DFLT' <'dflt' > 'nand' <'dflt' > ) ]
Lookup: 3 0 0 "'aalt' +BBIEQQQ1 +BDAEOwRMBEIENQRABD0EMARCBDgEMgQ9BEsENQAA +BDIEMARABDgEMAQ9BEIESwAA in 'DFLT' lookup 1" { "'aalt' +BBIEQQQ1 +BDAEOwRMBEIENQRABD0EMARCBDgEMgQ9BEsENQAA +BDIEMARABDgEMAQ9BEIESwAA in 'DFLT' lookup 1 subtable"  } ['aalt' ('DFLT' <'dflt' > 'nand' <'dflt' > ) ]

StartChar: .notdef
Encoding: 1114112 -1 0
Width: 600
VWidth: 1460
Flags: W
LayerCount: 2
Fore
SplineSet
94 0 m 1,0,-1
 94 714 l 1,1,-1
 505 714 l 1,2,-1
 505 0 l 1,3,-1
 94 0 l 1,0,-1
145 51 m 1,4,-1
 454 51 l 1,5,-1
 454 663 l 1,6,-1
 145 663 l 1,7,-1
 145 51 l 1,4,-1
EndSplineSet
EndChar

StartChar: VowelA.Nnagari
Encoding: 72096 72096 4
Width: 846
VWidth: 1460
GlyphClass: 2
Flags: W
AnchorPoint: "+BBEENQQ3BEsEPARPBD0EPQQ+BDUA--1" 698 602 basechar 0
LayerCount: 2
Fore
SplineSet
355 -7 m 0,0,1
 294 -7 294 -7 257 25 c 128,-1,2
 220 57 220 57 220 118 c 0,3,4
 220 162 220 162 241.5 197 c 128,-1,5
 263 232 263 232 287 258 c 1,6,7
 243 276 243 276 180 289 c 128,-1,8
 117 302 117 302 40 307 c 1,9,-1
 40 368 l 1,10,11
 114 387 114 387 171 438 c 128,-1,12
 228 489 228 489 258 558 c 1,13,-1
 30 558 l 1,14,-1
 30 622 l 1,15,-1
 731 622 l 1,16,-1
 731 0 l 1,17,-1
 653 0 l 1,18,-1
 653 555 l 1,19,-1
 401 270 l 1,20,21
 437 242 437 242 461 204.5 c 128,-1,22
 485 167 485 167 485 118 c 0,23,24
 485 57 485 57 450 25 c 128,-1,25
 415 -7 415 -7 355 -7 c 0,0,1
530 525 m 2,26,27
 544 541 544 541 560 558 c 1,28,-1
 338 558 l 1,29,30
 320 504 320 504 279 446.5 c 128,-1,31
 238 389 238 389 174 353 c 1,32,33
 226 346 226 346 265 334.5 c 128,-1,34
 304 323 304 323 337 308 c 1,35,-1
 530 525 l 2,26,27
302 118 m 0,36,37
 302 92 302 92 317 77.5 c 128,-1,38
 332 63 332 63 354 63 c 256,39,40
 376 63 376 63 389.5 77.5 c 128,-1,41
 403 92 403 92 403 118 c 0,42,43
 403 149 403 149 387.5 173.5 c 128,-1,44
 372 198 372 198 350 217 c 1,45,46
 331 196 331 196 316.5 172 c 128,-1,47
 302 148 302 148 302 118 c 0,36,37
EndSplineSet
Substitution2: "'ss03' Style Set 3 in 'DFLT' lookup 90 subtable" VowelA.Nnagari.ss03
Substitution2: "'aalt' +BBIEQQQ1 +BDAEOwRMBEIENQRABD0EMARCBDgEMgQ9BEsENQAA +BDIEMARABDgEMAQ9BEIESwAA in 'DFLT' lookup 0 subtable" VowelA.Nnagari.ss03
EndChar

StartChar: VowelI.Nnagari
Encoding: 72098 72098 6
Width: 538
VWidth: 1460
Flags: W
LayerCount: 2
Fore
SplineSet
178 -3 m 0,0,1
 122 -3 122 -3 91.5 12.5 c 128,-1,2
 61 28 61 28 61 60 c 0,3,4
 61 111 61 111 130 111 c 0,5,6
 164 111 164 111 197 99.5 c 128,-1,7
 230 88 230 88 253 69 c 1,8,9
 314 80 314 80 342.5 112 c 128,-1,10
 371 144 371 144 371 194 c 0,11,12
 371 250 371 250 326.5 279.5 c 128,-1,13
 282 309 282 309 184 309 c 2,14,-1
 95 309 l 1,15,-1
 95 378 l 1,16,17
 187 401 187 401 256 450.5 c 128,-1,18
 325 500 325 500 360 558 c 1,19,-1
 40 558 l 1,20,-1
 40 622 l 1,21,-1
 448 622 l 1,22,-1
 448 575 l 1,23,24
 437 544 437 544 410.5 505.5 c 128,-1,25
 384 467 384 467 342.5 429.5 c 128,-1,26
 301 392 301 392 244 365 c 1,27,28
 335 357 335 357 391.5 315.5 c 128,-1,29
 448 274 448 274 448 189 c 0,30,31
 448 125 448 125 410 80.5 c 128,-1,32
 372 36 372 36 305 15 c 1,33,34
 336 -15 336 -15 368 -47 c 128,-1,35
 400 -79 400 -79 439 -120 c 1,36,-1
 339 -120 l 1,37,38
 320 -98 320 -98 291 -67.5 c 128,-1,39
 262 -37 262 -37 227 -1 c 1,40,41
 203 -3 203 -3 178 -3 c 0,0,1
EndSplineSet
EndChar

StartChar: VowelU.Nnagari
Encoding: 72100 72100 8
Width: 685
VWidth: 1460
Flags: W
LayerCount: 2
Fore
SplineSet
259 -14 m 0,0,1
 193 -14 193 -14 137 -3 c 128,-1,2
 81 8 81 8 35 32 c 1,3,-1
 62 103 l 1,4,5
 152 58 152 58 259 58 c 0,6,7
 363 58 363 58 419.5 102.5 c 128,-1,8
 476 147 476 147 476 224 c 0,9,10
 476 293 476 293 433.5 335 c 128,-1,11
 391 377 391 377 321 377 c 2,12,-1
 298 377 l 1,13,-1
 298 246 l 1,14,-1
 220 246 l 1,15,-1
 220 558 l 1,16,-1
 25 558 l 1,17,-1
 25 622 l 1,18,-1
 298 622 l 1,19,-1
 298 447 l 1,20,-1
 321 447 l 2,21,22
 392 447 392 447 445.5 419 c 128,-1,23
 499 391 499 391 528.5 341 c 128,-1,24
 558 291 558 291 558 224 c 0,25,26
 558 112 558 112 480 49 c 128,-1,27
 402 -14 402 -14 259 -14 c 0,0,1
EndSplineSet
EndChar

StartChar: VowelUu.Nnagari
Encoding: 72101 72101 9
Width: 685
VWidth: 1460
Flags: W
LayerCount: 2
Fore
SplineSet
259 -14 m 0,0,1
 193 -14 193 -14 137 -3 c 128,-1,2
 81 8 81 8 35 32 c 1,3,-1
 62 103 l 1,4,5
 152 58 152 58 259 58 c 0,6,7
 363 58 363 58 419.5 102.5 c 128,-1,8
 476 147 476 147 476 224 c 0,9,10
 476 293 476 293 433.5 335 c 128,-1,11
 391 377 391 377 321 377 c 2,12,-1
 298 377 l 1,13,-1
 298 246 l 1,14,-1
 220 246 l 1,15,-1
 220 558 l 1,16,-1
 25 558 l 1,17,-1
 25 622 l 1,18,-1
 298 622 l 1,19,-1
 298 447 l 1,20,-1
 321 447 l 2,21,22
 392 447 392 447 445.5 419 c 128,-1,23
 499 391 499 391 528.5 341 c 128,-1,24
 558 291 558 291 558 224 c 0,25,26
 558 169 558 169 539 126 c 1,27,28
 558 83 558 83 558 35 c 0,29,30
 558 -68 558 -68 480 -130.5 c 128,-1,31
 402 -193 402 -193 259 -193 c 0,32,33
 189 -193 189 -193 134 -181.5 c 128,-1,34
 79 -170 79 -170 35 -151 c 1,35,-1
 62 -80 l 1,36,37
 99 -97 99 -97 152 -109 c 128,-1,38
 205 -121 205 -121 259 -121 c 0,39,40
 363 -121 363 -121 419.5 -79.5 c 128,-1,41
 476 -38 476 -38 476 35 c 0,42,43
 476 40 476 40 475 46 c 1,44,45
 397 -14 397 -14 259 -14 c 0,0,1
EndSplineSet
EndChar

StartChar: VowelR.Nnagari
Encoding: 72102 72102 10
Width: 749
VWidth: 1460
GlyphClass: 2
Flags: W
AnchorPoint: "+BBEENQQ3BEsEPARPBD0EPQQ+BDUA--1" 321 602 basechar 0
LayerCount: 2
Fore
SplineSet
30 0 m 1,0,-1
 30 66 l 1,1,-1
 277 66 l 1,2,-1
 277 280 l 1,3,-1
 50 280 l 1,4,-1
 50 346 l 1,5,-1
 277 346 l 1,6,-1
 277 558 l 1,7,-1
 30 558 l 1,8,-1
 30 622 l 1,9,-1
 354 622 l 1,10,-1
 354 346 l 1,11,-1
 556 346 l 1,12,-1
 556 622 l 1,13,-1
 634 622 l 1,14,-1
 634 0 l 1,15,-1
 556 0 l 1,16,-1
 556 280 l 1,17,-1
 354 280 l 1,18,-1
 354 0 l 1,19,-1
 30 0 l 1,0,-1
EndSplineSet
EndChar

StartChar: VowelE.Nnagari
Encoding: 72106 72106 12
Width: 661
VWidth: 1460
Flags: W
LayerCount: 2
Fore
SplineSet
277 0 m 1,0,-1
 25 558 l 1,1,-1
 25 622 l 1,2,-1
 606 622 l 1,3,-1
 606 558 l 1,4,-1
 356 0 l 1,5,-1
 277 0 l 1,0,-1
313 82 m 1,6,-1
 319 82 l 1,7,8
 330 114 330 114 344.5 146 c 128,-1,9
 359 178 359 178 373 210 c 2,10,-1
 526 558 l 1,11,-1
 105 558 l 1,12,-1
 261 210 l 2,13,14
 275 178 275 178 289 146 c 128,-1,15
 303 114 303 114 313 82 c 1,6,-1
EndSplineSet
EndChar

StartChar: VowelO.Nnagari
Encoding: 72108 72108 14
Width: 763
VWidth: 1460
GlyphClass: 2
Flags: W
AnchorPoint: "+BBEENQQ3BEsEPARPBD0EPQQ+BDUA--1" 425 602 basechar 0
AnchorPoint: "+BBEENQQ3BEsEPARPBD0EPQQ+BDUA--0" 384 42 basechar 0
LayerCount: 2
Fore
SplineSet
236 -7 m 0,0,1
 144 -7 144 -7 102 28.5 c 128,-1,2
 60 64 60 64 60 113 c 0,3,4
 60 172 60 172 102 204 c 128,-1,5
 144 236 144 236 212 236 c 0,6,7
 268 236 268 236 314 212 c 128,-1,8
 360 188 360 188 386 151 c 1,9,10
 391 170 391 170 391 194 c 0,11,12
 391 239 391 239 364.5 269 c 128,-1,13
 338 299 338 299 293 314 c 128,-1,14
 248 329 248 329 191 329 c 2,15,-1
 105 329 l 1,16,-1
 105 398 l 1,17,18
 197 413 197 413 265.5 458 c 128,-1,19
 334 503 334 503 371 559 c 1,20,-1
 60 558 l 1,21,-1
 60 622 l 1,22,-1
 458 622 l 1,23,-1
 458 559 l 1,24,25
 439 513 439 513 391.5 465 c 128,-1,26
 344 417 344 417 267 385 c 1,27,28
 315 381 315 381 359.5 362 c 128,-1,29
 404 343 404 343 433 306 c 1,30,31
 445 298 445 298 460 293 c 128,-1,32
 475 288 475 288 493 288 c 0,33,34
 531 288 531 288 556 311 c 128,-1,35
 581 334 581 334 581 386 c 2,36,-1
 581 572 l 2,37,38
 581 673 581 673 631.5 719 c 128,-1,39
 682 765 682 765 764 765 c 0,40,41
 789 765 789 765 810 762 c 1,42,-1
 799 692 l 1,43,44
 792 693 792 693 784 693.5 c 128,-1,45
 776 694 776 694 769 694 c 0,46,47
 720 694 720 694 689.5 665.5 c 128,-1,48
 659 637 659 637 659 573 c 2,49,-1
 659 386 l 2,50,51
 659 310 659 310 618.5 267 c 128,-1,52
 578 224 578 224 508 224 c 0,53,54
 485 224 485 224 465 230 c 1,55,56
 468 210 468 210 468 189 c 0,57,58
 468 104 468 104 407.5 48.5 c 128,-1,59
 347 -7 347 -7 236 -7 c 0,0,1
142 114 m 0,60,61
 142 93 142 93 165.5 79 c 128,-1,62
 189 65 189 65 235 65 c 0,63,64
 309 65 309 65 349 95 c 1,65,66
 321 127 321 127 286.5 145.5 c 128,-1,67
 252 164 252 164 213 164 c 0,68,69
 179 164 179 164 160.5 150.5 c 128,-1,70
 142 137 142 137 142 114 c 0,60,61
EndSplineSet
EndChar

StartChar: Ka.Nnagari
Encoding: 72110 72110 16
Width: 848
VWidth: 1460
GlyphClass: 2
Flags: W
AnchorPoint: "+BBEENQQ3BEsEPARPBD0EPQQ+BDUA--1" 430 602 basechar 0
AnchorPoint: "+BBEENQQ3BEsEPARPBD0EPQQ+BDUA--0" 714 0 basechar 0
LayerCount: 2
Fore
SplineSet
246 104 m 0,0,1
 161 104 161 104 111 149.5 c 128,-1,2
 61 195 61 195 61 279 c 0,3,4
 61 362 61 362 114 409 c 128,-1,5
 167 456 167 456 253 456 c 0,6,7
 300 456 300 456 332.5 445 c 128,-1,8
 365 434 365 434 385 419 c 1,9,-1
 385 558 l 1,10,-1
 40 558 l 1,11,-1
 40 622 l 1,12,-1
 463 622 l 1,13,-1
 463 311 l 1,14,-1
 502 334 l 2,15,16
 538 356 538 356 569 367 c 128,-1,17
 600 378 600 378 632 378 c 0,18,19
 685 378 685 378 719 348 c 128,-1,20
 753 318 753 318 753 251 c 2,21,-1
 753 0 l 1,22,-1
 675 0 l 1,23,-1
 675 251 l 2,24,25
 675 282 675 282 660 293.5 c 128,-1,26
 645 305 645 305 626 305 c 0,27,28
 606 305 606 305 585.5 296 c 128,-1,29
 565 287 565 287 540 272 c 2,30,-1
 463 224 l 1,31,-1
 463 0 l 1,32,-1
 385 0 l 1,33,-1
 385 148 l 1,34,35
 360 130 360 130 326 117 c 128,-1,36
 292 104 292 104 246 104 c 0,0,1
143 279 m 0,37,38
 143 231 143 231 171.5 203.5 c 128,-1,39
 200 176 200 176 256 176 c 0,40,41
 300 176 300 176 332 194.5 c 128,-1,42
 364 213 364 213 385 233 c 1,43,-1
 385 338 l 1,44,45
 360 360 360 360 335 372 c 128,-1,46
 310 384 310 384 263 384 c 0,47,48
 209 384 209 384 176 356.5 c 128,-1,49
 143 329 143 329 143 279 c 0,37,38
EndSplineSet
Substitution2: "Single Substitution lookup 49 subtable" KaPost.Nnagari
Substitution2: "'aalt' +BBIEQQQ1 +BDAEOwRMBEIENQRABD0EMARCBDgEMgQ9BEsENQAA +BDIEMARABDgEMAQ9BEIESwAA in 'DFLT' lookup 0 subtable" KaPost.Nnagari
EndChar

StartChar: Kha.Nnagari
Encoding: 72111 72111 17
Width: 796
VWidth: 1460
GlyphClass: 2
Flags: W
AnchorPoint: "+BBEENQQ3BEsEPARPBD0EPQQ+BDUA--1" 648 602 basechar 0
AnchorPoint: "+BBEENQQ3BEsEPARPBD0EPQQ+BDUA--0" 642 0 basechar 0
LayerCount: 2
Fore
SplineSet
262 0 m 1,0,-1
 145 163 l 2,1,2
 84 249 84 249 47 275 c 1,3,-1
 47 346 l 1,4,-1
 56 347 l 2,5,6
 128 355 128 355 176 409 c 128,-1,7
 224 463 224 463 224 552 c 2,8,-1
 224 558 l 1,9,-1
 25 558 l 1,10,-1
 25 622 l 1,11,-1
 681 622 l 1,12,-1
 681 0 l 1,13,-1
 603 0 l 1,14,-1
 603 255 l 1,15,16
 517 318 517 318 456 393 c 128,-1,17
 395 468 395 468 362 558 c 1,18,-1
 304 558 l 1,19,-1
 304 552 l 2,20,21
 304 452 304 452 255 386.5 c 128,-1,22
 206 321 206 321 127 296 c 1,23,24
 150 278 150 278 171.5 252.5 c 128,-1,25
 193 227 193 227 215 196 c 2,26,-1
 353 0 l 1,27,-1
 262 0 l 1,0,-1
447 558 m 1,28,29
 469 497 469 497 509 445.5 c 128,-1,30
 549 394 549 394 603 348 c 1,31,-1
 603 558 l 1,32,-1
 447 558 l 1,28,29
EndSplineSet
EndChar

StartChar: Ga.Nnagari
Encoding: 72112 72112 18
Width: 718
VWidth: 1460
GlyphClass: 2
Flags: W
AnchorPoint: "+BBEENQQ3BEsEPARPBD0EPQQ+BDUA--1" 570 602 basechar 0
AnchorPoint: "+BBEENQQ3BEsEPARPBD0EPQQ+BDUA--0" 564 0 basechar 0
LayerCount: 2
Fore
SplineSet
213 64 m 0,0,1
 152 64 152 64 109.5 101 c 128,-1,2
 67 138 67 138 67 202 c 0,3,4
 67 242 67 242 88 276.5 c 128,-1,5
 109 311 109 311 154.5 334 c 128,-1,6
 200 357 200 357 274 362 c 1,7,8
 269 413 269 413 261.5 462 c 128,-1,9
 254 511 254 511 245 558 c 1,10,-1
 60 558 l 1,11,-1
 60 622 l 1,12,-1
 603 622 l 1,13,-1
 603 0 l 1,14,-1
 525 0 l 1,15,-1
 525 558 l 1,16,-1
 325 558 l 1,17,18
 338 482 338 482 348 399.5 c 128,-1,19
 358 317 358 317 358 234 c 0,20,21
 358 146 358 146 320 105 c 128,-1,22
 282 64 282 64 213 64 c 0,0,1
145 202 m 0,23,24
 145 171 145 171 164.5 152.5 c 128,-1,25
 184 134 184 134 212 134 c 0,26,27
 247 134 247 134 263.5 158 c 128,-1,28
 280 182 280 182 280 234 c 0,29,30
 280 262 280 262 279 291 c 1,31,32
 202 285 202 285 173.5 259.5 c 128,-1,33
 145 234 145 234 145 202 c 0,23,24
EndSplineSet
EndChar

StartChar: Gha.Nnagari
Encoding: 72113 72113 19
Width: 827
VWidth: 1460
GlyphClass: 2
Flags: W
AnchorPoint: "+BBEENQQ3BEsEPARPBD0EPQQ+BDUA--1" 679 602 basechar 0
AnchorPoint: "+BBEENQQ3BEsEPARPBD0EPQQ+BDUA--0" 673 0 basechar 0
LayerCount: 2
Fore
SplineSet
243 220 m 0,0,1
 173 220 173 220 133 249.5 c 128,-1,2
 93 279 93 279 76.5 329 c 128,-1,3
 60 379 60 379 60 440 c 2,4,-1
 60 622 l 1,5,-1
 712 622 l 1,6,-1
 712 0 l 1,7,-1
 634 0 l 1,8,-1
 634 261 l 1,9,10
 615 244 615 244 589 234.5 c 128,-1,11
 563 225 563 225 528 225 c 0,12,13
 474 225 474 225 439.5 249.5 c 128,-1,14
 405 274 405 274 386 308 c 1,15,16
 368 272 368 272 333 246 c 128,-1,17
 298 220 298 220 243 220 c 0,0,1
138 440 m 2,18,19
 138 371 138 371 162 331.5 c 128,-1,20
 186 292 186 292 243 292 c 0,21,22
 280 292 280 292 303 311 c 128,-1,23
 326 330 326 330 337 360.5 c 128,-1,24
 348 391 348 391 348 427 c 2,25,-1
 348 496 l 1,26,-1
 424 496 l 1,27,-1
 424 427 l 2,28,29
 424 399 424 399 433.5 369 c 128,-1,30
 443 339 443 339 467 318 c 128,-1,31
 491 297 491 297 533 297 c 0,32,33
 576 297 576 297 600 315.5 c 128,-1,34
 624 334 624 334 634 364 c 1,35,-1
 634 558 l 1,36,-1
 138 558 l 1,37,-1
 138 440 l 2,18,19
EndSplineSet
EndChar

StartChar: Nga.Nnagari
Encoding: 72114 72114 20
Width: 778
VWidth: 1460
GlyphClass: 2
Flags: W
AnchorPoint: "+BBEENQQ3BEsEPARPBD0EPQQ+BDUA--1" 452 602 basechar 0
AnchorPoint: "+BBEENQQ3BEsEPARPBD0EPQQ+BDUA--0" 571 148 basechar 0
LayerCount: 2
Fore
SplineSet
40 148 m 1,0,-1
 40 199 l 1,1,-1
 377 558 l 1,2,-1
 40 558 l 1,3,-1
 40 622 l 1,4,-1
 485 622 l 1,5,-1
 485 563 l 1,6,-1
 159 216 l 1,7,-1
 688 216 l 1,8,-1
 688 148 l 1,9,-1
 40 148 l 1,0,-1
571 289 m 256,10,11
 518 289 518 289 486.5 319 c 128,-1,12
 455 349 455 349 455 398 c 0,13,14
 455 448 455 448 486.5 477.5 c 128,-1,15
 518 507 518 507 571 507 c 256,16,17
 624 507 624 507 655.5 477.5 c 128,-1,18
 687 448 687 448 687 398 c 0,19,20
 687 349 687 349 655.5 319 c 128,-1,21
 624 289 624 289 571 289 c 256,10,11
571 347 m 0,22,23
 596 347 596 347 608.5 361 c 128,-1,24
 621 375 621 375 621 398 c 256,25,26
 621 421 621 421 608.5 435 c 128,-1,27
 596 449 596 449 571 449 c 0,28,29
 547 449 547 449 534 435 c 128,-1,30
 521 421 521 421 521 398 c 256,31,32
 521 375 521 375 534 361 c 128,-1,33
 547 347 547 347 571 347 c 0,22,23
EndSplineSet
EndChar

StartChar: Ca.Nnagari
Encoding: 72115 72115 21
Width: 642
VWidth: 1460
GlyphClass: 2
Flags: W
AnchorPoint: "+BBEENQQ3BEsEPARPBD0EPQQ+BDUA--1" 494 602 basechar 0
AnchorPoint: "+BBEENQQ3BEsEPARPBD0EPQQ+BDUA--0" 488 0 basechar 0
LayerCount: 2
Fore
SplineSet
458 0 m 1,0,1
 434 44 434 44 391.5 82.5 c 128,-1,2
 349 121 349 121 295 152 c 128,-1,3
 241 183 241 183 182.5 204.5 c 128,-1,4
 124 226 124 226 70 235 c 1,5,-1
 52 349 l 1,6,7
 147 388 147 388 246.5 427 c 128,-1,8
 346 466 346 466 449 506 c 1,9,-1
 449 558 l 1,10,-1
 40 558 l 1,11,-1
 40 622 l 1,12,-1
 527 622 l 1,13,-1
 527 0 l 1,14,-1
 458 0 l 1,0,1
128 295 m 1,15,16
 213 278 213 278 298.5 235.5 c 128,-1,17
 384 193 384 193 449 125 c 1,18,-1
 449 426 l 1,19,20
 366 394 366 394 285.5 361 c 128,-1,21
 205 328 205 328 128 295 c 1,15,16
EndSplineSet
EndChar

StartChar: Cha.Nnagari
Encoding: 72116 72116 22
Width: 783
VWidth: 1460
GlyphClass: 2
Flags: W
AnchorPoint: "+BBEENQQ3BEsEPARPBD0EPQQ+BDUA--1" 390 602 basechar 0
AnchorPoint: "+BBEENQQ3BEsEPARPBD0EPQQ+BDUA--0" 384 0 basechar 0
LayerCount: 2
Fore
SplineSet
334 68 m 2,0,1
 200 68 200 68 127.5 121 c 128,-1,2
 55 174 55 174 55 272 c 0,3,4
 55 371 55 371 127.5 424.5 c 128,-1,5
 200 478 200 478 334 478 c 2,6,-1
 345 478 l 1,7,-1
 345 558 l 1,8,-1
 35 558 l 1,9,-1
 35 622 l 1,10,-1
 423 622 l 1,11,-1
 423 478 l 1,12,-1
 434 478 l 2,13,14
 568 478 568 478 640.5 424.5 c 128,-1,15
 713 371 713 371 713 272 c 0,16,17
 713 174 713 174 640.5 121 c 128,-1,18
 568 68 568 68 434 68 c 2,19,-1
 423 68 l 1,20,-1
 423 0 l 1,21,-1
 345 0 l 1,22,-1
 345 68 l 1,23,-1
 334 68 l 2,0,1
434 408 m 2,24,-1
 423 408 l 1,25,-1
 423 138 l 1,26,-1
 434 138 l 2,27,28
 529 138 529 138 580 173 c 128,-1,29
 631 208 631 208 631 272 c 0,30,31
 631 338 631 338 580 373 c 128,-1,32
 529 408 529 408 434 408 c 2,24,-1
334 138 m 2,33,-1
 345 138 l 1,34,-1
 345 408 l 1,35,-1
 334 408 l 2,36,37
 239 408 239 408 188 373 c 128,-1,38
 137 338 137 338 137 272 c 0,39,40
 137 208 137 208 188 173 c 128,-1,41
 239 138 239 138 334 138 c 2,33,-1
EndSplineSet
EndChar

StartChar: Ja.Nnagari
Encoding: 72117 72117 23
Width: 811
VWidth: 1460
GlyphClass: 2
Flags: W
AnchorPoint: "+BBEENQQ3BEsEPARPBD0EPQQ+BDUA--1" 340 602 basechar 0
AnchorPoint: "+BBEENQQ3BEsEPARPBD0EPQQ+BDUA--0" 667 0 basechar 0
LayerCount: 2
Fore
SplineSet
365 -7 m 0,0,1
 304 -7 304 -7 267 26.5 c 128,-1,2
 230 60 230 60 230 118 c 0,3,4
 230 160 230 160 250 194 c 128,-1,5
 270 228 270 228 299 254 c 1,6,7
 257 271 257 271 200.5 282 c 128,-1,8
 144 293 144 293 70 297 c 1,9,-1
 70 366 l 1,10,11
 110 382 110 382 155.5 413 c 128,-1,12
 201 444 201 444 237.5 482 c 128,-1,13
 274 520 274 520 288 558 c 1,14,-1
 25 558 l 1,15,-1
 25 622 l 1,16,-1
 373 622 l 1,17,-1
 373 575 l 1,18,19
 365 538 365 538 338 495 c 128,-1,20
 311 452 311 452 270.5 412.5 c 128,-1,21
 230 373 230 373 182 347 c 1,22,23
 228 343 228 343 276.5 330.5 c 128,-1,24
 325 318 325 318 361 301 c 1,25,26
 401 329 401 329 444.5 347.5 c 128,-1,27
 488 366 488 366 539 366 c 0,28,29
 587 366 587 366 624.5 349.5 c 128,-1,30
 662 333 662 333 684 296 c 128,-1,31
 706 259 706 259 706 197 c 2,32,-1
 706 0 l 1,33,-1
 628 0 l 1,34,-1
 628 174 l 2,35,36
 628 240 628 240 603 267 c 128,-1,37
 578 294 578 294 533 294 c 0,38,39
 504 294 504 294 476 283 c 128,-1,40
 448 272 448 272 424 257 c 1,41,42
 453 234 453 234 474 199.5 c 128,-1,43
 495 165 495 165 495 118 c 0,44,45
 495 60 495 60 460 26.5 c 128,-1,46
 425 -7 425 -7 365 -7 c 0,0,1
312 118 m 0,47,48
 312 93 312 93 327 79 c 128,-1,49
 342 65 342 65 364 65 c 256,50,51
 386 65 386 65 399.5 79 c 128,-1,52
 413 93 413 93 413 118 c 0,53,54
 413 148 413 148 398.5 172 c 128,-1,55
 384 196 384 196 362 215 c 1,56,57
 339 194 339 194 325.5 170.5 c 128,-1,58
 312 147 312 147 312 118 c 0,47,48
EndSplineSet
Substitution2: "'ss03' Style Set 3 in 'DFLT' lookup 90 subtable" Ja.Nnagari.ss03
Substitution2: "'aalt' +BBIEQQQ1 +BDAEOwRMBEIENQRABD0EMARCBDgEMgQ9BEsENQAA +BDIEMARABDgEMAQ9BEIESwAA in 'DFLT' lookup 0 subtable" Ja.Nnagari.ss03
EndChar

StartChar: Jha.Nnagari
Encoding: 72118 72118 24
Width: 781
VWidth: 1460
GlyphClass: 2
Flags: W
AnchorPoint: "+BBEENQQ3BEsEPARPBD0EPQQ+BDUA--1" 357 602 basechar 0
AnchorPoint: "+BBEENQQ3BEsEPARPBD0EPQQ+BDUA--0" 637 0 basechar 0
LayerCount: 2
Fore
SplineSet
312 0 m 1,0,-1
 312 283 l 1,1,-1
 60 283 l 1,2,-1
 60 353 l 1,3,-1
 312 353 l 1,4,-1
 312 558 l 1,5,-1
 40 558 l 1,6,-1
 40 622 l 1,7,-1
 390 622 l 1,8,-1
 390 353 l 1,9,-1
 676 353 l 1,10,-1
 676 0 l 1,11,-1
 598 0 l 1,12,-1
 598 283 l 1,13,-1
 390 283 l 1,14,-1
 390 0 l 1,15,-1
 312 0 l 1,0,-1
EndSplineSet
EndChar

StartChar: Nya.Nnagari
Encoding: 72119 72119 25
Width: 962
VWidth: 1460
GlyphClass: 2
Flags: W
AnchorPoint: "+BBEENQQ3BEsEPARPBD0EPQQ+BDUA--1" 575 576 basechar 0
AnchorPoint: "+BBEENQQ3BEsEPARPBD0EPQQ+BDUA--0" 671 0 basechar 0
LayerCount: 2
Fore
SplineSet
261 -5 m 0,0,1
 173 -5 173 -5 116.5 56.5 c 128,-1,2
 60 118 60 118 60 237 c 0,3,4
 60 353 60 353 110.5 439.5 c 128,-1,5
 161 526 161 526 252.5 574 c 128,-1,6
 344 622 344 622 466 622 c 0,7,8
 550 622 550 622 608 601 c 128,-1,9
 666 580 666 580 703 550 c 128,-1,10
 740 520 740 520 760 494 c 1,11,-1
 706 448 l 1,12,13
 688 469 688 469 655 492.5 c 128,-1,14
 622 516 622 516 574.5 533 c 128,-1,15
 527 550 527 550 466 550 c 0,16,17
 368 550 368 550 294 511 c 128,-1,18
 220 472 220 472 179 401.5 c 128,-1,19
 138 331 138 331 138 237 c 0,20,21
 138 151 138 151 173 109 c 128,-1,22
 208 67 208 67 263 67 c 0,23,24
 301 67 301 67 324.5 89 c 128,-1,25
 348 111 348 111 348 151 c 0,26,27
 348 174 348 174 339 193.5 c 128,-1,28
 330 213 330 213 316 223 c 1,29,-1
 248 223 l 1,30,-1
 248 291 l 1,31,-1
 680 291 l 1,32,-1
 680 223 l 1,33,-1
 616 223 l 1,34,35
 602 213 602 213 593 193.5 c 128,-1,36
 584 174 584 174 584 151 c 0,37,38
 584 111 584 111 607.5 89 c 128,-1,39
 631 67 631 67 669 67 c 0,40,41
 719 67 719 67 751.5 106.5 c 128,-1,42
 784 146 784 146 784 227 c 0,43,44
 784 280 784 280 773.5 318.5 c 128,-1,45
 763 357 763 357 746 383 c 1,46,-1
 814 415 l 1,47,48
 831 385 831 385 846.5 338.5 c 128,-1,49
 862 292 862 292 862 227 c 0,50,51
 862 113 862 113 808.5 54 c 128,-1,52
 755 -5 755 -5 671 -5 c 0,53,54
 617 -5 617 -5 580 15 c 128,-1,55
 543 35 543 35 524.5 68.5 c 128,-1,56
 506 102 506 102 506 140 c 0,57,58
 506 166 506 166 513 187 c 128,-1,59
 520 208 520 208 530 223 c 1,60,-1
 402 223 l 1,61,62
 412 208 412 208 419 187 c 128,-1,63
 426 166 426 166 426 140 c 0,64,65
 426 102 426 102 407.5 68.5 c 128,-1,66
 389 35 389 35 352 15 c 128,-1,67
 315 -5 315 -5 261 -5 c 0,0,1
EndSplineSet
EndChar

StartChar: Tta.Nnagari
Encoding: 72120 72120 26
Width: 696
VWidth: 1460
GlyphClass: 2
Flags: W
AnchorPoint: "+BBEENQQ3BEsEPARPBD0EPQQ+BDUA--1" 396 602 basechar 0
AnchorPoint: "+BBEENQQ3BEsEPARPBD0EPQQ+BDUA--0" 376 20 basechar 0
LayerCount: 2
Fore
SplineSet
346 0 m 0,0,1
 211 0 211 0 136.5 64 c 128,-1,2
 62 128 62 128 62 240 c 0,3,4
 62 309 62 309 94 359 c 128,-1,5
 126 409 126 409 185 436 c 128,-1,6
 244 463 244 463 323 463 c 2,7,-1
 351 463 l 1,8,-1
 351 558 l 1,9,-1
 72 558 l 1,10,-1
 72 622 l 1,11,-1
 429 622 l 1,12,-1
 429 246 l 1,13,-1
 351 246 l 1,14,-1
 351 397 l 1,15,-1
 323 397 l 2,16,17
 235 397 235 397 189.5 355 c 128,-1,18
 144 313 144 313 144 240 c 0,19,20
 144 159 144 159 196.5 115.5 c 128,-1,21
 249 72 249 72 346 72 c 0,22,23
 476 72 476 72 571 164 c 1,24,-1
 620 110 l 1,25,26
 572 58 572 58 501.5 29 c 128,-1,27
 431 0 431 0 346 0 c 0,0,1
EndSplineSet
EndChar

StartChar: Ttha.Nnagari
Encoding: 72121 72121 27
Width: 740
VWidth: 1460
GlyphClass: 2
Flags: W
AnchorPoint: "+BBEENQQ3BEsEPARPBD0EPQQ+BDUA--1" 359 602 basechar 0
AnchorPoint: "+BBEENQQ3BEsEPARPBD0EPQQ+BDUA--0" 353 -4 basechar 0
LayerCount: 2
Fore
SplineSet
353 -4 m 0,0,1
 211 -4 211 -4 133 58.5 c 128,-1,2
 55 121 55 121 55 231 c 0,3,4
 55 307 55 307 91 357.5 c 128,-1,5
 127 408 127 408 186 434.5 c 128,-1,6
 245 461 245 461 314 463 c 1,7,-1
 314 558 l 1,8,-1
 40 558 l 1,9,-1
 40 622 l 1,10,-1
 392 622 l 1,11,-1
 392 463 l 1,12,13
 461 461 461 461 520 434.5 c 128,-1,14
 579 408 579 408 614.5 357.5 c 128,-1,15
 650 307 650 307 650 231 c 0,16,17
 650 122 650 122 571.5 59 c 128,-1,18
 493 -4 493 -4 353 -4 c 0,0,1
314 226 m 1,19,-1
 314 393 l 1,20,21
 236 390 236 390 186.5 347.5 c 128,-1,22
 137 305 137 305 137 231 c 0,23,24
 137 152 137 152 193 110 c 128,-1,25
 249 68 249 68 353 68 c 256,26,27
 457 68 457 68 512.5 110 c 128,-1,28
 568 152 568 152 568 231 c 0,29,30
 568 305 568 305 519 347.5 c 128,-1,31
 470 390 470 390 392 393 c 1,32,-1
 392 226 l 1,33,-1
 314 226 l 1,19,-1
EndSplineSet
Substitution2: "'ss01' Style Set 1 in 'DFLT' lookup 51 subtable" Ttha.Nnagari.ss01
Substitution2: "'aalt' +BBIEQQQ1 +BDAEOwRMBEIENQRABD0EMARCBDgEMgQ9BEsENQAA +BDIEMARABDgEMAQ9BEIESwAA in 'DFLT' lookup 0 subtable" Ttha.Nnagari.ss01
EndChar

StartChar: Dda.Nnagari
Encoding: 72122 72122 28
Width: 552
VWidth: 1460
GlyphClass: 2
Flags: W
AnchorPoint: "+BBEENQQ3BEsEPARPBD0EPQQ+BDUA--1" 425 602 basechar 0
AnchorPoint: "+BBEENQQ3BEsEPARPBD0EPQQ+BDUA--0" 384 42 basechar 0
LayerCount: 2
Fore
SplineSet
236 -7 m 0,0,1
 144 -7 144 -7 102 28.5 c 128,-1,2
 60 64 60 64 60 113 c 0,3,4
 60 172 60 172 102 204 c 128,-1,5
 144 236 144 236 212 236 c 0,6,7
 268 236 268 236 314 212 c 128,-1,8
 360 188 360 188 386 151 c 1,9,10
 391 170 391 170 391 194 c 0,11,12
 391 239 391 239 364.5 269 c 128,-1,13
 338 299 338 299 293 314 c 128,-1,14
 248 329 248 329 191 329 c 2,15,-1
 105 329 l 1,16,-1
 105 398 l 1,17,18
 197 413 197 413 265.5 458 c 128,-1,19
 334 503 334 503 371 559 c 1,20,-1
 60 558 l 1,21,-1
 60 622 l 1,22,-1
 458 622 l 1,23,-1
 458 559 l 1,24,25
 439 513 439 513 391.5 465 c 128,-1,26
 344 417 344 417 267 385 c 1,27,28
 318 380 318 380 364 359.5 c 128,-1,29
 410 339 410 339 439 297.5 c 128,-1,30
 468 256 468 256 468 189 c 0,31,32
 468 104 468 104 407.5 48.5 c 128,-1,33
 347 -7 347 -7 236 -7 c 0,0,1
142 114 m 0,34,35
 142 93 142 93 165.5 79 c 128,-1,36
 189 65 189 65 235 65 c 0,37,38
 309 65 309 65 349 95 c 1,39,40
 321 127 321 127 286.5 145.5 c 128,-1,41
 252 164 252 164 213 164 c 0,42,43
 179 164 179 164 160.5 150.5 c 128,-1,44
 142 137 142 137 142 114 c 0,34,35
EndSplineSet
EndChar

StartChar: Ddha.Nnagari
Encoding: 72123 72123 29
Width: 798
VWidth: 1460
GlyphClass: 2
Flags: W
AnchorPoint: "+BBEENQQ3BEsEPARPBD0EPQQ+BDUA--1" 344 602 basechar 0
AnchorPoint: "+BBEENQQ3BEsEPARPBD0EPQQ+BDUA--0" 375 0 basechar 0
LayerCount: 2
Fore
SplineSet
365 -4 m 0,0,1
 212 -4 212 -4 133.5 61.5 c 128,-1,2
 55 127 55 127 55 238 c 0,3,4
 55 307 55 307 87.5 357.5 c 128,-1,5
 120 408 120 408 175.5 435.5 c 128,-1,6
 231 463 231 463 299 463 c 1,7,-1
 299 558 l 1,8,-1
 40 558 l 1,9,-1
 40 622 l 1,10,-1
 377 622 l 1,11,-1
 377 236 l 1,12,-1
 299 236 l 1,13,-1
 299 393 l 1,14,15
 230 392 230 392 183.5 351 c 128,-1,16
 137 310 137 310 137 238 c 0,17,18
 137 155 137 155 195.5 111.5 c 128,-1,19
 254 68 254 68 365 68 c 0,20,21
 461 68 461 68 527.5 100 c 128,-1,22
 594 132 594 132 630 182 c 1,23,24
 574 190 574 190 533 225 c 128,-1,25
 492 260 492 260 492 325 c 0,26,27
 492 382 492 382 526.5 415 c 128,-1,28
 561 448 561 448 616 448 c 0,29,30
 672 448 672 448 709 412.5 c 128,-1,31
 746 377 746 377 746 305 c 0,32,33
 746 245 746 245 721 189.5 c 128,-1,34
 696 134 696 134 647 90.5 c 128,-1,35
 598 47 598 47 527.5 21.5 c 128,-1,36
 457 -4 457 -4 365 -4 c 0,0,1
570 326 m 0,37,38
 570 255 570 255 660 243 c 1,39,40
 670 275 670 275 670 308 c 0,41,42
 670 340 670 340 655.5 358.5 c 128,-1,43
 641 377 641 377 618 377 c 0,44,45
 596 377 596 377 583 363 c 128,-1,46
 570 349 570 349 570 326 c 0,37,38
EndSplineSet
Substitution2: "'ss01' Style Set 1 in 'DFLT' lookup 51 subtable" Ddha.Nnagari.ss01
Substitution2: "'aalt' +BBIEQQQ1 +BDAEOwRMBEIENQRABD0EMARCBDgEMgQ9BEsENQAA +BDIEMARABDgEMAQ9BEIESwAA in 'DFLT' lookup 0 subtable" Ddha.Nnagari.ss01
EndChar

StartChar: Nna.Nnagari
Encoding: 72124 72124 30
Width: 902
VWidth: 1460
GlyphClass: 2
Flags: W
AnchorPoint: "+BBEENQQ3BEsEPARPBD0EPQQ+BDUA--1" 754 602 basechar 0
AnchorPoint: "+BBEENQQ3BEsEPARPBD0EPQQ+BDUA--0" 748 0 basechar 0
LayerCount: 2
Fore
SplineSet
115 0 m 1,0,-1
 115 622 l 1,1,-1
 787 622 l 1,2,-1
 787 0 l 1,3,-1
 709 0 l 1,4,-1
 709 558 l 1,5,-1
 489 558 l 1,6,-1
 489 0 l 1,7,-1
 411 0 l 1,8,-1
 411 558 l 1,9,-1
 193 558 l 1,10,-1
 193 0 l 1,11,-1
 115 0 l 1,0,-1
EndSplineSet
EndChar

StartChar: Ta.Nnagari
Encoding: 72125 72125 31
Width: 658
VWidth: 1460
GlyphClass: 2
Flags: W
AnchorPoint: "+BBEENQQ3BEsEPARPBD0EPQQ+BDUA--1" 510 602 basechar 0
AnchorPoint: "+BBEENQQ3BEsEPARPBD0EPQQ+BDUA--0" 504 0 basechar 0
LayerCount: 2
Fore
SplineSet
50 0 m 1,0,-1
 50 30 l 2,1,2
 50 149 50 149 98.5 230 c 128,-1,3
 147 311 147 311 234.5 352.5 c 128,-1,4
 322 394 322 394 438 394 c 2,5,-1
 465 394 l 1,6,-1
 465 558 l 1,7,-1
 40 558 l 1,8,-1
 40 622 l 1,9,-1
 543 622 l 1,10,-1
 543 0 l 1,11,-1
 465 0 l 1,12,-1
 465 320 l 1,13,-1
 438 320 l 2,14,15
 295 320 295 320 212 244 c 128,-1,16
 129 168 129 168 129 23 c 2,17,-1
 129 0 l 1,18,-1
 50 0 l 1,0,-1
EndSplineSet
EndChar

StartChar: Tha.Nnagari
Encoding: 72126 72126 32
Width: 678
VWidth: 1460
GlyphClass: 2
Flags: W
AnchorPoint: "+BBEENQQ3BEsEPARPBD0EPQQ+BDUA--1" 530 602 basechar 0
AnchorPoint: "+BBEENQQ3BEsEPARPBD0EPQQ+BDUA--0" 524 0 basechar 0
LayerCount: 2
Fore
SplineSet
309 81 m 0,0,1
 194 81 194 81 132 123.5 c 128,-1,2
 70 166 70 166 70 245 c 0,3,4
 70 327 70 327 147 361 c 1,5,6
 60 392 60 392 60 486 c 0,7,8
 60 551 60 551 103 586.5 c 128,-1,9
 146 622 146 622 226 622 c 2,10,-1
 563 622 l 1,11,-1
 563 0 l 1,12,-1
 485 0 l 1,13,-1
 485 121 l 1,14,15
 452 103 452 103 407 92 c 128,-1,16
 362 81 362 81 309 81 c 0,0,1
309 153 m 0,17,18
 363 153 363 153 409.5 165.5 c 128,-1,19
 456 178 456 178 485 200 c 1,20,-1
 485 558 l 1,21,-1
 236 558 l 2,22,23
 191 558 191 558 166.5 538.5 c 128,-1,24
 142 519 142 519 142 481 c 0,25,26
 142 441 142 441 169.5 419.5 c 128,-1,27
 197 398 197 398 249 398 c 2,28,-1
 378 398 l 1,29,-1
 378 328 l 1,30,-1
 269 328 l 2,31,32
 213 328 213 328 182.5 306.5 c 128,-1,33
 152 285 152 285 152 245 c 0,34,35
 152 201 152 201 192.5 177 c 128,-1,36
 233 153 233 153 309 153 c 0,17,18
EndSplineSet
Substitution2: "Single Substitution lookup 49 subtable" ThaPost.Nnagari
Substitution2: "'aalt' +BBIEQQQ1 +BDAEOwRMBEIENQRABD0EMARCBDgEMgQ9BEsENQAA +BDIEMARABDgEMAQ9BEIESwAA in 'DFLT' lookup 0 subtable" ThaPost.Nnagari
EndChar

StartChar: Da.Nnagari
Encoding: 72127 72127 33
Width: 492
VWidth: 1460
GlyphClass: 2
Flags: W
AnchorPoint: "+BBEENQQ3BEsEPARPBD0EPQQ+BDUA--1" 324 602 basechar 0
AnchorPoint: "+BBEENQQ3BEsEPARPBD0EPQQ+BDUA--0" 348 0 basechar 0
LayerCount: 2
Fore
SplineSet
309 0 m 1,0,-1
 309 220 l 2,1,2
 309 270 309 270 289 290.5 c 128,-1,3
 269 311 269 311 219 311 c 2,4,-1
 44 311 l 1,5,-1
 44 388 l 1,6,7
 82 406 82 406 125 433.5 c 128,-1,8
 168 461 168 461 206 493 c 128,-1,9
 244 525 244 525 269 558 c 1,10,-1
 25 558 l 1,11,-1
 25 622 l 1,12,-1
 357 622 l 1,13,-1
 357 558 l 1,14,15
 329 508 329 508 279 460.5 c 128,-1,16
 229 413 229 413 171 379 c 1,17,-1
 220 379 l 2,18,19
 308 379 308 379 347.5 342.5 c 128,-1,20
 387 306 387 306 387 220 c 2,21,-1
 387 0 l 1,22,-1
 309 0 l 1,0,-1
EndSplineSet
EndChar

StartChar: Dha.Nnagari
Encoding: 72128 72128 34
Width: 867
VWidth: 1460
GlyphClass: 2
Flags: W
AnchorPoint: "+BBEENQQ3BEsEPARPBD0EPQQ+BDUA--1" 595 602 basechar 0
AnchorPoint: "+BBEENQQ3BEsEPARPBD0EPQQ+BDUA--0" 713 0 basechar 0
LayerCount: 2
Fore
SplineSet
190 295 m 0,0,1
 136 295 136 295 98 331 c 128,-1,2
 60 367 60 367 60 441 c 0,3,4
 60 500 60 500 86.5 541.5 c 128,-1,5
 113 583 113 583 158 605 c 128,-1,6
 203 627 203 627 259 627 c 0,7,8
 320 627 320 627 366 600 c 128,-1,9
 412 573 412 573 434 526 c 1,10,11
 468 627 468 627 580 627 c 0,12,13
 663 627 663 627 707.5 574.5 c 128,-1,14
 752 522 752 522 752 423 c 2,15,-1
 752 0 l 1,16,-1
 674 0 l 1,17,-1
 674 421 l 2,18,19
 674 486 674 486 648.5 520.5 c 128,-1,20
 623 555 623 555 575 555 c 256,21,22
 527 555 527 555 503.5 519 c 128,-1,23
 480 483 480 483 477 415 c 2,24,-1
 475 365 l 1,25,-1
 397 365 l 1,26,-1
 395 405 l 2,27,28
 392 470 392 470 357.5 512.5 c 128,-1,29
 323 555 323 555 256 555 c 0,30,31
 228 555 228 555 206.5 547 c 128,-1,32
 185 539 185 539 171 527 c 1,33,34
 228 526 228 526 266.5 492.5 c 128,-1,35
 305 459 305 459 305 401 c 0,36,37
 305 353 305 353 272.5 324 c 128,-1,38
 240 295 240 295 190 295 c 0,0,1
136 443 m 0,39,40
 136 399 136 399 153.5 382 c 128,-1,41
 171 365 171 365 190 365 c 0,42,43
 207 365 207 365 218 375.5 c 128,-1,44
 229 386 229 386 229 403 c 0,45,46
 229 435 229 435 206 452.5 c 128,-1,47
 183 470 183 470 150 469 c 0,48,49
 146 469 146 469 138 468 c 1,50,51
 136 456 136 456 136 443 c 0,39,40
EndSplineSet
Substitution2: "'ss01' Style Set 1 in 'DFLT' lookup 51 subtable" Dha.Nnagari.ss01
Substitution2: "'aalt' +BBIEQQQ1 +BDAEOwRMBEIENQRABD0EMARCBDgEMgQ9BEsENQAA +BDIEMARABDgEMAQ9BEIESwAA in 'DFLT' lookup 0 subtable" Dha.Nnagari.ss01
EndChar

StartChar: Na.Nnagari
Encoding: 72129 72129 35
Width: 660
VWidth: 1460
GlyphClass: 2
Flags: W
AnchorPoint: "+BBEENQQ3BEsEPARPBD0EPQQ+BDUA--1" 512 602 basechar 0
AnchorPoint: "+BBEENQQ3BEsEPARPBD0EPQQ+BDUA--0" 506 0 basechar 0
LayerCount: 2
Fore
SplineSet
193 41 m 0,0,1
 132 41 132 41 92 78 c 128,-1,2
 52 115 52 115 52 178 c 0,3,4
 52 271 52 271 130 321.5 c 128,-1,5
 208 372 208 372 371 372 c 2,6,-1
 467 372 l 1,7,-1
 467 558 l 1,8,-1
 40 558 l 1,9,-1
 40 622 l 1,10,-1
 545 622 l 1,11,-1
 545 0 l 1,12,-1
 467 0 l 1,13,-1
 467 300 l 1,14,-1
 387 300 l 2,15,16
 320 299 320 299 273 292 c 1,17,18
 331 244 331 244 331 169 c 0,19,20
 331 109 331 109 294.5 75 c 128,-1,21
 258 41 258 41 193 41 c 0,0,1
130 178 m 0,22,23
 130 148 130 148 147.5 129.5 c 128,-1,24
 165 111 165 111 193 111 c 0,25,26
 219 111 219 111 236 125 c 128,-1,27
 253 139 253 139 253 173 c 0,28,29
 253 203 253 203 238 229 c 128,-1,30
 223 255 223 255 199 274 c 1,31,32
 162 259 162 259 146 235.5 c 128,-1,33
 130 212 130 212 130 178 c 0,22,23
EndSplineSet
Substitution2: "Single Substitution lookup 49 subtable" NaPost.Nnagari
Substitution2: "'aalt' +BBIEQQQ1 +BDAEOwRMBEIENQRABD0EMARCBDgEMgQ9BEsENQAA +BDIEMARABDgEMAQ9BEIESwAA in 'DFLT' lookup 0 subtable" NaPost.Nnagari
EndChar

StartChar: Pa.Nnagari
Encoding: 72130 72130 36
Width: 661
VWidth: 1460
GlyphClass: 2
Flags: W
AnchorPoint: "+BBEENQQ3BEsEPARPBD0EPQQ+BDUA--1" 513 602 basechar 0
AnchorPoint: "+BBEENQQ3BEsEPARPBD0EPQQ+BDUA--0" 507 0 basechar 0
LayerCount: 2
Fore
SplineSet
306 211 m 0,0,1
 178 211 178 211 119 285.5 c 128,-1,2
 60 360 60 360 60 495 c 2,3,-1
 60 622 l 1,4,-1
 546 622 l 1,5,-1
 546 0 l 1,6,-1
 468 0 l 1,7,-1
 468 267 l 1,8,9
 442 243 442 243 402.5 227 c 128,-1,10
 363 211 363 211 306 211 c 0,0,1
138 495 m 2,11,12
 138 383 138 383 181 333 c 128,-1,13
 224 283 224 283 306 283 c 0,14,15
 361 283 361 283 403.5 306 c 128,-1,16
 446 329 446 329 468 367 c 1,17,-1
 468 558 l 1,18,-1
 138 558 l 1,19,-1
 138 495 l 2,11,12
EndSplineSet
Substitution2: "Single Substitution lookup 69 subtable" PaPost1.Nnagari
Substitution2: "Single Substitution lookup 45 subtable" PaPost1.Nnagari
Substitution2: "'aalt' +BBIEQQQ1 +BDAEOwRMBEIENQRABD0EMARCBDgEMgQ9BEsENQAA +BDIEMARABDgEMAQ9BEIESwAA in 'DFLT' lookup 0 subtable" PaPost1.Nnagari
EndChar

StartChar: Pha.Nnagari
Encoding: 72131 72131 37
Width: 941
VWidth: 1460
GlyphClass: 2
Flags: W
AnchorPoint: "+BBEENQQ3BEsEPARPBD0EPQQ+BDUA--1" 513 602 basechar 0
AnchorPoint: "+BBEENQQ3BEsEPARPBD0EPQQ+BDUA--0" 797 0 basechar 0
LayerCount: 2
Fore
SplineSet
306 211 m 0,0,1
 178 211 178 211 119 285.5 c 128,-1,2
 60 360 60 360 60 495 c 2,3,-1
 60 622 l 1,4,-1
 510 622 l 1,5,6
 545 644 545 644 580.5 654 c 128,-1,7
 616 664 616 664 646 664 c 0,8,9
 732 667 732 667 779.5 624 c 128,-1,10
 827 581 827 581 827 510 c 0,11,12
 827 452 827 452 800.5 413.5 c 128,-1,13
 774 375 774 375 729 352 c 1,14,15
 784 341 784 341 810 303 c 128,-1,16
 836 265 836 265 836 190 c 2,17,-1
 836 0 l 1,18,-1
 758 0 l 1,19,-1
 758 190 l 2,20,21
 758 247 758 247 736 269 c 128,-1,22
 714 291 714 291 668 291 c 2,23,-1
 593 291 l 1,24,-1
 593 368 l 1,25,26
 636 379 636 379 671.5 397 c 128,-1,27
 707 415 707 415 728 442.5 c 128,-1,28
 749 470 749 470 749 507 c 0,29,30
 749 551 749 551 721.5 574.5 c 128,-1,31
 694 598 694 598 646 598 c 0,32,33
 591 598 591 598 546 564 c 1,34,-1
 546 0 l 1,35,-1
 468 0 l 1,36,-1
 468 267 l 1,37,38
 442 243 442 243 402.5 227 c 128,-1,39
 363 211 363 211 306 211 c 0,0,1
138 495 m 2,40,41
 138 383 138 383 181 333 c 128,-1,42
 224 283 224 283 306 283 c 0,43,44
 361 283 361 283 403.5 306 c 128,-1,45
 446 329 446 329 468 367 c 1,46,-1
 468 558 l 1,47,-1
 138 558 l 1,48,-1
 138 495 l 2,40,41
EndSplineSet
Substitution2: "Single Substitution lookup 69 subtable" PhaPost1.Nnagari
MultipleSubs2: "'ss01' Style Set 1 in 'DFLT' lookup 52 subtable" PhaPart1.Nnagari.ss01 PhaPart2.Nnagari.ss01
Substitution2: "Single Substitution lookup 45 subtable" PhaPost1.Nnagari
Substitution2: "'aalt' +BBIEQQQ1 +BDAEOwRMBEIENQRABD0EMARCBDgEMgQ9BEsENQAA +BDIEMARABDgEMAQ9BEIESwAA in 'DFLT' lookup 0 subtable" PhaPost1.Nnagari
EndChar

StartChar: Ba.Nnagari
Encoding: 72132 72132 38
Width: 653
VWidth: 1460
GlyphClass: 2
Flags: W
AnchorPoint: "+BBEENQQ3BEsEPARPBD0EPQQ+BDUA--1" 505 602 basechar 0
AnchorPoint: "+BBEENQQ3BEsEPARPBD0EPQQ+BDUA--0" 499 0 basechar 0
LayerCount: 2
Fore
SplineSet
286 78 m 256,0,1
 179 78 179 78 118 128 c 128,-1,2
 57 178 57 178 57 271 c 0,3,4
 57 329 57 329 85.5 372 c 128,-1,5
 114 415 114 415 166 439 c 128,-1,6
 218 463 218 463 286 463 c 0,7,8
 337 463 337 463 383 449.5 c 128,-1,9
 429 436 429 436 460 413 c 1,10,-1
 460 558 l 1,11,-1
 38 558 l 1,12,-1
 38 622 l 1,13,-1
 538 622 l 1,14,-1
 538 0 l 1,15,-1
 460 0 l 1,16,-1
 460 131 l 1,17,18
 393 78 393 78 286 78 c 256,0,1
292 393 m 0,19,20
 264 393 264 393 241 389 c 1,21,-1
 413 180 l 1,22,23
 429 190 429 190 441 200.5 c 128,-1,24
 453 211 453 211 462 222 c 1,25,-1
 462 328 l 1,26,27
 437 351 437 351 395 372 c 128,-1,28
 353 393 353 393 292 393 c 0,19,20
135 271 m 0,29,30
 135 212 135 212 175.5 180 c 128,-1,31
 216 148 216 148 292 148 c 0,32,33
 323 148 323 148 350 154 c 1,34,-1
 177 363 l 1,35,36
 155 347 155 347 145 323.5 c 128,-1,37
 135 300 135 300 135 271 c 0,29,30
EndSplineSet
Substitution2: "'ss03' Style Set 3 in 'DFLT' lookup 90 subtable" Ba.Nnagari.ss03
Substitution2: "'aalt' +BBIEQQQ1 +BDAEOwRMBEIENQRABD0EMARCBDgEMgQ9BEsENQAA +BDIEMARABDgEMAQ9BEIESwAA in 'DFLT' lookup 0 subtable" Ba.Nnagari.ss03
EndChar

StartChar: Bha.Nnagari
Encoding: 72133 72133 39
Width: 663
VWidth: 1460
GlyphClass: 2
Flags: W
AnchorPoint: "+BBEENQQ3BEsEPARPBD0EPQQ+BDUA--1" 515 602 basechar 0
AnchorPoint: "+BBEENQQ3BEsEPARPBD0EPQQ+BDUA--0" 509 0 basechar 0
LayerCount: 2
Fore
SplineSet
77 0 m 1,0,-1
 77 373 l 1,1,-1
 470 373 l 1,2,-1
 470 558 l 1,3,-1
 40 558 l 1,4,-1
 40 622 l 1,5,-1
 548 622 l 1,6,-1
 548 0 l 1,7,-1
 470 0 l 1,8,-1
 470 301 l 1,9,-1
 155 301 l 1,10,-1
 155 0 l 1,11,-1
 77 0 l 1,0,-1
EndSplineSet
EndChar

StartChar: Ma.Nnagari
Encoding: 72134 72134 40
Width: 712
VWidth: 1460
GlyphClass: 2
Flags: W
AnchorPoint: "+BBEENQQ3BEsEPARPBD0EPQQ+BDUA--1" 564 602 basechar 0
AnchorPoint: "+BBEENQQ3BEsEPARPBD0EPQQ+BDUA--0" 558 0 basechar 0
LayerCount: 2
Fore
SplineSet
192 44 m 0,0,1
 130 44 130 44 87.5 80.5 c 128,-1,2
 45 117 45 117 45 182 c 0,3,4
 45 221 45 221 65.5 255.5 c 128,-1,5
 86 290 86 290 130.5 313 c 128,-1,6
 175 336 175 336 248 342 c 1,7,8
 245 394 245 394 239.5 449 c 128,-1,9
 234 504 234 504 229 558 c 1,10,-1
 54 558 l 1,11,-1
 54 622 l 1,12,-1
 597 622 l 1,13,-1
 597 0 l 1,14,-1
 519 0 l 1,15,-1
 519 272 l 1,16,-1
 330 272 l 1,17,18
 331 241 331 241 331 214 c 0,19,20
 331 126 331 126 295 85 c 128,-1,21
 259 44 259 44 192 44 c 0,0,1
326 344 m 1,22,-1
 519 344 l 1,23,-1
 519 558 l 1,24,-1
 307 558 l 1,25,26
 313 505 313 505 318 450.5 c 128,-1,27
 323 396 323 396 326 344 c 1,22,-1
123 182 m 0,28,29
 123 151 123 151 142.5 132.5 c 128,-1,30
 162 114 162 114 191 114 c 0,31,32
 223 114 223 114 238 138 c 128,-1,33
 253 162 253 162 253 214 c 0,34,35
 253 240 253 240 252 271 c 1,36,37
 178 264 178 264 150.5 239 c 128,-1,38
 123 214 123 214 123 182 c 0,28,29
EndSplineSet
EndChar

StartChar: Ya.Nnagari
Encoding: 72135 72135 41
Width: 712
VWidth: 1460
GlyphClass: 2
Flags: W
AnchorPoint: "+BBEENQQ3BEsEPARPBD0EPQQ+BDUA--1" 564 602 basechar 0
AnchorPoint: "+BBEENQQ3BEsEPARPBD0EPQQ+BDUA--0" 558 0 basechar 0
LayerCount: 2
Fore
SplineSet
304 127 m 0,0,1
 237 127 237 127 172.5 149 c 128,-1,2
 108 171 108 171 59 220 c 1,3,-1
 59 292 l 1,4,5
 131 324 131 324 168.5 370.5 c 128,-1,6
 206 417 206 417 206 477 c 0,7,8
 206 515 206 515 193 558 c 1,9,-1
 37 558 l 1,10,-1
 37 622 l 1,11,-1
 597 622 l 1,12,-1
 597 0 l 1,13,-1
 519 0 l 1,14,-1
 519 205 l 1,15,16
 483 168 483 168 429.5 147.5 c 128,-1,17
 376 127 376 127 304 127 c 0,0,1
285 471 m 0,18,19
 285 403 285 403 246 345 c 128,-1,20
 207 287 207 287 135 253 c 1,21,22
 169 226 169 226 214 212.5 c 128,-1,23
 259 199 259 199 311 199 c 0,24,25
 383 199 383 199 438.5 228.5 c 128,-1,26
 494 258 494 258 519 308 c 1,27,-1
 519 558 l 1,28,-1
 271 558 l 1,29,30
 285 515 285 515 285 471 c 0,18,19
EndSplineSet
EndChar

StartChar: Ra.Nnagari
Encoding: 72136 72136 42
Width: 590
VWidth: 1460
GlyphClass: 2
Flags: W
AnchorPoint: "+BBEENQQ3BEsEPARPBD0EPQQ+BDUA--1" 442 602 basechar 0
AnchorPoint: "+BBEENQQ3BEsEPARPBD0EPQQ+BDUA--0" 436 0 basechar 0
LayerCount: 2
Fore
SplineSet
50 271 m 1,0,-1
 50 341 l 1,1,-1
 397 341 l 1,2,-1
 397 558 l 1,3,-1
 30 558 l 1,4,-1
 30 622 l 1,5,-1
 475 622 l 1,6,-1
 475 0 l 1,7,-1
 397 0 l 1,8,-1
 397 271 l 1,9,-1
 50 271 l 1,0,-1
EndSplineSet
Substitution2: "'ss03' Style Set 3 in 'DFLT' lookup 90 subtable" Ra.Nnagari.ss03
Substitution2: "'aalt' +BBIEQQQ1 +BDAEOwRMBEIENQRABD0EMARCBDgEMgQ9BEsENQAA +BDIEMARABDgEMAQ9BEIESwAA in 'DFLT' lookup 0 subtable" Ra.Nnagari.ss03
EndChar

StartChar: La.Nnagari
Encoding: 72137 72137 43
Width: 782
VWidth: 1460
GlyphClass: 2
Flags: W
AnchorPoint: "+BBEENQQ3BEsEPARPBD0EPQQ+BDUA--1" 634 602 basechar 0
AnchorPoint: "+BBEENQQ3BEsEPARPBD0EPQQ+BDUA--0" 628 0 basechar 0
LayerCount: 2
Fore
SplineSet
133 0 m 1,0,1
 98 64 98 64 81.5 118 c 128,-1,2
 65 172 65 172 65 224 c 0,3,4
 65 313 65 313 112.5 360 c 128,-1,5
 160 407 160 407 234 407 c 0,6,7
 291 407 291 407 327 383 c 128,-1,8
 363 359 363 359 380 317 c 1,9,10
 417 411 417 411 532 411 c 0,11,12
 565 411 565 411 589 401 c 1,13,-1
 589 558 l 1,14,-1
 40 558 l 1,15,-1
 40 622 l 1,16,-1
 667 622 l 1,17,-1
 667 0 l 1,18,-1
 589 0 l 1,19,-1
 589 328 l 1,20,21
 564 339 564 339 536 339 c 0,22,23
 489 339 489 339 454.5 309.5 c 128,-1,24
 420 280 420 280 418 210 c 2,25,-1
 417 162 l 1,26,-1
 341 162 l 1,27,-1
 340 210 l 2,28,29
 339 278 339 278 310.5 306.5 c 128,-1,30
 282 335 282 335 239 335 c 0,31,32
 194 335 194 335 168.5 306 c 128,-1,33
 143 277 143 277 143 224 c 0,34,35
 143 131 143 131 218 0 c 1,36,-1
 133 0 l 1,0,1
EndSplineSet
EndChar

StartChar: Va.Nnagari
Encoding: 72138 72138 44
Width: 636
VWidth: 1460
GlyphClass: 2
Flags: W
AnchorPoint: "+BBEENQQ3BEsEPARPBD0EPQQ+BDUA--1" 488 602 basechar 0
AnchorPoint: "+BBEENQQ3BEsEPARPBD0EPQQ+BDUA--0" 482 0 basechar 0
LayerCount: 2
Fore
SplineSet
280 84 m 0,0,1
 173 84 173 84 112 133.5 c 128,-1,2
 51 183 51 183 51 271 c 0,3,4
 51 327 51 327 79 368.5 c 128,-1,5
 107 410 107 410 158.5 433.5 c 128,-1,6
 210 457 210 457 280 457 c 0,7,8
 326 457 326 457 369 445.5 c 128,-1,9
 412 434 412 434 443 414 c 1,10,-1
 443 558 l 1,11,-1
 30 558 l 1,12,-1
 30 622 l 1,13,-1
 521 622 l 1,14,-1
 521 0 l 1,15,-1
 443 0 l 1,16,-1
 443 129 l 1,17,18
 378 84 378 84 280 84 c 0,0,1
129 271 m 0,19,20
 129 216 129 216 169.5 185 c 128,-1,21
 210 154 210 154 286 154 c 0,22,23
 343 154 343 154 382 173 c 128,-1,24
 421 192 421 192 445 216 c 1,25,-1
 445 332 l 1,26,27
 420 353 420 353 380.5 370 c 128,-1,28
 341 387 341 387 286 387 c 0,29,30
 203 387 203 387 166 354.5 c 128,-1,31
 129 322 129 322 129 271 c 0,19,20
EndSplineSet
Substitution2: "Single Substitution lookup 49 subtable" VaPost.Nnagari
Substitution2: "'aalt' +BBIEQQQ1 +BDAEOwRMBEIENQRABD0EMARCBDgEMgQ9BEsENQAA +BDIEMARABDgEMAQ9BEIESwAA in 'DFLT' lookup 0 subtable" VaPost.Nnagari
EndChar

StartChar: Sha.Nnagari
Encoding: 72139 72139 45
Width: 722
VWidth: 1460
GlyphClass: 2
Flags: W
AnchorPoint: "+BBEENQQ3BEsEPARPBD0EPQQ+BDUA--1" 574 602 basechar 0
AnchorPoint: "+BBEENQQ3BEsEPARPBD0EPQQ+BDUA--0" 568 0 basechar 0
LayerCount: 2
Fore
SplineSet
258 0 m 1,0,-1
 141 163 l 2,1,2
 80 249 80 249 43 275 c 1,3,-1
 43 346 l 1,4,-1
 52 347 l 2,5,6
 126 355 126 355 175.5 409 c 128,-1,7
 225 463 225 463 225 552 c 2,8,-1
 225 558 l 1,9,-1
 25 558 l 1,10,-1
 25 622 l 1,11,-1
 607 622 l 1,12,-1
 607 0 l 1,13,-1
 529 0 l 1,14,-1
 529 558 l 1,15,-1
 305 558 l 1,16,-1
 305 552 l 2,17,18
 305 451 305 451 254.5 386 c 128,-1,19
 204 321 204 321 122 297 c 1,20,21
 145 279 145 279 167 253 c 128,-1,22
 189 227 189 227 211 196 c 2,23,-1
 349 0 l 1,24,-1
 258 0 l 1,0,-1
EndSplineSet
EndChar

StartChar: Ssa.Nnagari
Encoding: 72140 72140 46
Width: 671
VWidth: 1460
GlyphClass: 2
Flags: W
AnchorPoint: "+BBEENQQ3BEsEPARPBD0EPQQ+BDUA--1" 523 602 basechar 0
AnchorPoint: "+BBEENQQ3BEsEPARPBD0EPQQ+BDUA--0" 517 0 basechar 0
LayerCount: 2
Fore
SplineSet
306 201 m 0,0,1
 178 201 178 201 119 275.5 c 128,-1,2
 60 350 60 350 60 485 c 2,3,-1
 60 622 l 1,4,-1
 556 622 l 1,5,-1
 556 0 l 1,6,-1
 478 0 l 1,7,-1
 478 260 l 1,8,9
 451 235 451 235 409.5 218 c 128,-1,10
 368 201 368 201 306 201 c 0,0,1
219 558 m 1,11,-1
 478 361 l 1,12,13
 478 361 478 361 478 362 c 2,14,-1
 478 558 l 1,15,-1
 219 558 l 1,11,-1
138 485 m 2,16,17
 138 373 138 373 181 323 c 128,-1,18
 224 273 224 273 306 273 c 0,19,20
 345 273 345 273 377.5 283.5 c 128,-1,21
 410 294 410 294 435 313 c 1,22,-1
 138 544 l 1,23,-1
 138 485 l 2,16,17
EndSplineSet
EndChar

StartChar: Sa.Nnagari
Encoding: 72141 72141 47
Width: 801
VWidth: 1460
GlyphClass: 2
Flags: W
AnchorPoint: "+BBEENQQ3BEsEPARPBD0EPQQ+BDUA--1" 653 602 basechar 0
AnchorPoint: "+BBEENQQ3BEsEPARPBD0EPQQ+BDUA--0" 647 0 basechar 0
LayerCount: 2
Fore
SplineSet
258 0 m 1,0,-1
 141 163 l 2,1,2
 80 249 80 249 43 275 c 1,3,-1
 43 346 l 1,4,-1
 52 347 l 2,5,6
 90 351 90 351 123 372 c 128,-1,7
 156 393 156 393 176 434.5 c 128,-1,8
 196 476 196 476 196 542 c 2,9,-1
 196 558 l 1,10,-1
 25 558 l 1,11,-1
 25 622 l 1,12,-1
 686 622 l 1,13,-1
 686 0 l 1,14,-1
 608 0 l 1,15,-1
 608 558 l 1,16,-1
 517 558 l 1,17,18
 528 529 528 529 528 489 c 0,19,20
 528 416 528 416 481 374 c 128,-1,21
 434 332 434 332 358 332 c 0,22,23
 315 332 315 332 281 343.5 c 128,-1,24
 247 355 247 355 225 373 c 1,25,26
 204 345 204 345 177 326.5 c 128,-1,27
 150 308 150 308 121 298 c 1,28,29
 144 279 144 279 166.5 253 c 128,-1,30
 189 227 189 227 211 196 c 2,31,-1
 349 0 l 1,32,-1
 258 0 l 1,0,-1
274 539 m 2,33,34
 274 509 274 509 270 483 c 128,-1,35
 266 457 266 457 258 435 c 1,36,37
 295 404 295 404 353 404 c 0,38,39
 401 404 401 404 425.5 430 c 128,-1,40
 450 456 450 456 450 497 c 0,41,42
 450 535 450 535 434 558 c 1,43,-1
 274 558 l 1,44,-1
 274 539 l 2,33,34
EndSplineSet
EndChar

StartChar: Ha.Nnagari
Encoding: 72142 72142 48
Width: 725
VWidth: 1460
GlyphClass: 2
Flags: W
AnchorPoint: "+BBEENQQ3BEsEPARPBD0EPQQ+BDUA--1" 340 602 basechar 0
AnchorPoint: "+BBEENQQ3BEsEPARPBD0EPQQ+BDUA--0" 581 0 basechar 0
LayerCount: 2
Fore
SplineSet
542 0 m 1,0,-1
 542 218 l 2,1,2
 542 269 542 269 521 293 c 128,-1,3
 500 317 500 317 464 317 c 0,4,5
 438 317 438 317 414.5 303.5 c 128,-1,6
 391 290 391 290 375.5 253 c 128,-1,7
 360 216 360 216 355 145 c 1,8,-1
 285 145 l 1,9,10
 272 194 272 194 238 227.5 c 128,-1,11
 204 261 204 261 159.5 278.5 c 128,-1,12
 115 296 115 296 70 296 c 1,13,-1
 70 366 l 1,14,15
 110 382 110 382 155.5 413 c 128,-1,16
 201 444 201 444 237.5 482 c 128,-1,17
 274 520 274 520 288 558 c 1,18,-1
 25 558 l 1,19,-1
 25 622 l 1,20,-1
 373 622 l 1,21,-1
 373 575 l 1,22,23
 365 537 365 537 336.5 492.5 c 128,-1,24
 308 448 308 448 265.5 408 c 128,-1,25
 223 368 223 368 173 343 c 1,26,27
 254 319 254 319 301 251 c 1,28,29
 316 315 316 315 358.5 352 c 128,-1,30
 401 389 401 389 466 389 c 0,31,32
 537 389 537 389 578.5 346.5 c 128,-1,33
 620 304 620 304 620 224 c 2,34,-1
 620 0 l 1,35,-1
 542 0 l 1,0,-1
EndSplineSet
Substitution2: "'ss01' Style Set 1 in 'DFLT' lookup 51 subtable" Ha.Nnagari.ss01
Substitution2: "'aalt' +BBIEQQQ1 +BDAEOwRMBEIENQRABD0EMARCBDgEMgQ9BEsENQAA +BDIEMARABDgEMAQ9BEIESwAA in 'DFLT' lookup 0 subtable" Ha.Nnagari.ss01
EndChar

StartChar: Lla.Nnagari
Encoding: 72143 72143 49
Width: 809
VWidth: 1460
GlyphClass: 2
Flags: W
AnchorPoint: "+BBEENQQ3BEsEPARPBD0EPQQ+BDUA--1" 661 602 basechar 0
AnchorPoint: "+BBEENQQ3BEsEPARPBD0EPQQ+BDUA--0" 655 0 basechar 0
LayerCount: 2
Fore
SplineSet
205 -2 m 0,0,1
 135 -2 135 -2 95 47 c 128,-1,2
 55 96 55 96 55 178 c 0,3,4
 55 244 55 244 81.5 291 c 128,-1,5
 108 338 108 338 153 362.5 c 128,-1,6
 198 387 198 387 254 387 c 0,7,8
 323 387 323 387 365.5 358 c 128,-1,9
 408 329 408 329 426 288 c 1,10,11
 443 341 443 341 490 369 c 128,-1,12
 537 397 537 397 597 397 c 0,13,14
 607 397 607 397 616 396 c 1,15,-1
 616 558 l 1,16,-1
 40 558 l 1,17,-1
 40 622 l 1,18,-1
 694 622 l 1,19,-1
 694 0 l 1,20,-1
 616 0 l 1,21,-1
 616 324 l 1,22,23
 607 325 607 325 597 325 c 0,24,25
 536 325 536 325 501 290 c 128,-1,26
 466 255 466 255 464 190 c 2,27,-1
 463 162 l 1,28,-1
 387 162 l 1,29,-1
 386 190 l 2,30,31
 384 252 384 252 346.5 283.5 c 128,-1,32
 309 315 309 315 254 315 c 0,33,34
 166 315 166 315 141 237 c 1,35,36
 156 239 156 239 170 239 c 0,37,38
 242 239 242 239 283 203.5 c 128,-1,39
 324 168 324 168 324 108 c 0,40,41
 324 59 324 59 292 28.5 c 128,-1,42
 260 -2 260 -2 205 -2 c 0,0,1
159 174 m 0,43,44
 152 174 152 174 145.5 173.5 c 128,-1,45
 139 173 139 173 133 172 c 1,46,47
 134 121 134 121 154 94.5 c 128,-1,48
 174 68 174 68 204 68 c 0,49,50
 227 68 227 68 237.5 80 c 128,-1,51
 248 92 248 92 248 110 c 0,52,53
 248 133 248 133 228 153.5 c 128,-1,54
 208 174 208 174 159 174 c 0,43,44
EndSplineSet
EndChar

StartChar: Rra.Nnagari
Encoding: 72144 72144 50
Width: 752
VWidth: 1460
GlyphClass: 2
Flags: W
AnchorPoint: "+BBEENQQ3BEsEPARPBD0EPQQ+BDUA--1" 372 602 basechar 0
AnchorPoint: "+BBEENQQ3BEsEPARPBD0EPQQ+BDUA--0" 367 0 basechar 0
LayerCount: 2
Fore
SplineSet
334 0 m 1,0,-1
 50 316 l 1,1,-1
 105 366 l 1,2,-1
 267 181 l 2,3,4
 286 159 286 159 303.5 134.5 c 128,-1,5
 321 110 321 110 336 86 c 1,6,7
 333 123 333 123 330 164 c 128,-1,8
 327 205 327 205 327 243 c 2,9,-1
 327 558 l 1,10,-1
 40 558 l 1,11,-1
 40 622 l 1,12,-1
 692 622 l 1,13,-1
 692 558 l 1,14,-1
 405 558 l 1,15,-1
 405 243 l 2,16,17
 405 205 405 205 402 163.5 c 128,-1,18
 399 122 399 122 396 85 c 1,19,20
 412 109 412 109 429.5 133.5 c 128,-1,21
 447 158 447 158 465 179 c 2,22,-1
 627 366 l 1,23,-1
 682 316 l 1,24,-1
 398 0 l 1,25,-1
 334 0 l 1,0,-1
EndSplineSet
EndChar

StartChar: MatraAa.Nnagari
Encoding: 72145 72145 51
Width: 269
VWidth: 1460
GlyphClass: 2
Flags: W
AnchorPoint: "+BBEENQQ3BEsEPARPBD0EPQQ+BDUA--1" 121 602 basechar 0
AnchorPoint: "+BBEENQQ3BEsEPARPBD0EPQQ+BDUA--0" 115 0 basechar 0
LayerCount: 2
Fore
SplineSet
76 0 m 1,0,-1
 76 558 l 1,1,-1
 -455 558 l 1,2,-1
 -455 622 l 1,3,-1
 154 622 l 1,4,-1
 154 0 l 1,5,-1
 76 0 l 1,0,-1
EndSplineSet
Substitution2: "Single Substitution lookup 101 subtable" MatraAa2.Nnagari
Substitution2: "Single Substitution lookup 79 subtable" MatraAa2.Nnagari
Substitution2: "Single Substitution lookup 36 subtable" MatraAa3.Nnagari
Substitution2: "Single Substitution lookup 35 subtable" MatraAa2.Nnagari
Substitution2: "Single Substitution lookup 34 subtable" MatraAa1.Nnagari
AlternateSubs2: "'aalt' +BBIEQQQ1 +BDAEOwRMBEIENQRABD0EMARCBDgEMgQ9BEsENQAA +BDIEMARABDgEMAQ9BEIESwAA in 'DFLT' lookup 1 subtable" MatraAa1.Nnagari MatraAa2.Nnagari MatraAa3.Nnagari
EndChar

StartChar: MatraI.Nnagari
Encoding: 72146 72146 52
Width: 203
VWidth: 1460
Flags: W
LayerCount: 2
Fore
SplineSet
62 0 m 1,0,-1
 62 635 l 2,1,2
 62 761 62 761 142 829 c 128,-1,3
 222 897 222 897 370 897 c 0,4,5
 443 897 443 897 504.5 884.5 c 128,-1,6
 566 872 566 872 618 855 c 1,7,-1
 596 788 l 1,8,9
 548 803 548 803 489 814 c 128,-1,10
 430 825 430 825 370 825 c 0,11,12
 247 825 247 825 193.5 773 c 128,-1,13
 140 721 140 721 140 635 c 2,14,-1
 140 0 l 1,15,-1
 62 0 l 1,0,-1
EndSplineSet
Substitution2: "'ss04' Style Set 4 in 'DFLT' lookup 99 subtable" MatraI.Nnagari.ss04
Substitution2: "'ss02' Style Set 2 in 'DFLT' lookup 65 subtable" MatraI.Nnagari.ss02
AlternateSubs2: "'aalt' +BBIEQQQ1 +BDAEOwRMBEIENQRABD0EMARCBDgEMgQ9BEsENQAA +BDIEMARABDgEMAQ9BEIESwAA in 'DFLT' lookup 1 subtable" MatraI.Nnagari.ss02 MatraI.Nnagari.ss04
EndChar

StartChar: MatraIi.Nnagari
Encoding: 72147 72147 53
Width: 269
VWidth: 1460
Flags: W
LayerCount: 2
Fore
SplineSet
76 0 m 1,0,-1
 76 695 l 2,1,2
 76 762 76 762 46 794 c 128,-1,3
 16 826 16 826 -38 826 c 0,4,5
 -88 826 -88 826 -115.5 795.5 c 128,-1,6
 -143 765 -143 765 -143 721 c 0,7,8
 -143 687 -143 687 -134 663 c 128,-1,9
 -125 639 -125 639 -115 622 c 1,10,-1
 -115 558 l 1,11,-1
 -455 558 l 1,12,-1
 -455 622 l 1,13,-1
 -197 622 l 1,14,15
 -207 641 -207 641 -214 666 c 128,-1,16
 -221 691 -221 691 -221 721 c 0,17,18
 -221 772 -221 772 -198 811.5 c 128,-1,19
 -175 851 -175 851 -133.5 874 c 128,-1,20
 -92 897 -92 897 -38 897 c 0,21,22
 61 897 61 897 107.5 842.5 c 128,-1,23
 154 788 154 788 154 695 c 2,24,-1
 154 0 l 1,25,-1
 76 0 l 1,0,-1
EndSplineSet
Substitution2: "Single Substitution lookup 101 subtable" MatraIi2.Nnagari
Substitution2: "Single Substitution lookup 79 subtable" MatraIi2.Nnagari
Substitution2: "Single Substitution lookup 36 subtable" MatraIi3.Nnagari
Substitution2: "Single Substitution lookup 35 subtable" MatraIi2.Nnagari
Substitution2: "Single Substitution lookup 34 subtable" MatraIi1.Nnagari
AlternateSubs2: "'aalt' +BBIEQQQ1 +BDAEOwRMBEIENQRABD0EMARCBDgEMgQ9BEsENQAA +BDIEMARABDgEMAQ9BEIESwAA in 'DFLT' lookup 1 subtable" MatraIi1.Nnagari MatraIi2.Nnagari MatraIi3.Nnagari
EndChar

StartChar: MatraU.Nnagari
Encoding: 72148 72148 54
Width: 0
VWidth: 1460
GlyphClass: 4
Flags: W
AnchorPoint: "+BBEENQQ3BEsEPARPBD0EPQQ+BDUA--0" 467 0 mark 0
LayerCount: 2
Fore
SplineSet
192 -260 m 0,0,1
 143 -260 143 -260 104 -251 c 1,2,-1
 115 -181 l 1,3,4
 132 -184 132 -184 152 -186 c 128,-1,5
 172 -188 172 -188 192 -188 c 0,6,7
 298 -188 298 -188 363 -139.5 c 128,-1,8
 428 -91 428 -91 428 0 c 2,9,-1
 428 26 l 1,10,-1
 506 26 l 1,11,-1
 506 0 l 2,12,13
 506 -81 506 -81 467.5 -139.5 c 128,-1,14
 429 -198 429 -198 358.5 -229 c 128,-1,15
 288 -260 288 -260 192 -260 c 0,0,1
EndSplineSet
Substitution2: "Single Substitution lookup 97 subtable" MatraU2.Nnagari
Substitution2: "Single Substitution lookup 96 subtable" MatraU2.Nnagari
Substitution2: "Single Substitution lookup 95 subtable" MatraU1.Nnagari
Substitution2: "Single Substitution lookup 88 subtable" MatraU2.Nnagari
Substitution2: "Single Substitution lookup 87 subtable" MatraU2.Nnagari
Substitution2: "Single Substitution lookup 86 subtable" MatraU2.Nnagari
Substitution2: "Single Substitution lookup 85 subtable" MatraU2.Nnagari
Substitution2: "Single Substitution lookup 84 subtable" MatraU2.Nnagari
Substitution2: "Single Substitution lookup 83 subtable" MatraU1.Nnagari
Substitution2: "Single Substitution lookup 82 subtable" MatraU1.Nnagari
Substitution2: "Single Substitution lookup 81 subtable" MatraU1.Nnagari
Substitution2: "Single Substitution lookup 64 subtable" MatraU2.Nnagari
Substitution2: "Single Substitution lookup 63 subtable" MatraU1.Nnagari
Substitution2: "Single Substitution lookup 62 subtable" MatraU1.Nnagari
Substitution2: "Single Substitution lookup 61 subtable" MatraU1.Nnagari
Substitution2: "Single Substitution lookup 32 subtable" MatraU2.Nnagari
Substitution2: "Single Substitution lookup 30 subtable" MatraU1.Nnagari
AlternateSubs2: "'aalt' +BBIEQQQ1 +BDAEOwRMBEIENQRABD0EMARCBDgEMgQ9BEsENQAA +BDIEMARABDgEMAQ9BEIESwAA in 'DFLT' lookup 1 subtable" MatraU1.Nnagari MatraU2.Nnagari
EndChar

StartChar: MatraUu.Nnagari
Encoding: 72149 72149 55
Width: 0
VWidth: 1460
GlyphClass: 4
Flags: W
AnchorPoint: "+BBEENQQ3BEsEPARPBD0EPQQ+BDUA--0" 448 0 mark 0
LayerCount: 2
Fore
SplineSet
213 -252 m 0,0,1
 187 -252 187 -252 160 -249.5 c 128,-1,2
 133 -247 133 -247 116 -243 c 1,3,-1
 126 -174 l 1,4,5
 145 -178 145 -178 169 -180 c 128,-1,6
 193 -182 193 -182 213 -182 c 0,7,8
 308 -182 308 -182 358.5 -140 c 128,-1,9
 409 -98 409 -98 409 -13 c 2,10,-1
 409 26 l 1,11,-1
 487 26 l 1,12,-1
 487 -13 l 2,13,14
 487 -80 487 -80 460 -130 c 1,15,16
 470 -146 470 -146 476.5 -164.5 c 128,-1,17
 483 -183 483 -183 483 -208 c 0,18,19
 483 -290 483 -290 413 -337 c 128,-1,20
 343 -384 343 -384 216 -384 c 0,21,22
 191 -384 191 -384 163.5 -381 c 128,-1,23
 136 -378 136 -378 114 -374 c 1,24,-1
 124 -305 l 1,25,26
 147 -310 147 -310 174 -312 c 128,-1,27
 201 -314 201 -314 216 -314 c 0,28,29
 323 -314 323 -314 366.5 -284 c 128,-1,30
 410 -254 410 -254 410 -209 c 0,31,32
 410 -201 410 -201 409 -194 c 1,33,34
 374 -222 374 -222 325 -237 c 128,-1,35
 276 -252 276 -252 213 -252 c 0,0,1
EndSplineSet
Substitution2: "Single Substitution lookup 97 subtable" MatraUu2.Nnagari
Substitution2: "Single Substitution lookup 96 subtable" MatraUu2.Nnagari
Substitution2: "Single Substitution lookup 95 subtable" MatraUu1.Nnagari
Substitution2: "Single Substitution lookup 88 subtable" MatraUu2.Nnagari
Substitution2: "Single Substitution lookup 87 subtable" MatraUu2.Nnagari
Substitution2: "Single Substitution lookup 86 subtable" MatraUu2.Nnagari
Substitution2: "Single Substitution lookup 85 subtable" MatraUu2.Nnagari
Substitution2: "Single Substitution lookup 84 subtable" MatraUu2.Nnagari
Substitution2: "Single Substitution lookup 83 subtable" MatraUu1.Nnagari
Substitution2: "Single Substitution lookup 82 subtable" MatraUu1.Nnagari
Substitution2: "Single Substitution lookup 81 subtable" MatraUu1.Nnagari
Substitution2: "Single Substitution lookup 64 subtable" MatraUu2.Nnagari
Substitution2: "Single Substitution lookup 63 subtable" MatraUu1.Nnagari
Substitution2: "Single Substitution lookup 62 subtable" MatraUu1.Nnagari
Substitution2: "Single Substitution lookup 61 subtable" MatraUu1.Nnagari
Substitution2: "Single Substitution lookup 32 subtable" MatraUu2.Nnagari
Substitution2: "Single Substitution lookup 30 subtable" MatraUu1.Nnagari
AlternateSubs2: "'aalt' +BBIEQQQ1 +BDAEOwRMBEIENQRABD0EMARCBDgEMgQ9BEsENQAA +BDIEMARABDgEMAQ9BEIESwAA in 'DFLT' lookup 1 subtable" MatraUu1.Nnagari MatraUu2.Nnagari
EndChar

StartChar: MatraR.Nnagari
Encoding: 72150 72150 56
Width: 0
VWidth: 1460
GlyphClass: 4
Flags: W
AnchorPoint: "+BBEENQQ3BEsEPARPBD0EPQQ+BDUA--0" 139 0 mark 0
LayerCount: 2
Fore
SplineSet
316 -242 m 0,0,1
 210 -242 210 -242 155 -186 c 128,-1,2
 100 -130 100 -130 100 -18 c 2,3,-1
 100 26 l 1,4,-1
 178 26 l 1,5,-1
 178 -18 l 2,6,7
 178 -99 178 -99 213 -134.5 c 128,-1,8
 248 -170 248 -170 316 -170 c 0,9,10
 341 -170 341 -170 357 -167 c 1,11,-1
 369 -236 l 1,12,13
 361 -238 361 -238 346 -240 c 128,-1,14
 331 -242 331 -242 316 -242 c 0,0,1
EndSplineSet
Substitution2: "Single Substitution lookup 97 subtable" MatraR2.Nnagari
Substitution2: "Single Substitution lookup 96 subtable" MatraR2.Nnagari
Substitution2: "Single Substitution lookup 95 subtable" MatraR1.Nnagari
Substitution2: "Single Substitution lookup 88 subtable" MatraR2.Nnagari
Substitution2: "Single Substitution lookup 87 subtable" MatraR2.Nnagari
Substitution2: "Single Substitution lookup 86 subtable" MatraR2.Nnagari
Substitution2: "Single Substitution lookup 85 subtable" MatraR2.Nnagari
Substitution2: "Single Substitution lookup 84 subtable" MatraR2.Nnagari
Substitution2: "Single Substitution lookup 83 subtable" MatraR1.Nnagari
Substitution2: "Single Substitution lookup 82 subtable" MatraR1.Nnagari
Substitution2: "Single Substitution lookup 81 subtable" MatraR1.Nnagari
Substitution2: "Single Substitution lookup 64 subtable" MatraR2.Nnagari
Substitution2: "Single Substitution lookup 63 subtable" MatraR1.Nnagari
Substitution2: "Single Substitution lookup 62 subtable" MatraR1.Nnagari
Substitution2: "Single Substitution lookup 61 subtable" MatraR1.Nnagari
Substitution2: "Single Substitution lookup 32 subtable" MatraR2.Nnagari
Substitution2: "Single Substitution lookup 30 subtable" MatraR1.Nnagari
Substitution2: "Single Substitution lookup 15 subtable" Reph.Nnagari
AlternateSubs2: "'aalt' +BBIEQQQ1 +BDAEOwRMBEIENQRABD0EMARCBDgEMgQ9BEsENQAA +BDIEMARABDgEMAQ9BEIESwAA in 'DFLT' lookup 1 subtable" Reph.Nnagari MatraR1.Nnagari MatraR2.Nnagari
EndChar

StartChar: MatraRr.Nnagari
Encoding: 72151 72151 57
Width: 0
VWidth: 1460
GlyphClass: 4
Flags: W
AnchorPoint: "+BBEENQQ3BEsEPARPBD0EPQQ+BDUA--0" 139 0 mark 0
LayerCount: 2
Fore
SplineSet
300 -241 m 0,0,1
 232 -241 232 -241 183 -212 c 1,2,-1
 183 -217 l 2,3,4
 183 -264 183 -264 217 -284.5 c 128,-1,5
 251 -305 251 -305 311 -305 c 0,6,7
 322 -305 322 -305 332.5 -304 c 128,-1,8
 343 -303 343 -303 348 -302 c 1,9,-1
 358 -368 l 1,10,11
 338 -373 338 -373 304 -373 c 0,12,13
 210 -373 210 -373 160 -331.5 c 128,-1,14
 110 -290 110 -290 110 -216 c 0,15,16
 110 -184 110 -184 124 -152 c 1,17,18
 100 -109 100 -109 100 -50 c 2,19,-1
 100 26 l 1,20,-1
 178 26 l 1,21,-1
 178 -50 l 2,22,23
 178 -115 178 -115 208 -144 c 128,-1,24
 238 -173 238 -173 302 -173 c 0,25,26
 312 -173 312 -173 322 -172 c 128,-1,27
 332 -171 332 -171 337 -170 c 1,28,-1
 347 -236 l 1,29,30
 329 -241 329 -241 300 -241 c 0,0,1
EndSplineSet
Substitution2: "Single Substitution lookup 97 subtable" MatraRr2.Nnagari
Substitution2: "Single Substitution lookup 96 subtable" MatraRr2.Nnagari
Substitution2: "Single Substitution lookup 95 subtable" MatraRr1.Nnagari
Substitution2: "Single Substitution lookup 88 subtable" MatraRr2.Nnagari
Substitution2: "Single Substitution lookup 87 subtable" MatraRr2.Nnagari
Substitution2: "Single Substitution lookup 86 subtable" MatraRr2.Nnagari
Substitution2: "Single Substitution lookup 85 subtable" MatraRr2.Nnagari
Substitution2: "Single Substitution lookup 84 subtable" MatraRr2.Nnagari
Substitution2: "Single Substitution lookup 83 subtable" MatraRr1.Nnagari
Substitution2: "Single Substitution lookup 82 subtable" MatraRr1.Nnagari
Substitution2: "Single Substitution lookup 81 subtable" MatraRr1.Nnagari
Substitution2: "Single Substitution lookup 64 subtable" MatraRr2.Nnagari
Substitution2: "Single Substitution lookup 63 subtable" MatraRr1.Nnagari
Substitution2: "Single Substitution lookup 62 subtable" MatraRr1.Nnagari
Substitution2: "Single Substitution lookup 61 subtable" MatraRr1.Nnagari
Substitution2: "Single Substitution lookup 32 subtable" MatraRr2.Nnagari
Substitution2: "Single Substitution lookup 30 subtable" MatraRr1.Nnagari
Substitution2: "Single Substitution lookup 16 subtable" Reph.Nnagari
AlternateSubs2: "'aalt' +BBIEQQQ1 +BDAEOwRMBEIENQRABD0EMARCBDgEMgQ9BEsENQAA +BDIEMARABDgEMAQ9BEIESwAA in 'DFLT' lookup 1 subtable" Reph.Nnagari MatraRr1.Nnagari MatraRr2.Nnagari
EndChar

StartChar: MatraE.Nnagari
Encoding: 72154 72154 58
Width: 0
VWidth: 1460
GlyphClass: 4
Flags: W
AnchorPoint: "+BBEENQQ3BEsEPARPBD0EPQQ+BDUA--1" 303 602 mark 0
LayerCount: 2
Fore
SplineSet
269 595 m 1,0,-1
 100 858 l 1,1,-1
 161 897 l 1,2,-1
 336 622 l 1,3,-1
 336 595 l 1,4,-1
 269 595 l 1,0,-1
EndSplineSet
Substitution2: "Single Substitution lookup 10 subtable" PhaPart2.Nnagari.ss01
Substitution2: "'aalt' +BBIEQQQ1 +BDAEOwRMBEIENQRABD0EMARCBDgEMgQ9BEsENQAA +BDIEMARABDgEMAQ9BEIESwAA in 'DFLT' lookup 0 subtable" PhaPart2.Nnagari.ss01
EndChar

StartChar: MatraAi.Nnagari
Encoding: 72155 72155 59
Width: 0
VWidth: 1460
GlyphClass: 4
Flags: W
AnchorPoint: "+BBEENQQ3BEsEPARPBD0EPQQ+BDUA--1" 565 602 mark 0
LayerCount: 2
Fore
SplineSet
296 561 m 1,0,-1
 281 573 l 1,1,-1
 100 858 l 1,2,-1
 161 897 l 1,3,-1
 366 575 l 1,4,-1
 366 561 l 1,5,-1
 296 561 l 1,0,-1
530 595 m 1,6,-1
 362 858 l 1,7,-1
 423 897 l 1,8,-1
 598 622 l 1,9,-1
 598 595 l 1,10,-1
 530 595 l 1,6,-1
EndSplineSet
Substitution2: "Single Substitution lookup 11 subtable" PhaPart2.Nnagari.ss01
Substitution2: "'aalt' +BBIEQQQ1 +BDAEOwRMBEIENQRABD0EMARCBDgEMgQ9BEsENQAA +BDIEMARABDgEMAQ9BEIESwAA in 'DFLT' lookup 0 subtable" PhaPart2.Nnagari.ss01
EndChar

StartChar: Anusvara.Nnagari
Encoding: 72158 72158 62
Width: 441
VWidth: 1460
Flags: W
LayerCount: 2
Fore
SplineSet
194 303 m 256,0,1
 124 303 124 303 81.5 342.5 c 128,-1,2
 39 382 39 382 39 446 c 0,3,4
 39 511 39 511 81.5 551 c 128,-1,5
 124 591 124 591 194 591 c 256,6,7
 264 591 264 591 306.5 551 c 128,-1,8
 349 511 349 511 349 446 c 0,9,10
 349 382 349 382 306.5 342.5 c 128,-1,11
 264 303 264 303 194 303 c 256,0,1
194 369 m 0,12,13
 229 369 229 369 250 390.5 c 128,-1,14
 271 412 271 412 271 446 c 0,15,16
 271 481 271 481 250 502.5 c 128,-1,17
 229 524 229 524 194 524 c 0,18,19
 160 524 160 524 138.5 502.5 c 128,-1,20
 117 481 117 481 117 446 c 0,21,22
 117 412 117 412 138.5 390.5 c 128,-1,23
 160 369 160 369 194 369 c 0,12,13
EndSplineSet
EndChar

StartChar: Visarga.Nnagari
Encoding: 72159 72159 63
Width: 439
VWidth: 1460
Flags: W
LayerCount: 2
Fore
SplineSet
188 349 m 0,0,1
 151 349 151 349 120 365 c 128,-1,2
 89 381 89 381 70.5 409.5 c 128,-1,3
 52 438 52 438 52 475 c 0,4,5
 52 513 52 513 70.5 541 c 128,-1,6
 89 569 89 569 120 585 c 128,-1,7
 151 601 151 601 188 601 c 0,8,9
 226 601 226 601 256.5 585 c 128,-1,10
 287 569 287 569 305.5 541 c 128,-1,11
 324 513 324 513 324 475 c 0,12,13
 324 438 324 438 305.5 409.5 c 128,-1,14
 287 381 287 381 256.5 365 c 128,-1,15
 226 349 226 349 188 349 c 0,0,1
188 411 m 0,16,17
 217 411 217 411 234.5 429 c 128,-1,18
 252 447 252 447 252 475 c 0,19,20
 252 504 252 504 234.5 521.5 c 128,-1,21
 217 539 217 539 188 539 c 0,22,23
 160 539 160 539 142 521.5 c 128,-1,24
 124 504 124 504 124 475 c 0,25,26
 124 447 124 447 142 429 c 128,-1,27
 160 411 160 411 188 411 c 0,16,17
188 9 m 0,28,29
 151 9 151 9 120 25 c 128,-1,30
 89 41 89 41 70.5 69.5 c 128,-1,31
 52 98 52 98 52 135 c 0,32,33
 52 173 52 173 70.5 201 c 128,-1,34
 89 229 89 229 120 245 c 128,-1,35
 151 261 151 261 188 261 c 0,36,37
 226 261 226 261 256.5 245 c 128,-1,38
 287 229 287 229 305.5 201 c 128,-1,39
 324 173 324 173 324 135 c 0,40,41
 324 98 324 98 305.5 69.5 c 128,-1,42
 287 41 287 41 256.5 25 c 128,-1,43
 226 9 226 9 188 9 c 0,28,29
188 71 m 0,44,45
 217 71 217 71 234.5 89 c 128,-1,46
 252 107 252 107 252 135 c 0,47,48
 252 164 252 164 234.5 181.5 c 128,-1,49
 217 199 217 199 188 199 c 0,50,51
 160 199 160 199 142 181.5 c 128,-1,52
 124 164 124 164 124 135 c 0,53,54
 124 107 124 107 142 89 c 128,-1,55
 160 71 160 71 188 71 c 0,44,45
EndSplineSet
EndChar

StartChar: Virama.Nnagari
Encoding: 72160 72160 64
Width: 0
VWidth: 1460
GlyphClass: 4
Flags: W
AnchorPoint: "+BBEENQQ3BEsEPARPBD0EPQQ+BDUA--0" 234 0 mark 0
LayerCount: 2
Fore
SplineSet
319 -336 m 1,0,-1
 268 -260 l 2,1,2
 238 -215 238 -215 208.5 -197 c 128,-1,3
 179 -179 179 -179 138 -179 c 2,4,-1
 100 -179 l 1,5,-1
 100 -107 l 1,6,-1
 120 -107 l 2,7,8
 195 -107 195 -107 195 -32 c 2,9,-1
 195 26 l 1,10,-1
 273 26 l 1,11,-1
 273 -32 l 2,12,13
 273 -105 273 -105 227 -135 c 1,14,15
 257 -144 257 -144 281 -165.5 c 128,-1,16
 305 -187 305 -187 333 -227 c 2,17,-1
 382 -297 l 1,18,-1
 319 -336 l 1,0,-1
EndSplineSet
Substitution2: "Single Substitution lookup 97 subtable" Virama2.Nnagari
Substitution2: "Single Substitution lookup 96 subtable" Virama2.Nnagari
Substitution2: "Single Substitution lookup 95 subtable" Virama1.Nnagari
Substitution2: "Single Substitution lookup 88 subtable" Virama2.Nnagari
Substitution2: "Single Substitution lookup 87 subtable" Virama2.Nnagari
Substitution2: "Single Substitution lookup 86 subtable" Virama2.Nnagari
Substitution2: "Single Substitution lookup 85 subtable" Virama2.Nnagari
Substitution2: "Single Substitution lookup 84 subtable" Virama2.Nnagari
Substitution2: "Single Substitution lookup 83 subtable" Virama1.Nnagari
Substitution2: "Single Substitution lookup 82 subtable" Virama1.Nnagari
Substitution2: "Single Substitution lookup 81 subtable" Virama1.Nnagari
Substitution2: "Single Substitution lookup 64 subtable" Virama2.Nnagari
Substitution2: "Single Substitution lookup 63 subtable" Virama1.Nnagari
Substitution2: "Single Substitution lookup 62 subtable" Virama1.Nnagari
Substitution2: "Single Substitution lookup 61 subtable" Virama1.Nnagari
Substitution2: "Single Substitution lookup 32 subtable" Virama2.Nnagari
Substitution2: "Single Substitution lookup 30 subtable" Virama1.Nnagari
AlternateSubs2: "'aalt' +BBIEQQQ1 +BDAEOwRMBEIENQRABD0EMARCBDgEMgQ9BEsENQAA +BDIEMARABDgEMAQ9BEIESwAA in 'DFLT' lookup 1 subtable" Virama1.Nnagari Virama2.Nnagari
EndChar

StartChar: Avagraha.Nnagari
Encoding: 72161 72161 65
Width: 595
VWidth: 1460
Flags: W
LayerCount: 2
Fore
SplineSet
284 -5 m 0,0,1
 202 -5 202 -5 152.5 25.5 c 128,-1,2
 103 56 103 56 77 101 c 1,3,-1
 137 143 l 1,4,5
 161 106 161 106 196 84.5 c 128,-1,6
 231 63 231 63 286 63 c 0,7,8
 344 63 344 63 375 90 c 128,-1,9
 406 117 406 117 406 167 c 0,10,11
 406 205 406 205 385 228 c 128,-1,12
 364 251 364 251 330.5 267.5 c 128,-1,13
 297 284 297 284 259 299 c 0,14,15
 221 315 221 315 185.5 335 c 128,-1,16
 150 355 150 355 127 387 c 128,-1,17
 104 419 104 419 104 471 c 0,18,19
 104 542 104 542 154.5 584.5 c 128,-1,20
 205 627 205 627 284 627 c 0,21,22
 358 627 358 627 401.5 598 c 128,-1,23
 445 569 445 569 465 531 c 1,24,-1
 403 495 l 1,25,26
 388 518 388 518 359.5 538.5 c 128,-1,27
 331 559 331 559 284 559 c 0,28,29
 235 559 235 559 208.5 535.5 c 128,-1,30
 182 512 182 512 182 471 c 0,31,32
 182 442 182 442 197.5 423 c 128,-1,33
 213 404 213 404 238.5 390.5 c 128,-1,34
 264 377 264 377 294 364 c 0,35,36
 327 351 327 351 360.5 336 c 128,-1,37
 394 321 394 321 422 299.5 c 128,-1,38
 450 278 450 278 467 246 c 128,-1,39
 484 214 484 214 484 167 c 0,40,41
 484 90 484 90 430.5 42.5 c 128,-1,42
 377 -5 377 -5 284 -5 c 0,0,1
EndSplineSet
EndChar

StartChar: Siddham.Nnagari
Encoding: 72162 72162 66
Width: 605
VWidth: 1460
Flags: W
LayerCount: 2
Fore
SplineSet
293 0 m 1,0,1
 253 5 253 5 222 34 c 128,-1,2
 191 63 191 63 191 115 c 0,3,4
 191 156 191 156 207 187.5 c 128,-1,5
 223 219 223 219 248 244.5 c 128,-1,6
 273 270 273 270 301.5 292.5 c 128,-1,7
 330 315 330 315 355 338.5 c 128,-1,8
 380 362 380 362 396 389.5 c 128,-1,9
 412 417 412 417 412 452 c 0,10,11
 412 492 412 492 384.5 521 c 128,-1,12
 357 550 357 550 307 550 c 0,13,14
 259 550 259 550 230.5 524 c 128,-1,15
 202 498 202 498 202 460 c 0,16,17
 202 426 202 426 221 404 c 128,-1,18
 240 382 240 382 262 372 c 1,19,-1
 225 314 l 1,20,21
 205 322 205 322 181.5 339.5 c 128,-1,22
 158 357 158 357 141.5 387 c 128,-1,23
 125 417 125 417 125 460 c 0,24,25
 125 510 125 510 151 546.5 c 128,-1,26
 177 583 177 583 218.5 602.5 c 128,-1,27
 260 622 260 622 307 622 c 0,28,29
 355 622 355 622 396.5 601 c 128,-1,30
 438 580 438 580 464 542 c 128,-1,31
 490 504 490 504 490 452 c 0,32,33
 490 397 490 397 467.5 357.5 c 128,-1,34
 445 318 445 318 412 288 c 128,-1,35
 379 258 379 258 345.5 232 c 128,-1,36
 312 206 312 206 289.5 178 c 128,-1,37
 267 150 267 150 267 115 c 0,38,39
 267 96 267 96 279.5 84 c 128,-1,40
 292 72 292 72 306 70 c 1,41,-1
 293 0 l 1,0,1
EndSplineSet
Substitution2: "'ss03' Style Set 3 in 'DFLT' lookup 90 subtable" Siddham.Nnagari.ss03
Substitution2: "'aalt' +BBIEQQQ1 +BDAEOwRMBEIENQRABD0EMARCBDgEMgQ9BEsENQAA +BDIEMARABDgEMAQ9BEIESwAA in 'DFLT' lookup 0 subtable" Siddham.Nnagari.ss03
EndChar

StartChar: AnusvaraAntargomukha.Nnagari
Encoding: 7401 7401 67
Width: 760
VWidth: 1460
Flags: W
LayerCount: 2
Fore
SplineSet
380 297 m 0,0,1
 235 297 235 297 152.5 349 c 128,-1,2
 70 401 70 401 70 505 c 0,3,4
 70 544 70 544 89 576 c 128,-1,5
 108 608 108 608 140.5 627 c 128,-1,6
 173 646 173 646 215 646 c 0,7,8
 265 646 265 646 297.5 619.5 c 128,-1,9
 330 593 330 593 330 543 c 256,10,11
 330 493 330 493 299 466.5 c 128,-1,12
 268 440 268 440 221 440 c 0,13,14
 190 440 190 440 169.5 448 c 128,-1,15
 149 456 149 456 136 469 c 1,16,17
 152 419 152 419 214.5 392 c 128,-1,18
 277 365 277 365 380 365 c 256,19,20
 483 365 483 365 545.5 392 c 128,-1,21
 608 419 608 419 624 469 c 1,22,23
 611 456 611 456 590.5 448 c 128,-1,24
 570 440 570 440 539 440 c 0,25,26
 493 440 493 440 461.5 466.5 c 128,-1,27
 430 493 430 493 430 543 c 256,28,29
 430 593 430 593 463 619.5 c 128,-1,30
 496 646 496 646 545 646 c 0,31,32
 587 646 587 646 620 627 c 128,-1,33
 653 608 653 608 671.5 576 c 128,-1,34
 690 544 690 544 690 505 c 0,35,36
 690 401 690 401 608 349 c 128,-1,37
 526 297 526 297 380 297 c 0,0,1
505 543 m 256,38,39
 505 506 505 506 550 506 c 0,40,41
 575 506 575 506 593.5 519.5 c 128,-1,42
 612 533 612 533 615 552 c 1,43,44
 594 580 594 580 550 580 c 0,45,46
 505 580 505 580 505 543 c 256,38,39
210 580 m 0,47,48
 166 580 166 580 145 552 c 1,49,50
 148 533 148 533 166.5 519.5 c 128,-1,51
 185 506 185 506 210 506 c 0,52,53
 255 506 255 506 255 543 c 256,54,55
 255 580 255 580 210 580 c 0,47,48
EndSplineSet
EndChar

StartChar: DoubleAnusvaraAntargomukha.Nnagari
Encoding: 7418 7418 68
Width: 760
VWidth: 1460
Flags: W
LayerCount: 2
Fore
SplineSet
380 297 m 0,0,1
 235 297 235 297 152.5 349 c 128,-1,2
 70 401 70 401 70 505 c 0,3,4
 70 544 70 544 89 576 c 128,-1,5
 108 608 108 608 140.5 627 c 128,-1,6
 173 646 173 646 215 646 c 0,7,8
 265 646 265 646 297.5 619.5 c 128,-1,9
 330 593 330 593 330 543 c 256,10,11
 330 493 330 493 299 466.5 c 128,-1,12
 268 440 268 440 221 440 c 0,13,14
 190 440 190 440 169.5 448 c 128,-1,15
 149 456 149 456 136 469 c 1,16,17
 152 419 152 419 214.5 392 c 128,-1,18
 277 365 277 365 380 365 c 256,19,20
 483 365 483 365 545.5 392 c 128,-1,21
 608 419 608 419 624 469 c 1,22,23
 611 456 611 456 590.5 448 c 128,-1,24
 570 440 570 440 539 440 c 0,25,26
 493 440 493 440 461.5 466.5 c 128,-1,27
 430 493 430 493 430 543 c 256,28,29
 430 593 430 593 463 619.5 c 128,-1,30
 496 646 496 646 545 646 c 0,31,32
 587 646 587 646 620 627 c 128,-1,33
 653 608 653 608 671.5 576 c 128,-1,34
 690 544 690 544 690 505 c 0,35,36
 690 401 690 401 608 349 c 128,-1,37
 526 297 526 297 380 297 c 0,0,1
505 543 m 256,38,39
 505 506 505 506 550 506 c 0,40,41
 575 506 575 506 593.5 519.5 c 128,-1,42
 612 533 612 533 615 552 c 1,43,44
 594 580 594 580 550 580 c 0,45,46
 505 580 505 580 505 543 c 256,38,39
210 580 m 0,47,48
 166 580 166 580 145 552 c 1,49,50
 148 533 148 533 166.5 519.5 c 128,-1,51
 185 506 185 506 210 506 c 0,52,53
 255 506 255 506 255 543 c 256,54,55
 255 580 255 580 210 580 c 0,47,48
380 -113 m 0,56,57
 235 -113 235 -113 152.5 -61 c 128,-1,58
 70 -9 70 -9 70 95 c 0,59,60
 70 134 70 134 89 166 c 128,-1,61
 108 198 108 198 140.5 217 c 128,-1,62
 173 236 173 236 215 236 c 0,63,64
 265 236 265 236 297.5 209.5 c 128,-1,65
 330 183 330 183 330 133 c 256,66,67
 330 83 330 83 299 56.5 c 128,-1,68
 268 30 268 30 221 30 c 0,69,70
 190 30 190 30 169.5 38 c 128,-1,71
 149 46 149 46 136 59 c 1,72,73
 152 9 152 9 214.5 -18 c 128,-1,74
 277 -45 277 -45 380 -45 c 256,75,76
 483 -45 483 -45 545.5 -18 c 128,-1,77
 608 9 608 9 624 59 c 1,78,79
 611 46 611 46 590.5 38 c 128,-1,80
 570 30 570 30 539 30 c 0,81,82
 493 30 493 30 461.5 56.5 c 128,-1,83
 430 83 430 83 430 133 c 256,84,85
 430 183 430 183 463 209.5 c 128,-1,86
 496 236 496 236 545 236 c 0,87,88
 587 236 587 236 620 217 c 128,-1,89
 653 198 653 198 671.5 166 c 128,-1,90
 690 134 690 134 690 95 c 0,91,92
 690 -9 690 -9 608 -61 c 128,-1,93
 526 -113 526 -113 380 -113 c 0,56,57
505 133 m 256,94,95
 505 96 505 96 550 96 c 0,96,97
 575 96 575 96 593.5 109.5 c 128,-1,98
 612 123 612 123 615 142 c 1,99,100
 594 170 594 170 550 170 c 0,101,102
 505 170 505 170 505 133 c 256,94,95
210 170 m 0,103,104
 166 170 166 170 145 142 c 1,105,106
 148 123 148 123 166.5 109.5 c 128,-1,107
 185 96 185 96 210 96 c 0,108,109
 255 96 255 96 255 133 c 256,110,111
 255 170 255 170 210 170 c 0,103,104
EndSplineSet
EndChar

StartChar: Ardhavisarga.Nnagari
Encoding: 7410 7410 69
Width: 600
VWidth: 1460
Flags: W
LayerCount: 2
Fore
SplineSet
188 369 m 256,0,1
 132 369 132 369 92 402.5 c 128,-1,2
 52 436 52 436 52 495 c 2,3,-1
 52 554 l 1,4,-1
 124 554 l 1,5,-1
 124 495 l 2,6,7
 124 464 124 464 142 447.5 c 128,-1,8
 160 431 160 431 188 431 c 0,9,10
 217 431 217 431 234.5 447.5 c 128,-1,11
 252 464 252 464 252 495 c 2,12,-1
 252 554 l 1,13,-1
 324 554 l 1,14,-1
 324 495 l 2,15,16
 324 436 324 436 284 402.5 c 128,-1,17
 244 369 244 369 188 369 c 256,0,1
52 56 m 1,18,-1
 52 115 l 2,19,20
 52 174 52 174 92 207.5 c 128,-1,21
 132 241 132 241 188 241 c 256,22,23
 244 241 244 241 284 207.5 c 128,-1,24
 324 174 324 174 324 115 c 2,25,-1
 324 56 l 1,26,-1
 252 56 l 1,27,-1
 252 115 l 2,28,29
 252 146 252 146 234.5 162.5 c 128,-1,30
 217 179 217 179 188 179 c 0,31,32
 160 179 160 179 142 162.5 c 128,-1,33
 124 146 124 146 124 115 c 2,34,-1
 124 56 l 1,35,-1
 52 56 l 1,18,-1
EndSplineSet
EndChar

StartChar: Headstroke.Nnagari
Encoding: 72163 72163 70
Width: 663
VWidth: 1460
Flags: W
LayerCount: 2
Fore
SplineSet
40 558 m 1,0,-1
 40 622 l 1,1,-1
 548 622 l 1,2,-1
 548 558 l 1,3,-1
 40 558 l 1,0,-1
EndSplineSet
EndChar

StartChar: Prishthamatrae.Nnagari
Encoding: 72164 72164 71
Width: 288
VWidth: 1460
Flags: W
LayerCount: 2
Fore
SplineSet
115 0 m 1,0,-1
 115 622 l 1,1,-1
 512 622 l 1,2,-1
 452 558 l 1,3,-1
 193 558 l 1,4,-1
 193 0 l 1,5,-1
 115 0 l 1,0,-1
EndSplineSet
EndChar

StartChar: zero.Nnagari
Encoding: 3302 3302 72
Width: 649
VWidth: 1460
Flags: W
LayerCount: 2
Fore
SplineSet
302 -12 m 0,0,1
 235 -12 235 -12 187 14 c 128,-1,2
 139 40 139 40 108 84.5 c 128,-1,3
 77 129 77 129 62 187 c 128,-1,4
 47 245 47 245 47 308 c 0,5,6
 47 373 47 373 61.5 431 c 128,-1,7
 76 489 76 489 106.5 534.5 c 128,-1,8
 137 580 137 580 185.5 606 c 128,-1,9
 234 632 234 632 302 632 c 0,10,11
 371 632 371 632 419.5 605.5 c 128,-1,12
 468 579 468 579 499 533.5 c 128,-1,13
 530 488 530 488 544.5 430.5 c 128,-1,14
 559 373 559 373 559 312 c 0,15,16
 559 250 559 250 545.5 192 c 128,-1,17
 532 134 532 134 502 88 c 128,-1,18
 472 42 472 42 422.5 15 c 128,-1,19
 373 -12 373 -12 302 -12 c 0,0,1
302 59 m 0,20,21
 387 59 387 59 434 125 c 128,-1,22
 481 191 481 191 481 312 c 0,23,24
 481 432 481 432 432 496.5 c 128,-1,25
 383 561 383 561 299 561 c 0,26,27
 221 561 221 561 173 495.5 c 128,-1,28
 125 430 125 430 125 308 c 256,29,30
 125 186 125 186 175 122.5 c 128,-1,31
 225 59 225 59 302 59 c 0,20,21
EndSplineSet
EndChar

StartChar: one.Nnagari
Encoding: 3303 3303 73
Width: 657
VWidth: 1460
Flags: W
LayerCount: 2
Fore
SplineSet
162 -13 m 1,0,1
 110 55 110 55 77.5 136 c 128,-1,2
 45 217 45 217 45 320 c 0,3,4
 45 406 45 406 74.5 476.5 c 128,-1,5
 104 547 104 547 162 589.5 c 128,-1,6
 220 632 220 632 306 632 c 0,7,8
 395 632 395 632 453 589 c 128,-1,9
 511 546 511 546 539 475 c 128,-1,10
 567 404 567 404 567 319 c 0,11,12
 567 222 567 222 535.5 139.5 c 128,-1,13
 504 57 504 57 450 -13 c 1,14,-1
 384 33 l 1,15,16
 431 92 431 92 459.5 166.5 c 128,-1,17
 488 241 488 241 488 323 c 0,18,19
 488 389 488 389 468.5 442.5 c 128,-1,20
 449 496 449 496 408.5 527.5 c 128,-1,21
 368 559 368 559 306 559 c 256,22,23
 244 559 244 559 203.5 527.5 c 128,-1,24
 163 496 163 496 143.5 442.5 c 128,-1,25
 124 389 124 389 124 323 c 0,26,27
 124 243 124 243 149 170.5 c 128,-1,28
 174 98 174 98 227 33 c 1,29,-1
 162 -13 l 1,0,1
EndSplineSet
EndChar

StartChar: two.Nnagari
Encoding: 3304 3304 74
Width: 662
VWidth: 1460
Flags: W
LayerCount: 2
Fore
SplineSet
30 0 m 1,0,-1
 30 73 l 1,1,-1
 230 73 l 2,2,3
 325 73 325 73 383.5 96.5 c 128,-1,4
 442 120 442 120 468.5 174.5 c 128,-1,5
 495 229 495 229 495 323 c 0,6,7
 495 393 495 393 479 447 c 128,-1,8
 463 501 463 501 431.5 531.5 c 128,-1,9
 400 562 400 562 352 562 c 0,10,11
 300 562 300 562 276 536.5 c 128,-1,12
 252 511 252 511 252 470 c 0,13,14
 252 410 252 410 303 410 c 0,15,16
 326 410 326 410 336.5 424 c 128,-1,17
 347 438 347 438 347 460 c 1,18,-1
 415 465 l 1,19,20
 417 455 417 455 417 440 c 0,21,22
 417 418 417 418 407 395 c 128,-1,23
 397 372 397 372 372.5 356.5 c 128,-1,24
 348 341 348 341 304 341 c 0,25,26
 246 341 246 341 210.5 376 c 128,-1,27
 175 411 175 411 175 473 c 0,28,29
 175 547 175 547 224 589.5 c 128,-1,30
 273 632 273 632 352 632 c 0,31,32
 422 632 422 632 471.5 595 c 128,-1,33
 521 558 521 558 547.5 490 c 128,-1,34
 574 422 574 422 574 329 c 0,35,36
 574 160 574 160 496.5 80 c 128,-1,37
 419 0 419 0 252 0 c 2,38,-1
 30 0 l 1,0,-1
EndSplineSet
EndChar

StartChar: three.Nnagari
Encoding: 3305 3305 75
Width: 564
VWidth: 1460
Flags: W
LayerCount: 2
Fore
SplineSet
540 -12 m 256,0,1
 498 -12 498 -12 468.5 3 c 128,-1,2
 439 18 439 18 414.5 45 c 128,-1,3
 390 72 390 72 364 108 c 1,4,5
 336 72 336 72 297 51.5 c 128,-1,6
 258 31 258 31 208 31 c 0,7,8
 147 31 147 31 106 64.5 c 128,-1,9
 65 98 65 98 65 165 c 0,10,11
 65 226 65 226 105.5 261 c 128,-1,12
 146 296 146 296 210 296 c 0,13,14
 259 296 259 296 291 278.5 c 128,-1,15
 323 261 323 261 347 234 c 1,16,17
 360 285 360 285 360 345 c 0,18,19
 360 446 360 446 331.5 503.5 c 128,-1,20
 303 561 303 561 233 561 c 0,21,22
 197 561 197 561 177.5 540 c 128,-1,23
 158 519 158 519 158 490 c 0,24,25
 158 465 158 465 169.5 450.5 c 128,-1,26
 181 436 181 436 201 436 c 0,27,28
 227 436 227 436 234.5 446.5 c 128,-1,29
 242 457 242 457 242 476 c 1,30,-1
 307 481 l 1,31,32
 309 471 309 471 309 459 c 0,33,34
 309 439 309 439 299 418 c 128,-1,35
 289 397 289 397 266 383 c 128,-1,36
 243 369 243 369 202 369 c 0,37,38
 153 369 153 369 117 401 c 128,-1,39
 81 433 81 433 81 493 c 0,40,41
 81 531 81 531 99 562.5 c 128,-1,42
 117 594 117 594 151.5 613 c 128,-1,43
 186 632 186 632 235 632 c 0,44,45
 308 632 308 632 352.5 593.5 c 128,-1,46
 397 555 397 555 417.5 492.5 c 128,-1,47
 438 430 438 430 438 358 c 0,48,49
 438 307 438 307 428.5 258.5 c 128,-1,50
 419 210 419 210 401 169 c 1,51,52
 442 105 442 105 471.5 83 c 128,-1,53
 501 61 501 61 537 61 c 0,54,55
 550 61 550 61 565 64.5 c 128,-1,56
 580 68 580 68 597 76 c 1,57,-1
 619 6 l 1,58,59
 582 -12 582 -12 540 -12 c 256,0,1
141 164 m 0,60,61
 141 131 141 131 160.5 115.5 c 128,-1,62
 180 100 180 100 213 100 c 0,63,64
 249 100 249 100 275.5 118.5 c 128,-1,65
 302 137 302 137 321 168 c 1,66,67
 301 194 301 194 276 211.5 c 128,-1,68
 251 229 251 229 216 229 c 0,69,70
 185 229 185 229 163 212.5 c 128,-1,71
 141 196 141 196 141 164 c 0,60,61
EndSplineSet
EndChar

StartChar: four.Nnagari
Encoding: 3306 3306 76
Width: 676
VWidth: 1460
Flags: W
LayerCount: 2
Fore
SplineSet
343 -10 m 0,0,1
 265 -10 265 -10 228 24.5 c 128,-1,2
 191 59 191 59 191 109 c 0,3,4
 191 134 191 134 201 155 c 128,-1,5
 211 176 211 176 235 191 c 1,6,7
 149 223 149 223 101 282.5 c 128,-1,8
 53 342 53 342 53 437 c 0,9,10
 53 494 53 494 74.5 538.5 c 128,-1,11
 96 583 96 583 136.5 608.5 c 128,-1,12
 177 634 177 634 234 634 c 0,13,14
 286 634 286 634 323.5 607.5 c 128,-1,15
 361 581 361 581 361 520 c 0,16,17
 361 468 361 468 327 432 c 128,-1,18
 293 396 293 396 210 396 c 0,19,20
 167 396 167 396 130 410 c 1,21,22
 134 375 134 375 153 339.5 c 128,-1,23
 172 304 172 304 218.5 275.5 c 128,-1,24
 265 247 265 247 350 235 c 1,25,26
 436 258 436 258 480.5 307.5 c 128,-1,27
 525 357 525 357 525 416 c 0,28,29
 525 510 525 510 418 570 c 1,30,-1
 467 634 l 1,31,32
 503 615 503 615 534 584.5 c 128,-1,33
 565 554 565 554 584 513 c 128,-1,34
 603 472 603 472 603 422 c 0,35,36
 603 365 603 365 580 321.5 c 128,-1,37
 557 278 557 278 520.5 247.5 c 128,-1,38
 484 217 484 217 443 197 c 1,39,40
 465 184 465 184 480.5 163 c 128,-1,41
 496 142 496 142 496 109 c 0,42,43
 496 54 496 54 455.5 22 c 128,-1,44
 415 -10 415 -10 343 -10 c 0,0,1
229 567 m 0,45,46
 190 567 190 567 165.5 543 c 128,-1,47
 141 519 141 519 133 476 c 1,48,49
 149 469 149 469 166.5 465.5 c 128,-1,50
 184 462 184 462 200 462 c 0,51,52
 245 462 245 462 264 478.5 c 128,-1,53
 283 495 283 495 283 522 c 0,54,55
 283 546 283 546 267.5 556.5 c 128,-1,56
 252 567 252 567 229 567 c 0,45,46
343 58 m 0,57,58
 381 58 381 58 401.5 72.5 c 128,-1,59
 422 87 422 87 422 112 c 256,60,61
 422 137 422 137 400 152 c 128,-1,62
 378 167 378 167 344 173 c 1,63,64
 312 169 312 169 289 153 c 128,-1,65
 266 137 266 137 266 111 c 0,66,67
 266 90 266 90 283 74 c 128,-1,68
 300 58 300 58 343 58 c 0,57,58
EndSplineSet
EndChar

StartChar: five.Nnagari
Encoding: 3307 3307 77
Width: 719
VWidth: 1460
Flags: W
LayerCount: 2
Fore
SplineSet
184 -7 m 0,0,1
 118 -7 118 -7 84.5 34 c 128,-1,2
 51 75 51 75 51 133 c 0,3,4
 51 173 51 173 71 213 c 128,-1,5
 91 253 91 253 141 287.5 c 128,-1,6
 191 322 191 322 280 347 c 1,7,8
 276 402 276 402 264.5 452 c 128,-1,9
 253 502 253 502 233.5 533.5 c 128,-1,10
 214 565 214 565 183 565 c 0,11,12
 159 565 159 565 141.5 551.5 c 128,-1,13
 124 538 124 538 124 507 c 0,14,15
 124 477 124 477 142.5 462 c 128,-1,16
 161 447 161 447 192 445 c 1,17,-1
 184 373 l 1,18,19
 126 378 126 378 88 408 c 128,-1,20
 50 438 50 438 50 508 c 0,21,22
 50 570 50 570 90 601.5 c 128,-1,23
 130 633 130 633 185 633 c 0,24,25
 263 633 263 633 305 564.5 c 128,-1,26
 347 496 347 496 358 365 c 1,27,-1
 425 380 l 1,28,29
 408 411 408 411 397.5 442.5 c 128,-1,30
 387 474 387 474 387 505 c 0,31,32
 387 566 387 566 420 599.5 c 128,-1,33
 453 633 453 633 511 633 c 0,34,35
 573 633 573 633 603.5 598 c 128,-1,36
 634 563 634 563 634 507 c 0,37,38
 634 456 634 456 608.5 414.5 c 128,-1,39
 583 373 583 373 527 345 c 1,40,41
 555 303 555 303 576.5 255.5 c 128,-1,42
 598 208 598 208 598 149 c 0,43,44
 598 100 598 100 581 65.5 c 128,-1,45
 564 31 564 31 531 -7 c 1,46,-1
 465 48 l 1,47,48
 491 72 491 72 505.5 97 c 128,-1,49
 520 122 520 122 520 156 c 0,50,51
 520 196 520 196 506.5 232.5 c 128,-1,52
 493 269 493 269 459 324 c 1,53,-1
 361 300 l 1,54,55
 362 276 362 276 362 251 c 0,56,57
 362 -7 362 -7 184 -7 c 0,0,1
456 506 m 0,58,59
 456 483 456 483 463.5 457.5 c 128,-1,60
 471 432 471 432 489 402 c 1,61,62
 556 436 556 436 556 506 c 0,63,64
 556 538 556 538 543 551.5 c 128,-1,65
 530 565 530 565 509 565 c 0,66,67
 485 565 485 565 470.5 549.5 c 128,-1,68
 456 534 456 534 456 506 c 0,58,59
125 132 m 0,69,70
 125 96 125 96 144 79.5 c 128,-1,71
 163 63 163 63 188 63 c 0,72,73
 215 63 215 63 237 79 c 128,-1,74
 259 95 259 95 271.5 134.5 c 128,-1,75
 284 174 284 174 284 244 c 0,76,77
 284 261 284 261 284 279 c 1,78,79
 219 258 219 258 185 235 c 128,-1,80
 151 212 151 212 138 186.5 c 128,-1,81
 125 161 125 161 125 132 c 0,69,70
EndSplineSet
EndChar

StartChar: six.Nnagari
Encoding: 3308 3308 78
Width: 562
VWidth: 1460
Flags: W
LayerCount: 2
Fore
SplineSet
325 0 m 2,0,1
 228 0 228 0 167.5 28 c 128,-1,2
 107 56 107 56 79.5 107 c 128,-1,3
 52 158 52 158 52 225 c 0,4,5
 52 291 52 291 83.5 342.5 c 128,-1,6
 115 394 115 394 167 420 c 0,7,8
 168 423 168 423 169 427 c 0,9,10
 175 446 175 446 180.5 469.5 c 128,-1,11
 186 493 186 493 186 515 c 0,12,13
 186 559 186 559 147 559 c 0,14,15
 121 559 121 559 92 550 c 1,16,-1
 76 616 l 1,17,18
 117 631 117 631 164 631 c 0,19,20
 218 631 218 631 240 604 c 128,-1,21
 262 577 262 577 262 539 c 0,22,23
 262 516 262 516 257.5 493.5 c 128,-1,24
 253 471 253 471 246 449 c 1,25,26
 267 453 267 453 289 453 c 0,27,28
 347 453 347 453 380.5 435 c 128,-1,29
 414 417 414 417 428 389 c 128,-1,30
 442 361 442 361 442 331 c 0,31,32
 442 280 442 280 408 243 c 128,-1,33
 374 206 374 206 297 206 c 0,34,35
 246 206 246 206 215.5 225 c 128,-1,36
 185 244 185 244 171.5 272.5 c 128,-1,37
 158 301 158 301 156 329 c 1,38,39
 142 311 142 311 133.5 285.5 c 128,-1,40
 125 260 125 260 125 230 c 0,41,42
 125 148 125 148 174.5 109.5 c 128,-1,43
 224 71 224 71 336 71 c 2,44,-1
 587 71 l 1,45,-1
 587 0 l 1,46,-1
 325 0 l 2,0,1
225 351 m 0,47,48
 225 320 225 320 240 297 c 128,-1,49
 255 274 255 274 299 274 c 0,50,51
 334 274 334 274 349.5 290.5 c 128,-1,52
 365 307 365 307 365 328 c 0,53,54
 365 350 365 350 347 366.5 c 128,-1,55
 329 383 329 383 282 383 c 0,56,57
 267 383 267 383 253 380.5 c 128,-1,58
 239 378 239 378 227 373 c 1,59,60
 225 362 225 362 225 351 c 0,47,48
EndSplineSet
EndChar

StartChar: seven.Nnagari
Encoding: 3309 3309 79
Width: 586
VWidth: 1460
Flags: W
LayerCount: 2
Fore
SplineSet
277 0 m 2,0,1
 205 0 205 0 154.5 13 c 128,-1,2
 104 26 104 26 78 60.5 c 128,-1,3
 52 95 52 95 52 158 c 0,4,5
 52 209 52 209 75 243 c 128,-1,6
 98 277 98 277 133.5 301 c 128,-1,7
 169 325 169 325 206 345 c 0,8,9
 239 363 239 363 268 381.5 c 128,-1,10
 297 400 297 400 314.5 425 c 128,-1,11
 332 450 332 450 332 487 c 0,12,13
 332 522 332 522 310 542 c 128,-1,14
 288 562 288 562 253 562 c 0,15,16
 225 562 225 562 200.5 548.5 c 128,-1,17
 176 535 176 535 176 504 c 0,18,19
 176 486 176 486 188.5 473.5 c 128,-1,20
 201 461 201 461 229 459 c 1,21,-1
 222 390 l 1,22,23
 170 390 170 390 134.5 421.5 c 128,-1,24
 99 453 99 453 99 509 c 0,25,26
 99 559 99 559 140 594.5 c 128,-1,27
 181 630 181 630 255 630 c 0,28,29
 324 630 324 630 367 594.5 c 128,-1,30
 410 559 410 559 410 488 c 0,31,32
 410 431 410 431 386 393 c 128,-1,33
 362 355 362 355 325.5 330 c 128,-1,34
 289 305 289 305 250 284 c 0,35,36
 219 268 219 268 191.5 250.5 c 128,-1,37
 164 233 164 233 147 211 c 128,-1,38
 130 189 130 189 130 158 c 0,39,40
 130 114 130 114 161.5 92.5 c 128,-1,41
 193 71 193 71 275 71 c 2,42,-1
 586 71 l 1,43,-1
 586 0 l 1,44,-1
 277 0 l 2,0,1
EndSplineSet
EndChar

StartChar: eight.Nnagari
Encoding: 3310 3310 80
Width: 690
VWidth: 1460
Flags: W
LayerCount: 2
Fore
SplineSet
354 -5 m 0,0,1
 270 -5 270 -5 214 29 c 128,-1,2
 158 63 158 63 125.5 118.5 c 128,-1,3
 93 174 93 174 79 238.5 c 128,-1,4
 65 303 65 303 65 364 c 0,5,6
 65 457 65 457 92 516.5 c 128,-1,7
 119 576 119 576 163.5 604.5 c 128,-1,8
 208 633 208 633 260 633 c 0,9,10
 318 633 318 633 349.5 602.5 c 128,-1,11
 381 572 381 572 381 519 c 0,12,13
 381 469 381 469 347 433 c 128,-1,14
 313 397 313 397 230 397 c 0,15,16
 210 397 210 397 186.5 401.5 c 128,-1,17
 163 406 163 406 145 413 c 1,18,19
 142 390 142 390 142 364 c 0,20,21
 142 316 142 316 152 264 c 128,-1,22
 162 212 162 212 185.5 167 c 128,-1,23
 209 122 209 122 250 94.5 c 128,-1,24
 291 67 291 67 353 67 c 0,25,26
 408 67 408 67 441.5 87 c 128,-1,27
 475 107 475 107 490.5 140.5 c 128,-1,28
 506 174 506 174 506 212 c 0,29,30
 506 259 506 259 492.5 299.5 c 128,-1,31
 479 340 479 340 463 377 c 0,32,33
 448 412 448 412 436.5 447 c 128,-1,34
 425 482 425 482 425 520 c 0,35,36
 425 546 425 546 434 564.5 c 128,-1,37
 443 583 443 583 459 596 c 0,38,39
 477 611 477 611 503 616.5 c 128,-1,40
 529 622 529 622 571 622 c 2,41,-1
 615 622 l 1,42,-1
 615 548 l 1,43,-1
 572 548 l 2,44,45
 539 548 539 548 521 542 c 128,-1,46
 503 536 503 536 503 513 c 0,47,48
 503 492 503 492 512 466 c 128,-1,49
 521 440 521 440 534 409 c 0,50,51
 551 368 551 368 568 318 c 128,-1,52
 585 268 585 268 585 212 c 0,53,54
 585 138 585 138 554 89.5 c 128,-1,55
 523 41 523 41 470.5 18 c 128,-1,56
 418 -5 418 -5 354 -5 c 0,0,1
255 567 m 0,57,58
 223 567 223 567 197.5 543 c 128,-1,59
 172 519 172 519 158 475 c 1,60,61
 186 463 186 463 220 463 c 0,62,63
 265 463 265 463 284 478.5 c 128,-1,64
 303 494 303 494 303 522 c 0,65,66
 303 542 303 542 292 554.5 c 128,-1,67
 281 567 281 567 255 567 c 0,57,58
EndSplineSet
EndChar

StartChar: nine.Nnagari
Encoding: 3311 3311 81
Width: 565
VWidth: 1460
Flags: W
LayerCount: 2
Fore
SplineSet
277 0 m 2,0,1
 213 0 213 0 161.5 23 c 128,-1,2
 110 46 110 46 80 91 c 128,-1,3
 50 136 50 136 50 201 c 0,4,5
 50 230 50 230 59 257.5 c 128,-1,6
 68 285 68 285 84 310 c 1,7,8
 50 364 50 364 50 424 c 0,9,10
 50 528 50 528 124 575 c 128,-1,11
 198 622 198 622 325 622 c 2,12,-1
 575 622 l 1,13,-1
 575 552 l 1,14,-1
 354 552 l 2,15,16
 284 552 284 552 232.5 541.5 c 128,-1,17
 181 531 181 531 153 500 c 128,-1,18
 125 469 125 469 125 409 c 0,19,20
 125 386 125 386 133 364 c 1,21,22
 160 387 160 387 195 400.5 c 128,-1,23
 230 414 230 414 276 414 c 0,24,25
 336 414 336 414 367 386.5 c 128,-1,26
 398 359 398 359 398 308 c 0,27,28
 398 262 398 262 366.5 232.5 c 128,-1,29
 335 203 335 203 268 203 c 0,30,31
 188 203 188 203 129 255 c 1,32,33
 121 233 121 233 121 206 c 0,34,35
 121 155 121 155 142.5 125 c 128,-1,36
 164 95 164 95 198 82.5 c 128,-1,37
 232 70 232 70 270 70 c 2,38,-1
 286 70 l 1,39,-1
 286 0 l 1,40,-1
 277 0 l 2,0,1
268 346 m 0,41,42
 242 346 242 346 215 336.5 c 128,-1,43
 188 327 188 327 167 309 c 1,44,45
 184 291 184 291 209 280.5 c 128,-1,46
 234 270 234 270 268 270 c 0,47,48
 292 270 292 270 309 278.5 c 128,-1,49
 326 287 326 287 326 308 c 0,50,51
 326 325 326 325 313 335.5 c 128,-1,52
 300 346 300 346 268 346 c 0,41,42
EndSplineSet
EndChar

StartChar: Danda.Nnagari
Encoding: 2404 2404 82
Width: 269
VWidth: 1460
Flags: W
LayerCount: 2
Fore
SplineSet
76 0 m 1,0,-1
 76 622 l 1,1,-1
 154 622 l 1,2,-1
 154 0 l 1,3,-1
 76 0 l 1,0,-1
EndSplineSet
EndChar

StartChar: Doubledanda.Nnagari
Encoding: 2405 2405 83
Width: 538
VWidth: 1460
Flags: W
LayerCount: 2
Fore
SplineSet
345 0 m 1,0,-1
 345 622 l 1,1,-1
 423 622 l 1,2,-1
 423 0 l 1,3,-1
 345 0 l 1,0,-1
76 0 m 1,4,-1
 76 622 l 1,5,-1
 154 622 l 1,6,-1
 154 0 l 1,7,-1
 76 0 l 1,4,-1
EndSplineSet
EndChar

StartChar: Onequarter.Nnagari
Encoding: 43056 43056 84
Width: 328
VWidth: 1460
Flags: W
LayerCount: 2
Fore
SplineSet
125 0 m 1,0,-1
 125 622 l 1,1,-1
 203 622 l 1,2,-1
 203 0 l 1,3,-1
 125 0 l 1,0,-1
EndSplineSet
EndChar

StartChar: Onehalf.Nnagari
Encoding: 43057 43057 85
Width: 567
VWidth: 1460
Flags: W
LayerCount: 2
Fore
SplineSet
364 0 m 1,0,-1
 364 622 l 1,1,-1
 442 622 l 1,2,-1
 442 0 l 1,3,-1
 364 0 l 1,0,-1
125 0 m 1,4,-1
 125 622 l 1,5,-1
 203 622 l 1,6,-1
 203 0 l 1,7,-1
 125 0 l 1,4,-1
EndSplineSet
EndChar

StartChar: Threequarter.Nnagari
Encoding: 43058 43058 86
Width: 806
VWidth: 1460
Flags: W
LayerCount: 2
Fore
SplineSet
603 0 m 1,0,-1
 603 622 l 1,1,-1
 681 622 l 1,2,-1
 681 0 l 1,3,-1
 603 0 l 1,0,-1
125 0 m 1,4,-1
 125 622 l 1,5,-1
 203 622 l 1,6,-1
 203 0 l 1,7,-1
 125 0 l 1,4,-1
364 0 m 1,8,-1
 364 622 l 1,9,-1
 442 622 l 1,10,-1
 442 0 l 1,11,-1
 364 0 l 1,8,-1
EndSplineSet
EndChar

StartChar: Onesixteenth.Nnagari
Encoding: 43059 43059 87
Width: 807
VWidth: 1460
Flags: W
LayerCount: 2
Fore
SplineSet
115 181 m 1,0,-1
 115 262 l 1,1,-1
 692 418 l 1,2,-1
 692 337 l 1,3,-1
 115 181 l 1,0,-1
EndSplineSet
EndChar

StartChar: Oneeight.Nnagari
Encoding: 43060 43060 88
Width: 807
VWidth: 1460
Flags: W
LayerCount: 2
Fore
SplineSet
115 301 m 1,0,-1
 115 382 l 1,1,-1
 692 538 l 1,2,-1
 692 457 l 1,3,-1
 115 301 l 1,0,-1
115 61 m 1,4,-1
 115 142 l 1,5,-1
 692 298 l 1,6,-1
 692 217 l 1,7,-1
 115 61 l 1,4,-1
EndSplineSet
EndChar

StartChar: Threesixteenths.Nnagari
Encoding: 43061 43061 89
Width: 807
VWidth: 1460
Flags: W
LayerCount: 2
Fore
SplineSet
115 381 m 1,0,-1
 115 462 l 1,1,-1
 692 618 l 1,2,-1
 692 537 l 1,3,-1
 115 381 l 1,0,-1
115 181 m 1,4,-1
 115 262 l 1,5,-1
 692 418 l 1,6,-1
 692 337 l 1,7,-1
 115 181 l 1,4,-1
115 -19 m 1,8,-1
 115 62 l 1,9,-1
 692 218 l 1,10,-1
 692 137 l 1,11,-1
 115 -19 l 1,8,-1
EndSplineSet
EndChar

StartChar: KaKa.Nnagari
Encoding: 1114114 -1 90
Width: 837
VWidth: 1460
GlyphClass: 2
Flags: W
AnchorPoint: "+BBEENQQ3BEsEPARPBD0EPQQ+BDUA--1" 431 602 basechar 0
AnchorPoint: "+BBEENQQ3BEsEPARPBD0EPQQ+BDUA--0" 702 -124 basechar 0
LayerCount: 2
Fore
SplineSet
255 -101 m 0,0,1
 170 -101 170 -101 125 -67 c 128,-1,2
 80 -33 80 -33 80 34 c 0,3,4
 80 92 80 92 121.5 131.5 c 128,-1,5
 163 171 163 171 254 171 c 0,6,7
 291 171 291 171 326.5 160.5 c 128,-1,8
 362 150 362 150 390 135 c 1,9,-1
 390 264 l 1,10,11
 364 249 364 249 329 239.5 c 128,-1,12
 294 230 294 230 255 230 c 0,13,14
 170 230 170 230 125 264 c 128,-1,15
 80 298 80 298 80 365 c 0,16,17
 80 423 80 423 121.5 462.5 c 128,-1,18
 163 502 163 502 254 502 c 0,19,20
 291 502 291 502 326.5 491.5 c 128,-1,21
 362 481 362 481 390 466 c 1,22,-1
 390 558 l 1,23,-1
 -170 558 l 1,24,-1
 -170 622 l 1,25,-1
 464 622 l 1,26,-1
 464 394 l 1,27,-1
 509 417 l 2,28,29
 538 432 538 432 569.5 443 c 128,-1,30
 601 454 601 454 631 454 c 0,31,32
 686 454 686 454 714 425 c 128,-1,33
 742 396 742 396 742 346 c 2,34,-1
 742 221 l 1,35,-1
 664 221 l 1,36,-1
 664 340 l 2,37,38
 664 366 664 366 652 376.5 c 128,-1,39
 640 387 640 387 620 387 c 0,40,41
 601 387 601 387 578.5 377.5 c 128,-1,42
 556 368 556 368 533 356 c 2,43,-1
 464 321 l 1,44,-1
 464 63 l 1,45,-1
 509 86 l 2,46,47
 538 101 538 101 569.5 112 c 128,-1,48
 601 123 601 123 631 123 c 0,49,50
 686 123 686 123 714 94 c 128,-1,51
 742 65 742 65 742 15 c 2,52,-1
 742 -110 l 1,53,-1
 664 -110 l 1,54,-1
 664 9 l 2,55,56
 664 35 664 35 652 45.5 c 128,-1,57
 640 56 640 56 620 56 c 0,58,59
 601 56 601 56 578.5 46.5 c 128,-1,60
 556 37 556 37 533 25 c 2,61,-1
 464 -10 l 1,62,-1
 464 -101 l 1,63,-1
 390 -101 l 1,64,-1
 390 -67 l 1,65,66
 364 -82 364 -82 329 -91.5 c 128,-1,67
 294 -101 294 -101 255 -101 c 0,0,1
162 365 m 0,68,69
 162 296 162 296 256 296 c 0,70,71
 298 296 298 296 332 307 c 128,-1,72
 366 318 366 318 390 335 c 1,73,-1
 390 392 l 1,74,75
 363 410 363 410 329.5 422.5 c 128,-1,76
 296 435 296 435 259 435 c 0,77,78
 207 435 207 435 184.5 416 c 128,-1,79
 162 397 162 397 162 365 c 0,68,69
162 34 m 0,80,81
 162 -35 162 -35 256 -35 c 0,82,83
 298 -35 298 -35 332 -24 c 128,-1,84
 366 -13 366 -13 390 4 c 1,85,-1
 390 61 l 1,86,87
 363 79 363 79 329.5 91.5 c 128,-1,88
 296 104 296 104 259 104 c 0,89,90
 207 104 207 104 184.5 85 c 128,-1,91
 162 66 162 66 162 34 c 0,80,81
EndSplineSet
Substitution2: "'ss02' Style Set 2 in 'DFLT' lookup 65 subtable" KaKa.Nnagari.ss02
Ligature2: "'cjct' Conjunct Forms in 'DFLT' lookup 27 subtable" KaHalf.Nnagari Ka.Nnagari
Substitution2: "'aalt' +BBIEQQQ1 +BDAEOwRMBEIENQRABD0EMARCBDgEMgQ9BEsENQAA +BDIEMARABDgEMAQ9BEIESwAA in 'DFLT' lookup 0 subtable" KaKa.Nnagari.ss02
EndChar

StartChar: KaKaRa.Nnagari
Encoding: 1114115 -1 91
Width: 837
VWidth: 1460
GlyphClass: 2
Flags: W
AnchorPoint: "+BBEENQQ3BEsEPARPBD0EPQQ+BDUA--1" 431 602 basechar 0
AnchorPoint: "+BBEENQQ3BEsEPARPBD0EPQQ+BDUA--0" 427 -341 basechar 0
LayerCount: 2
Fore
SplineSet
255 -101 m 0,0,1
 170 -101 170 -101 125 -67 c 128,-1,2
 80 -33 80 -33 80 34 c 0,3,4
 80 92 80 92 121.5 131.5 c 128,-1,5
 163 171 163 171 254 171 c 0,6,7
 291 171 291 171 326.5 160.5 c 128,-1,8
 362 150 362 150 390 135 c 1,9,-1
 390 264 l 1,10,11
 364 249 364 249 329 239.5 c 128,-1,12
 294 230 294 230 255 230 c 0,13,14
 170 230 170 230 125 264 c 128,-1,15
 80 298 80 298 80 365 c 0,16,17
 80 423 80 423 121.5 462.5 c 128,-1,18
 163 502 163 502 254 502 c 0,19,20
 291 502 291 502 326.5 491.5 c 128,-1,21
 362 481 362 481 390 466 c 1,22,-1
 390 558 l 1,23,-1
 -170 558 l 1,24,-1
 -170 622 l 1,25,-1
 464 622 l 1,26,-1
 464 394 l 1,27,-1
 509 417 l 2,28,29
 538 432 538 432 569.5 443 c 128,-1,30
 601 454 601 454 631 454 c 0,31,32
 686 454 686 454 714 425 c 128,-1,33
 742 396 742 396 742 346 c 2,34,-1
 742 221 l 1,35,-1
 664 221 l 1,36,-1
 664 340 l 2,37,38
 664 366 664 366 652 376.5 c 128,-1,39
 640 387 640 387 620 387 c 0,40,41
 601 387 601 387 578.5 377.5 c 128,-1,42
 556 368 556 368 533 356 c 2,43,-1
 464 321 l 1,44,-1
 464 63 l 1,45,-1
 509 86 l 2,46,47
 538 101 538 101 569.5 112 c 128,-1,48
 601 123 601 123 631 123 c 0,49,50
 686 123 686 123 714 94 c 128,-1,51
 742 65 742 65 742 15 c 2,52,-1
 742 -110 l 1,53,-1
 664 -110 l 1,54,-1
 664 9 l 2,55,56
 664 35 664 35 652 45.5 c 128,-1,57
 640 56 640 56 620 56 c 0,58,59
 601 56 601 56 578.5 46.5 c 128,-1,60
 556 37 556 37 533 25 c 2,61,-1
 464 -10 l 1,62,-1
 464 -101 l 1,63,-1
 390 -101 l 1,64,-1
 390 -67 l 1,65,66
 364 -82 364 -82 329 -91.5 c 128,-1,67
 294 -101 294 -101 255 -101 c 0,0,1
162 365 m 0,68,69
 162 296 162 296 256 296 c 0,70,71
 298 296 298 296 332 307 c 128,-1,72
 366 318 366 318 390 335 c 1,73,-1
 390 392 l 1,74,75
 363 410 363 410 329.5 422.5 c 128,-1,76
 296 435 296 435 259 435 c 0,77,78
 207 435 207 435 184.5 416 c 128,-1,79
 162 397 162 397 162 365 c 0,68,69
162 34 m 0,80,81
 162 -35 162 -35 256 -35 c 0,82,83
 298 -35 298 -35 332 -24 c 128,-1,84
 366 -13 366 -13 390 4 c 1,85,-1
 390 61 l 1,86,87
 363 79 363 79 329.5 91.5 c 128,-1,88
 296 104 296 104 259 104 c 0,89,90
 207 104 207 104 184.5 85 c 128,-1,91
 162 66 162 66 162 34 c 0,80,81
100 -259 m 1,92,-1
 100 -191 l 1,93,-1
 453 -191 l 1,94,-1
 453 -259 l 1,95,-1
 100 -259 l 1,92,-1
EndSplineSet
Substitution2: "'ss04' Style Set 4 in 'DFLT' lookup 99 subtable" KaKaRa.Nnagari.ss04
Substitution2: "'ss03' Style Set 3 in 'DFLT' lookup 90 subtable" KaKaRa.Nnagari.ss03
Substitution2: "'ss02' Style Set 2 in 'DFLT' lookup 65 subtable" KaKaRa.Nnagari.ss02
Ligature2: "'cjct' Conjunct Forms in 'DFLT' lookup 26 subtable" KaHalf.Nnagari KaHalf.Nnagari Ra.Nnagari
AlternateSubs2: "'aalt' +BBIEQQQ1 +BDAEOwRMBEIENQRABD0EMARCBDgEMgQ9BEsENQAA +BDIEMARABDgEMAQ9BEIESwAA in 'DFLT' lookup 1 subtable" KaKaRa.Nnagari.ss02 KaKaRa.Nnagari.ss03 KaKaRa.Nnagari.ss04
EndChar

StartChar: KaKaLa.Nnagari
Encoding: 1114116 -1 92
Width: 837
VWidth: 1460
GlyphClass: 2
Flags: W
AnchorPoint: "+BBEENQQ3BEsEPARPBD0EPQQ+BDUA--1" 431 602 basechar 0
AnchorPoint: "+BBEENQQ3BEsEPARPBD0EPQQ+BDUA--0" 427 -341 basechar 0
LayerCount: 2
Fore
SplineSet
255 -91 m 0,0,1
 170 -91 170 -91 125 -57 c 128,-1,2
 80 -23 80 -23 80 44 c 0,3,4
 80 102 80 102 121.5 141.5 c 128,-1,5
 163 181 163 181 254 181 c 0,6,7
 291 181 291 181 326.5 170.5 c 128,-1,8
 362 160 362 160 390 145 c 1,9,-1
 390 264 l 1,10,11
 364 249 364 249 329 239.5 c 128,-1,12
 294 230 294 230 255 230 c 0,13,14
 170 230 170 230 125 264 c 128,-1,15
 80 298 80 298 80 365 c 0,16,17
 80 423 80 423 121.5 462.5 c 128,-1,18
 163 502 163 502 254 502 c 0,19,20
 291 502 291 502 326.5 491.5 c 128,-1,21
 362 481 362 481 390 466 c 1,22,-1
 390 558 l 1,23,-1
 -170 558 l 1,24,-1
 -170 622 l 1,25,-1
 464 622 l 1,26,-1
 464 394 l 1,27,-1
 509 417 l 2,28,29
 538 432 538 432 569.5 443 c 128,-1,30
 601 454 601 454 631 454 c 0,31,32
 686 454 686 454 714 425 c 128,-1,33
 742 396 742 396 742 346 c 2,34,-1
 742 221 l 1,35,-1
 664 221 l 1,36,-1
 664 340 l 2,37,38
 664 366 664 366 652 376.5 c 128,-1,39
 640 387 640 387 620 387 c 0,40,41
 601 387 601 387 578.5 377.5 c 128,-1,42
 556 368 556 368 533 356 c 2,43,-1
 464 321 l 1,44,-1
 464 73 l 1,45,-1
 509 96 l 2,46,47
 538 111 538 111 569.5 122 c 128,-1,48
 601 133 601 133 631 133 c 0,49,50
 686 133 686 133 714 104 c 128,-1,51
 742 75 742 75 742 25 c 2,52,-1
 742 -100 l 1,53,-1
 664 -100 l 1,54,-1
 664 19 l 2,55,56
 664 45 664 45 652 55.5 c 128,-1,57
 640 66 640 66 620 66 c 0,58,59
 601 66 601 66 578.5 56.5 c 128,-1,60
 556 47 556 47 533 35 c 2,61,-1
 464 0 l 1,62,-1
 464 -101 l 1,63,-1
 408 -101 l 1,64,-1
 408 -153 l 1,65,66
 386 -139 386 -139 352 -139 c 0,67,68
 319 -139 319 -139 297.5 -157 c 128,-1,69
 276 -175 276 -175 274 -215 c 2,70,-1
 272 -247 l 1,71,-1
 204 -247 l 1,72,-1
 202 -215 l 2,73,74
 200 -176 200 -176 181.5 -158 c 128,-1,75
 163 -140 163 -140 131 -140 c 0,76,77
 97 -140 97 -140 77 -159.5 c 128,-1,78
 57 -179 57 -179 57 -216 c 0,79,80
 57 -255 57 -255 67.5 -284.5 c 128,-1,81
 78 -314 78 -314 94 -341 c 1,82,-1
 18 -341 l 1,83,84
 6 -323 6 -323 -6.5 -289.5 c 128,-1,85
 -19 -256 -19 -256 -19 -214 c 0,86,87
 -19 -144 -19 -144 20.5 -109 c 128,-1,88
 60 -74 60 -74 125 -74 c 0,89,90
 164 -74 164 -74 192 -89.5 c 128,-1,91
 220 -105 220 -105 237 -131 c 1,92,93
 250 -105 250 -105 275 -90 c 1,94,95
 265 -91 265 -91 255 -91 c 0,0,1
162 365 m 0,96,97
 162 296 162 296 256 296 c 0,98,99
 298 296 298 296 332 307 c 128,-1,100
 366 318 366 318 390 335 c 1,101,-1
 390 392 l 1,102,103
 363 410 363 410 329.5 422.5 c 128,-1,104
 296 435 296 435 259 435 c 0,105,106
 207 435 207 435 184.5 416 c 128,-1,107
 162 397 162 397 162 365 c 0,96,97
162 44 m 0,108,109
 162 -25 162 -25 256 -25 c 0,110,111
 298 -25 298 -25 332 -14 c 128,-1,112
 366 -3 366 -3 390 14 c 1,113,-1
 390 71 l 1,114,115
 363 89 363 89 329.5 101.5 c 128,-1,116
 296 114 296 114 259 114 c 0,117,118
 207 114 207 114 184.5 95 c 128,-1,119
 162 76 162 76 162 44 c 0,108,109
355 -73 m 1,120,121
 374 -74 374 -74 390 -80 c 1,122,-1
 390 -57 l 1,123,124
 374 -66 374 -66 355 -73 c 1,120,121
EndSplineSet
Substitution2: "'ss02' Style Set 2 in 'DFLT' lookup 65 subtable" KaKaLa.Nnagari.ss02
Ligature2: "'cjct' Conjunct Forms in 'DFLT' lookup 26 subtable" KaHalf.Nnagari KaHalf.Nnagari La.Nnagari
Substitution2: "'aalt' +BBIEQQQ1 +BDAEOwRMBEIENQRABD0EMARCBDgEMgQ9BEsENQAA +BDIEMARABDgEMAQ9BEIESwAA in 'DFLT' lookup 0 subtable" KaKaLa.Nnagari.ss02
EndChar

StartChar: KaKaVa.Nnagari
Encoding: 1114117 -1 93
Width: 837
VWidth: 1460
GlyphClass: 2
Flags: W
AnchorPoint: "+BBEENQQ3BEsEPARPBD0EPQQ+BDUA--1" 431 602 basechar 0
AnchorPoint: "+BBEENQQ3BEsEPARPBD0EPQQ+BDUA--0" 427 -341 basechar 0
LayerCount: 2
Fore
SplineSet
255 235 m 0,0,1
 170 235 170 235 125 269 c 128,-1,2
 80 303 80 303 80 370 c 0,3,4
 80 428 80 428 121.5 467.5 c 128,-1,5
 163 507 163 507 254 507 c 0,6,7
 291 507 291 507 326.5 496.5 c 128,-1,8
 362 486 362 486 390 471 c 1,9,-1
 390 558 l 1,10,-1
 -170 558 l 1,11,-1
 -170 622 l 1,12,-1
 464 622 l 1,13,-1
 464 399 l 1,14,-1
 509 422 l 2,15,16
 538 437 538 437 569.5 448 c 128,-1,17
 601 459 601 459 631 459 c 0,18,19
 686 459 686 459 714 430 c 128,-1,20
 742 401 742 401 742 351 c 2,21,-1
 742 226 l 1,22,-1
 664 226 l 1,23,-1
 664 345 l 2,24,25
 664 371 664 371 652 381.5 c 128,-1,26
 640 392 640 392 620 392 c 0,27,28
 601 392 601 392 578.5 382.5 c 128,-1,29
 556 373 556 373 533 361 c 2,30,-1
 464 326 l 1,31,-1
 464 83 l 1,32,-1
 509 106 l 2,33,34
 538 121 538 121 569.5 132 c 128,-1,35
 601 143 601 143 631 143 c 0,36,37
 686 143 686 143 714 114 c 128,-1,38
 742 85 742 85 742 35 c 2,39,-1
 742 -90 l 1,40,-1
 664 -90 l 1,41,-1
 664 29 l 2,42,43
 664 55 664 55 652 65.5 c 128,-1,44
 640 76 640 76 620 76 c 0,45,46
 601 76 601 76 578.5 66.5 c 128,-1,47
 556 57 556 57 533 45 c 2,48,-1
 464 10 l 1,49,-1
 464 -101 l 1,50,-1
 390 -101 l 1,51,-1
 390 -47 l 1,52,53
 355 -68 355 -68 309 -76 c 1,54,55
 348 -86 348 -86 375.5 -103 c 128,-1,56
 403 -120 403 -120 423 -137 c 1,57,-1
 395 -193 l 1,58,59
 370 -170 370 -170 330 -152.5 c 128,-1,60
 290 -135 290 -135 225 -135 c 0,61,62
 149 -135 149 -135 120.5 -158.5 c 128,-1,63
 92 -182 92 -182 92 -221 c 0,64,65
 92 -258 92 -258 121.5 -282.5 c 128,-1,66
 151 -307 151 -307 222 -307 c 0,67,68
 288 -307 288 -307 326 -290.5 c 128,-1,69
 364 -274 364 -274 395 -251 c 1,70,-1
 427 -309 l 1,71,72
 410 -323 410 -323 382 -339 c 128,-1,73
 354 -355 354 -355 312 -366 c 128,-1,74
 270 -377 270 -377 210 -377 c 0,75,76
 113 -377 113 -377 63.5 -334 c 128,-1,77
 14 -291 14 -291 14 -221 c 0,78,79
 14 -159 14 -159 52 -118.5 c 128,-1,80
 90 -78 90 -78 165 -68 c 1,81,82
 80 -38 80 -38 80 54 c 0,83,84
 80 112 80 112 121.5 151.5 c 128,-1,85
 163 191 163 191 254 191 c 0,86,87
 291 191 291 191 326.5 180.5 c 128,-1,88
 362 170 362 170 390 155 c 1,89,-1
 390 269 l 1,90,91
 364 254 364 254 329 244.5 c 128,-1,92
 294 235 294 235 255 235 c 0,0,1
162 370 m 0,93,94
 162 301 162 301 256 301 c 0,95,96
 298 301 298 301 332 312 c 128,-1,97
 366 323 366 323 390 340 c 1,98,-1
 390 397 l 1,99,100
 363 415 363 415 329.5 427.5 c 128,-1,101
 296 440 296 440 259 440 c 0,102,103
 207 440 207 440 184.5 421 c 128,-1,104
 162 402 162 402 162 370 c 0,93,94
162 54 m 0,105,106
 162 -15 162 -15 256 -15 c 0,107,108
 298 -15 298 -15 332 -4 c 128,-1,109
 366 7 366 7 390 24 c 1,110,-1
 390 81 l 1,111,112
 363 99 363 99 329.5 111.5 c 128,-1,113
 296 124 296 124 259 124 c 0,114,115
 207 124 207 124 184.5 105 c 128,-1,116
 162 86 162 86 162 54 c 0,105,106
EndSplineSet
Substitution2: "'ss02' Style Set 2 in 'DFLT' lookup 65 subtable" KaKaVa.Nnagari.ss02
Ligature2: "'cjct' Conjunct Forms in 'DFLT' lookup 26 subtable" KaHalf.Nnagari KaHalf.Nnagari Va.Nnagari
Substitution2: "'aalt' +BBIEQQQ1 +BDAEOwRMBEIENQRABD0EMARCBDgEMgQ9BEsENQAA +BDIEMARABDgEMAQ9BEIESwAA in 'DFLT' lookup 0 subtable" KaKaVa.Nnagari.ss02
EndChar

StartChar: KaCa.Nnagari
Encoding: 1114118 -1 94
Width: 837
VWidth: 1460
GlyphClass: 2
Flags: W
AnchorPoint: "+BBEENQQ3BEsEPARPBD0EPQQ+BDUA--1" 430 602 basechar 0
AnchorPoint: "+BBEENQQ3BEsEPARPBD0EPQQ+BDUA--0" 424 -101 basechar 0
LayerCount: 2
Fore
SplineSet
389 -101 m 1,0,-1
 389 -97 l 1,1,2
 353 -55 353 -55 291 -16 c 128,-1,3
 229 23 229 23 156.5 52.5 c 128,-1,4
 84 82 84 82 14 94 c 1,5,-1
 -4 208 l 1,6,7
 31 220 31 220 66 231.5 c 128,-1,8
 101 243 101 243 137 255 c 1,9,10
 80 289 80 289 80 364 c 0,11,12
 80 422 80 422 121.5 461.5 c 128,-1,13
 163 501 163 501 254 501 c 0,14,15
 291 501 291 501 326 490.5 c 128,-1,16
 361 480 361 480 389 465 c 1,17,-1
 389 558 l 1,18,-1
 -170 558 l 1,19,-1
 -170 622 l 1,20,-1
 463 622 l 1,21,-1
 463 392 l 1,22,-1
 509 416 l 2,23,24
 538 431 538 431 569.5 442 c 128,-1,25
 601 453 601 453 631 453 c 0,26,27
 686 453 686 453 714 424 c 128,-1,28
 742 395 742 395 742 345 c 2,29,-1
 742 220 l 1,30,-1
 664 220 l 1,31,-1
 664 339 l 2,32,33
 664 365 664 365 652 375.5 c 128,-1,34
 640 386 640 386 620 386 c 0,35,36
 601 386 601 386 578.5 376.5 c 128,-1,37
 556 367 556 367 533 355 c 2,38,-1
 463 320 l 1,39,-1
 463 -101 l 1,40,-1
 389 -101 l 1,0,-1
162 364 m 0,41,42
 162 295 162 295 256 295 c 0,43,44
 259 295 259 295 260 295 c 0,45,46
 292 305 292 305 324.5 315.5 c 128,-1,47
 357 326 357 326 389 337 c 1,48,-1
 389 392 l 1,49,50
 362 409 362 409 329 421.5 c 128,-1,51
 296 434 296 434 259 434 c 0,52,53
 207 434 207 434 184.5 415 c 128,-1,54
 162 396 162 396 162 364 c 0,41,42
83 156 m 1,55,56
 159 138 159 138 241.5 98.5 c 128,-1,57
 324 59 324 59 389 6 c 1,58,-1
 389 257 l 1,59,60
 310 232 310 232 233.5 207 c 128,-1,61
 157 182 157 182 83 156 c 1,55,56
EndSplineSet
Substitution2: "'ss02' Style Set 2 in 'DFLT' lookup 65 subtable" KaCa.Nnagari.ss02
Ligature2: "'cjct' Conjunct Forms in 'DFLT' lookup 27 subtable" KaHalf.Nnagari Ca.Nnagari
Substitution2: "'aalt' +BBIEQQQ1 +BDAEOwRMBEIENQRABD0EMARCBDgEMgQ9BEsENQAA +BDIEMARABDgEMAQ9BEIESwAA in 'DFLT' lookup 0 subtable" KaCa.Nnagari.ss02
EndChar

StartChar: KaCaCha.Nnagari
Encoding: 1114119 -1 95
Width: 849
VWidth: 1460
GlyphClass: 2
Flags: W
AnchorPoint: "+BBEENQQ3BEsEPARPBD0EPQQ+BDUA--1" 430 602 basechar 0
AnchorPoint: "+BBEENQQ3BEsEPARPBD0EPQQ+BDUA--0" 413 -346 basechar 0
LayerCount: 2
Fore
SplineSet
389 -101 m 1,0,-1
 326 -101 l 2,1,2
 251 -101 251 -101 216 -122 c 128,-1,3
 181 -143 181 -143 181 -190 c 0,4,5
 181 -235 181 -235 232 -262.5 c 128,-1,6
 283 -290 283 -290 389 -290 c 0,7,8
 557 -290 557 -290 635 -215 c 1,9,10
 584 -195 584 -195 559.5 -161 c 128,-1,11
 535 -127 535 -127 535 -84 c 0,12,13
 535 -40 535 -40 563.5 -9.5 c 128,-1,14
 592 21 592 21 641 21 c 0,15,16
 691 21 691 21 722.5 -8 c 128,-1,17
 754 -37 754 -37 754 -96 c 0,18,19
 754 -171 754 -171 710.5 -229.5 c 128,-1,20
 667 -288 667 -288 585.5 -322 c 128,-1,21
 504 -356 504 -356 389 -356 c 0,22,23
 247 -356 247 -356 174 -313.5 c 128,-1,24
 101 -271 101 -271 101 -190 c 0,25,26
 101 -121 101 -121 160.5 -81 c 128,-1,27
 220 -41 220 -41 326 -41 c 2,28,-1
 327 -41 l 1,29,30
 285 -10 285 -10 233 17.5 c 128,-1,31
 181 45 181 45 124.5 64.5 c 128,-1,32
 68 84 68 84 14 94 c 1,33,-1
 -4 208 l 1,34,35
 31 220 31 220 66 231.5 c 128,-1,36
 101 243 101 243 137 255 c 1,37,38
 80 289 80 289 80 364 c 0,39,40
 80 422 80 422 121.5 461.5 c 128,-1,41
 163 501 163 501 254 501 c 0,42,43
 291 501 291 501 326 490.5 c 128,-1,44
 361 480 361 480 389 465 c 1,45,-1
 389 558 l 1,46,-1
 -170 558 l 1,47,-1
 -170 622 l 1,48,-1
 463 622 l 1,49,-1
 463 392 l 1,50,-1
 509 416 l 2,51,52
 538 431 538 431 569.5 442 c 128,-1,53
 601 453 601 453 631 453 c 0,54,55
 686 453 686 453 714 424 c 128,-1,56
 742 395 742 395 742 345 c 2,57,-1
 742 220 l 1,58,-1
 664 220 l 1,59,-1
 664 339 l 2,60,61
 664 365 664 365 652 375.5 c 128,-1,62
 640 386 640 386 620 386 c 0,63,64
 601 386 601 386 578.5 376.5 c 128,-1,65
 556 367 556 367 533 355 c 2,66,-1
 463 320 l 1,67,-1
 463 -186 l 1,68,-1
 389 -186 l 1,69,-1
 389 -101 l 1,0,-1
162 364 m 0,70,71
 162 295 162 295 256 295 c 0,72,73
 259 295 259 295 260 295 c 0,74,75
 292 305 292 305 324.5 315.5 c 128,-1,76
 357 326 357 326 389 337 c 1,77,-1
 389 392 l 1,78,79
 362 409 362 409 329 421.5 c 128,-1,80
 296 434 296 434 259 434 c 0,81,82
 207 434 207 434 184.5 415 c 128,-1,83
 162 396 162 396 162 364 c 0,70,71
83 156 m 1,84,85
 159 138 159 138 241.5 98.5 c 128,-1,86
 324 59 324 59 389 6 c 1,87,-1
 389 257 l 1,88,89
 310 232 310 232 233.5 207 c 128,-1,90
 157 182 157 182 83 156 c 1,84,85
604 -84 m 0,91,92
 604 -135 604 -135 671 -161 c 1,93,94
 684 -131 684 -131 684 -96 c 0,95,96
 684 -43 684 -43 642 -43 c 0,97,98
 625 -43 625 -43 614.5 -54.5 c 128,-1,99
 604 -66 604 -66 604 -84 c 0,91,92
EndSplineSet
Substitution2: "'ss01' Style Set 1 in 'DFLT' lookup 51 subtable" KaCaCha.Nnagari.ss01
Ligature2: "'cjct' Conjunct Forms in 'DFLT' lookup 26 subtable" KaHalf.Nnagari CaHalf.Nnagari Cha.Nnagari
Substitution2: "'aalt' +BBIEQQQ1 +BDAEOwRMBEIENQRABD0EMARCBDgEMgQ9BEsENQAA +BDIEMARABDgEMAQ9BEIESwAA in 'DFLT' lookup 0 subtable" KaCaCha.Nnagari.ss01
EndChar

StartChar: KaNna.Nnagari
Encoding: 1114120 -1 96
Width: 837
VWidth: 1460
GlyphClass: 2
Flags: W
AnchorPoint: "+BBEENQQ3BEsEPARPBD0EPQQ+BDUA--1" 433 602 basechar 0
AnchorPoint: "+BBEENQQ3BEsEPARPBD0EPQQ+BDUA--0" 703 -101 basechar 0
LayerCount: 2
Fore
SplineSet
107 -101 m 1,0,-1
 107 164 l 1,1,-1
 388 164 l 1,2,-1
 388 262 l 1,3,4
 362 247 362 247 327.5 238 c 128,-1,5
 293 229 293 229 255 229 c 0,6,7
 170 229 170 229 125 263 c 128,-1,8
 80 297 80 297 80 364 c 0,9,10
 80 422 80 422 121.5 461.5 c 128,-1,11
 163 501 163 501 254 501 c 0,12,13
 290 501 290 501 325 491 c 128,-1,14
 360 481 360 481 388 466 c 1,15,-1
 388 558 l 1,16,-1
 -170 558 l 1,17,-1
 -170 622 l 1,18,-1
 466 622 l 1,19,-1
 466 394 l 1,20,-1
 509 416 l 2,21,22
 538 431 538 431 569.5 442 c 128,-1,23
 601 453 601 453 631 453 c 0,24,25
 686 453 686 453 714 424 c 128,-1,26
 742 395 742 395 742 345 c 2,27,-1
 742 220 l 1,28,-1
 664 220 l 1,29,-1
 664 339 l 2,30,31
 664 365 664 365 652 375.5 c 128,-1,32
 640 386 640 386 620 386 c 0,33,34
 601 386 601 386 578.5 376.5 c 128,-1,35
 556 367 556 367 533 355 c 2,36,-1
 466 321 l 1,37,-1
 466 164 l 1,38,-1
 742 164 l 1,39,-1
 742 -101 l 1,40,-1
 664 -101 l 1,41,-1
 664 100 l 1,42,-1
 466 100 l 1,43,-1
 466 -101 l 1,44,-1
 388 -101 l 1,45,-1
 388 100 l 1,46,-1
 185 100 l 1,47,-1
 185 -101 l 1,48,-1
 107 -101 l 1,0,-1
162 364 m 0,49,50
 162 295 162 295 256 295 c 0,51,52
 297 295 297 295 330.5 306 c 128,-1,53
 364 317 364 317 388 333 c 1,54,-1
 388 393 l 1,55,56
 361 409 361 409 328.5 421.5 c 128,-1,57
 296 434 296 434 259 434 c 0,58,59
 207 434 207 434 184.5 415 c 128,-1,60
 162 396 162 396 162 364 c 0,49,50
EndSplineSet
Ligature2: "'cjct' Conjunct Forms in 'DFLT' lookup 27 subtable" KaHalf.Nnagari Nna.Nnagari
EndChar

StartChar: KaTa.Nnagari
Encoding: 1114121 -1 97
Width: 837
VWidth: 1460
GlyphClass: 2
Flags: W
AnchorPoint: "+BBEENQQ3BEsEPARPBD0EPQQ+BDUA--1" 431 602 basechar 0
AnchorPoint: "+BBEENQQ3BEsEPARPBD0EPQQ+BDUA--0" 426 -101 basechar 0
LayerCount: 2
Fore
SplineSet
-13 -101 m 1,0,-1
 -13 -71 l 2,1,2
 -13 15 -13 15 31.5 83.5 c 128,-1,3
 76 152 76 152 162.5 192.5 c 128,-1,4
 249 233 249 233 375 233 c 2,5,-1
 390 233 l 1,6,-1
 390 263 l 1,7,8
 364 248 364 248 329 238.5 c 128,-1,9
 294 229 294 229 255 229 c 0,10,11
 170 229 170 229 125 263 c 128,-1,12
 80 297 80 297 80 364 c 0,13,14
 80 422 80 422 121.5 461.5 c 128,-1,15
 163 501 163 501 254 501 c 0,16,17
 291 501 291 501 326.5 490.5 c 128,-1,18
 362 480 362 480 390 465 c 1,19,-1
 390 558 l 1,20,-1
 -170 558 l 1,21,-1
 -170 622 l 1,22,-1
 464 622 l 1,23,-1
 464 393 l 1,24,-1
 509 416 l 2,25,26
 538 431 538 431 569.5 442 c 128,-1,27
 601 453 601 453 631 453 c 0,28,29
 686 453 686 453 714 424 c 128,-1,30
 742 395 742 395 742 345 c 2,31,-1
 742 220 l 1,32,-1
 664 220 l 1,33,-1
 664 339 l 2,34,35
 664 365 664 365 652 375.5 c 128,-1,36
 640 386 640 386 620 386 c 0,37,38
 601 386 601 386 578.5 376.5 c 128,-1,39
 556 367 556 367 533 355 c 2,40,-1
 464 320 l 1,41,-1
 464 -101 l 1,42,-1
 390 -101 l 1,43,-1
 390 159 l 1,44,-1
 375 159 l 2,45,46
 269 159 269 159 200.5 127.5 c 128,-1,47
 132 96 132 96 98.5 42 c 128,-1,48
 65 -12 65 -12 65 -78 c 2,49,-1
 65 -101 l 1,50,-1
 -13 -101 l 1,0,-1
162 364 m 0,51,52
 162 295 162 295 256 295 c 0,53,54
 298 295 298 295 332 306 c 128,-1,55
 366 317 366 317 390 334 c 1,56,-1
 390 391 l 1,57,58
 363 409 363 409 329.5 421.5 c 128,-1,59
 296 434 296 434 259 434 c 0,60,61
 207 434 207 434 184.5 415 c 128,-1,62
 162 396 162 396 162 364 c 0,51,52
EndSplineSet
Substitution2: "'ss02' Style Set 2 in 'DFLT' lookup 65 subtable" KaTa.Nnagari.ss02
Ligature2: "'cjct' Conjunct Forms in 'DFLT' lookup 27 subtable" KaHalf.Nnagari Ta.Nnagari
Substitution2: "'aalt' +BBIEQQQ1 +BDAEOwRMBEIENQRABD0EMARCBDgEMgQ9BEsENQAA +BDIEMARABDgEMAQ9BEIESwAA in 'DFLT' lookup 0 subtable" KaTa.Nnagari.ss02
EndChar

StartChar: KaTaRa.Nnagari
Encoding: 1114122 -1 98
Width: 837
VWidth: 1460
GlyphClass: 2
Flags: W
AnchorPoint: "+BBEENQQ3BEsEPARPBD0EPQQ+BDUA--1" 431 602 basechar 0
AnchorPoint: "+BBEENQQ3BEsEPARPBD0EPQQ+BDUA--0" 426 -161 basechar 0
LayerCount: 2
Fore
SplineSet
48 -58 m 1,0,-1
 48 10 l 1,1,-1
 390 10 l 1,2,-1
 390 102 l 1,3,-1
 48 102 l 1,4,-1
 48 170 l 1,5,-1
 390 170 l 1,6,-1
 390 263 l 1,7,8
 364 248 364 248 329 238.5 c 128,-1,9
 294 229 294 229 255 229 c 0,10,11
 170 229 170 229 125 263 c 128,-1,12
 80 297 80 297 80 364 c 0,13,14
 80 422 80 422 121.5 461.5 c 128,-1,15
 163 501 163 501 254 501 c 0,16,17
 291 501 291 501 326.5 490.5 c 128,-1,18
 362 480 362 480 390 465 c 1,19,-1
 390 558 l 1,20,-1
 -170 558 l 1,21,-1
 -170 622 l 1,22,-1
 464 622 l 1,23,-1
 464 393 l 1,24,-1
 509 416 l 2,25,26
 538 431 538 431 569.5 442 c 128,-1,27
 601 453 601 453 631 453 c 0,28,29
 686 453 686 453 714 424 c 128,-1,30
 742 395 742 395 742 345 c 2,31,-1
 742 220 l 1,32,-1
 664 220 l 1,33,-1
 664 339 l 2,34,35
 664 365 664 365 652 375.5 c 128,-1,36
 640 386 640 386 620 386 c 0,37,38
 601 386 601 386 578.5 376.5 c 128,-1,39
 556 367 556 367 533 355 c 2,40,-1
 464 320 l 1,41,-1
 464 -101 l 1,42,-1
 390 -101 l 1,43,-1
 390 -58 l 1,44,-1
 48 -58 l 1,0,-1
162 364 m 0,45,46
 162 295 162 295 256 295 c 0,47,48
 298 295 298 295 332 306 c 128,-1,49
 366 317 366 317 390 334 c 1,50,-1
 390 391 l 1,51,52
 363 409 363 409 329.5 421.5 c 128,-1,53
 296 434 296 434 259 434 c 0,54,55
 207 434 207 434 184.5 415 c 128,-1,56
 162 396 162 396 162 364 c 0,45,46
EndSplineSet
Substitution2: "'ss04' Style Set 4 in 'DFLT' lookup 99 subtable" KaTaRa.Nnagari.ss04
Substitution2: "'ss03' Style Set 3 in 'DFLT' lookup 90 subtable" KaTaRa.Nnagari.ss03
Substitution2: "'ss02' Style Set 2 in 'DFLT' lookup 65 subtable" KaTaRa.Nnagari.ss02
Substitution2: "'ss01' Style Set 1 in 'DFLT' lookup 51 subtable" KaTaRa.Nnagari.ss01
Ligature2: "'cjct' Conjunct Forms in 'DFLT' lookup 26 subtable" KaHalf.Nnagari TaHalf.Nnagari Ra.Nnagari
AlternateSubs2: "'aalt' +BBIEQQQ1 +BDAEOwRMBEIENQRABD0EMARCBDgEMgQ9BEsENQAA +BDIEMARABDgEMAQ9BEIESwAA in 'DFLT' lookup 1 subtable" KaTaRa.Nnagari.ss01 KaTaRa.Nnagari.ss02 KaTaRa.Nnagari.ss03 KaTaRa.Nnagari.ss04
EndChar

StartChar: KaTaVa.Nnagari
Encoding: 1114123 -1 99
Width: 845
VWidth: 1460
GlyphClass: 2
Flags: W
AnchorPoint: "+BBEENQQ3BEsEPARPBD0EPQQ+BDUA--1" 439 602 basechar 0
AnchorPoint: "+BBEENQQ3BEsEPARPBD0EPQQ+BDUA--0" 434 -209 basechar 0
LayerCount: 2
Fore
SplineSet
29 -209 m 1,0,-1
 29 -179 l 2,1,2
 29 -152 29 -152 34 -126 c 1,3,4
 21 -97 21 -97 21 -61 c 0,5,6
 21 10 21 10 71 52.5 c 128,-1,7
 121 95 121 95 220 95 c 0,8,9
 226 95 226 95 231 95 c 0,10,11
 266 108 266 108 308 115.5 c 128,-1,12
 350 123 350 123 398 125 c 1,13,-1
 398 263 l 1,14,15
 372 248 372 248 337 238.5 c 128,-1,16
 302 229 302 229 263 229 c 0,17,18
 178 229 178 229 133 263 c 128,-1,19
 88 297 88 297 88 364 c 0,20,21
 88 422 88 422 129.5 461.5 c 128,-1,22
 171 501 171 501 262 501 c 0,23,24
 299 501 299 501 334.5 490.5 c 128,-1,25
 370 480 370 480 398 465 c 1,26,-1
 398 558 l 1,27,-1
 -162 558 l 1,28,-1
 -162 622 l 1,29,-1
 472 622 l 1,30,-1
 472 393 l 1,31,-1
 517 416 l 2,32,33
 546 431 546 431 577.5 442 c 128,-1,34
 609 453 609 453 639 453 c 0,35,36
 694 453 694 453 722 424 c 128,-1,37
 750 395 750 395 750 345 c 2,38,-1
 750 220 l 1,39,-1
 672 220 l 1,40,-1
 672 339 l 2,41,42
 672 365 672 365 660 375.5 c 128,-1,43
 648 386 648 386 628 386 c 0,44,45
 609 386 609 386 586.5 376.5 c 128,-1,46
 564 367 564 367 541 355 c 2,47,-1
 472 320 l 1,48,-1
 472 125 l 1,49,-1
 475 125 l 1,50,-1
 475 51 l 1,51,-1
 472 51 l 1,52,-1
 472 -101 l 1,53,-1
 408 -101 l 1,54,-1
 434 -149 l 1,55,56
 417 -163 417 -163 389 -179 c 128,-1,57
 361 -195 361 -195 319 -206 c 128,-1,58
 277 -217 277 -217 217 -217 c 0,59,60
 152 -217 152 -217 107 -197 c 1,61,-1
 107 -209 l 1,62,-1
 29 -209 l 1,0,-1
170 364 m 0,63,64
 170 295 170 295 264 295 c 0,65,66
 306 295 306 295 340 306 c 128,-1,67
 374 317 374 317 398 334 c 1,68,-1
 398 391 l 1,69,70
 371 409 371 409 337.5 421.5 c 128,-1,71
 304 434 304 434 267 434 c 0,72,73
 215 434 215 434 192.5 415 c 128,-1,74
 170 396 170 396 170 364 c 0,63,64
393 51 m 1,75,76
 395 49 395 49 398 47 c 1,77,-1
 398 51 l 1,78,79
 396 51 396 51 393 51 c 1,75,76
229 -147 m 0,80,81
 293 -147 293 -147 330.5 -131.5 c 128,-1,82
 368 -116 368 -116 398 -94 c 1,83,-1
 398 -30 l 1,84,85
 375 -10 375 -10 341 5.5 c 128,-1,86
 307 21 307 21 255 24 c 1,87,88
 201 3 201 3 166.5 -32.5 c 128,-1,89
 132 -68 132 -68 118 -113 c 1,90,91
 132 -129 132 -129 159.5 -138 c 128,-1,92
 187 -147 187 -147 229 -147 c 0,80,81
EndSplineSet
Substitution2: "'ss02' Style Set 2 in 'DFLT' lookup 65 subtable" KaTaVa.Nnagari.ss02
Ligature2: "'cjct' Conjunct Forms in 'DFLT' lookup 26 subtable" KaHalf.Nnagari TaHalf.Nnagari Va.Nnagari
Substitution2: "'aalt' +BBIEQQQ1 +BDAEOwRMBEIENQRABD0EMARCBDgEMgQ9BEsENQAA +BDIEMARABDgEMAQ9BEIESwAA in 'DFLT' lookup 0 subtable" KaTaVa.Nnagari.ss02
EndChar

StartChar: KaNa.Nnagari
Encoding: 1114124 -1 100
Width: 837
VWidth: 1460
GlyphClass: 2
Flags: W
AnchorPoint: "+BBEENQQ3BEsEPARPBD0EPQQ+BDUA--1" 431 602 basechar 0
AnchorPoint: "+BBEENQQ3BEsEPARPBD0EPQQ+BDUA--0" 426 -101 basechar 0
LayerCount: 2
Fore
SplineSet
165 -92 m 0,0,1
 116 -92 116 -92 82 -63 c 128,-1,2
 48 -34 48 -34 48 14 c 0,3,4
 48 95 48 95 113 138 c 128,-1,5
 178 181 178 181 308 181 c 2,6,-1
 390 181 l 1,7,-1
 390 263 l 1,8,9
 364 248 364 248 329 238.5 c 128,-1,10
 294 229 294 229 255 229 c 0,11,12
 170 229 170 229 125 263 c 128,-1,13
 80 297 80 297 80 364 c 0,14,15
 80 422 80 422 121.5 461.5 c 128,-1,16
 163 501 163 501 254 501 c 0,17,18
 291 501 291 501 326.5 490.5 c 128,-1,19
 362 480 362 480 390 465 c 1,20,-1
 390 558 l 1,21,-1
 -170 558 l 1,22,-1
 -170 622 l 1,23,-1
 464 622 l 1,24,-1
 464 393 l 1,25,-1
 509 416 l 2,26,27
 538 431 538 431 569.5 442 c 128,-1,28
 601 453 601 453 631 453 c 0,29,30
 686 453 686 453 714 424 c 128,-1,31
 742 395 742 395 742 345 c 2,32,-1
 742 220 l 1,33,-1
 664 220 l 1,34,-1
 664 339 l 2,35,36
 664 365 664 365 652 375.5 c 128,-1,37
 640 386 640 386 620 386 c 0,38,39
 601 386 601 386 578.5 376.5 c 128,-1,40
 556 367 556 367 533 355 c 2,41,-1
 464 320 l 1,42,-1
 464 -101 l 1,43,-1
 390 -101 l 1,44,-1
 390 116 l 1,45,-1
 308 116 l 2,46,47
 258 116 258 116 224 109 c 1,48,49
 245 93 245 93 260 68 c 128,-1,50
 275 43 275 43 275 14 c 0,51,52
 275 -35 275 -35 245 -63.5 c 128,-1,53
 215 -92 215 -92 165 -92 c 0,0,1
162 364 m 0,54,55
 162 295 162 295 256 295 c 0,56,57
 298 295 298 295 332 306 c 128,-1,58
 366 317 366 317 390 334 c 1,59,-1
 390 391 l 1,60,61
 363 409 363 409 329.5 421.5 c 128,-1,62
 296 434 296 434 259 434 c 0,63,64
 207 434 207 434 184.5 415 c 128,-1,65
 162 396 162 396 162 364 c 0,54,55
120 17 m 0,66,67
 120 -5 120 -5 132.5 -16.5 c 128,-1,68
 145 -28 145 -28 164 -28 c 0,69,70
 182 -28 182 -28 193.5 -16 c 128,-1,71
 205 -4 205 -4 205 14 c 0,72,73
 205 35 205 35 192.5 53 c 128,-1,74
 180 71 180 71 160 83 c 1,75,76
 143 73 143 73 131.5 56.5 c 128,-1,77
 120 40 120 40 120 17 c 0,66,67
EndSplineSet
Substitution2: "'ss02' Style Set 2 in 'DFLT' lookup 65 subtable" KaNa.Nnagari.ss02
Ligature2: "'cjct' Conjunct Forms in 'DFLT' lookup 27 subtable" KaHalf.Nnagari Na.Nnagari
Substitution2: "'aalt' +BBIEQQQ1 +BDAEOwRMBEIENQRABD0EMARCBDgEMgQ9BEsENQAA +BDIEMARABDgEMAQ9BEIESwAA in 'DFLT' lookup 0 subtable" KaNa.Nnagari.ss02
EndChar

StartChar: KaMa.Nnagari
Encoding: 1114125 -1 101
Width: 1250
VWidth: 1460
GlyphClass: 2
Flags: W
AnchorPoint: "+BBEENQQ3BEsEPARPBD0EPQQ+BDUA--1" 1100 602 basechar 0
AnchorPoint: "+BBEENQQ3BEsEPARPBD0EPQQ+BDUA--0" 1096 0 basechar 0
LayerCount: 2
Fore
SplineSet
246 104 m 0,0,1
 161 104 161 104 111 149.5 c 128,-1,2
 61 195 61 195 61 279 c 0,3,4
 61 362 61 362 114 409 c 128,-1,5
 167 456 167 456 253 456 c 0,6,7
 300 456 300 456 332.5 445 c 128,-1,8
 365 434 365 434 385 419 c 1,9,-1
 385 558 l 1,10,-1
 40 558 l 1,11,-1
 40 622 l 1,12,-1
 1135 622 l 1,13,-1
 1135 0 l 1,14,-1
 1057 0 l 1,15,-1
 1057 274 l 1,16,-1
 980 274 l 2,17,18
 917 274 917 274 873 270 c 1,19,20
 924 222 924 222 924 153 c 0,21,22
 924 93 924 93 887.5 59 c 128,-1,23
 851 25 851 25 786 25 c 0,24,25
 725 25 725 25 685 62 c 128,-1,26
 645 99 645 99 645 162 c 0,27,28
 645 253 645 253 719 298 c 1,29,30
 683 310 683 310 629 310 c 0,31,32
 585 310 585 310 541 295.5 c 128,-1,33
 497 281 497 281 463 259 c 1,34,-1
 463 0 l 1,35,-1
 385 0 l 1,36,-1
 385 151 l 1,37,38
 360 131 360 131 326 117.5 c 128,-1,39
 292 104 292 104 246 104 c 0,0,1
624 380 m 0,40,41
 684 380 684 380 727.5 366.5 c 128,-1,42
 771 353 771 353 803 331 c 1,43,44
 869 346 869 346 964 346 c 2,45,-1
 1057 346 l 1,46,-1
 1057 558 l 1,47,-1
 463 558 l 1,48,-1
 463 344 l 1,49,50
 498 361 498 361 538.5 370.5 c 128,-1,51
 579 380 579 380 624 380 c 0,40,41
143 279 m 0,52,53
 143 231 143 231 171.5 203.5 c 128,-1,54
 200 176 200 176 256 176 c 0,55,56
 301 176 301 176 332 194.5 c 128,-1,57
 363 213 363 213 385 240 c 1,58,-1
 385 338 l 1,59,60
 360 360 360 360 335 372 c 128,-1,61
 310 384 310 384 263 384 c 0,62,63
 209 384 209 384 176 356.5 c 128,-1,64
 143 329 143 329 143 279 c 0,52,53
723 162 m 0,65,66
 723 132 723 132 740.5 113.5 c 128,-1,67
 758 95 758 95 786 95 c 0,68,69
 812 95 812 95 829 109 c 128,-1,70
 846 123 846 123 846 157 c 0,71,72
 846 186 846 186 832.5 211 c 128,-1,73
 819 236 819 236 796 255 c 1,74,75
 757 242 757 242 740 219.5 c 128,-1,76
 723 197 723 197 723 162 c 0,65,66
EndSplineSet
Ligature2: "'cjct' Conjunct Forms in 'DFLT' lookup 27 subtable" KaHalf.Nnagari Ma.Nnagari
EndChar

StartChar: KaRa.Nnagari
Encoding: 1114126 -1 102
Width: 837
VWidth: 1460
GlyphClass: 2
Flags: W
AnchorPoint: "+BBEENQQ3BEsEPARPBD0EPQQ+BDUA--1" 431 602 basechar 0
AnchorPoint: "+BBEENQQ3BEsEPARPBD0EPQQ+BDUA--0" 426 -101 basechar 0
LayerCount: 2
Fore
SplineSet
77 55 m 1,0,-1
 77 123 l 1,1,-1
 390 123 l 1,2,-1
 390 263 l 1,3,4
 364 248 364 248 329 238.5 c 128,-1,5
 294 229 294 229 255 229 c 0,6,7
 170 229 170 229 125 263 c 128,-1,8
 80 297 80 297 80 364 c 0,9,10
 80 422 80 422 121.5 461.5 c 128,-1,11
 163 501 163 501 254 501 c 0,12,13
 291 501 291 501 326.5 490.5 c 128,-1,14
 362 480 362 480 390 465 c 1,15,-1
 390 558 l 1,16,-1
 -170 558 l 1,17,-1
 -170 622 l 1,18,-1
 464 622 l 1,19,-1
 464 393 l 1,20,-1
 509 416 l 2,21,22
 538 431 538 431 569.5 442 c 128,-1,23
 601 453 601 453 631 453 c 0,24,25
 686 453 686 453 714 424 c 128,-1,26
 742 395 742 395 742 345 c 2,27,-1
 742 220 l 1,28,-1
 664 220 l 1,29,-1
 664 339 l 2,30,31
 664 365 664 365 652 375.5 c 128,-1,32
 640 386 640 386 620 386 c 0,33,34
 601 386 601 386 578.5 376.5 c 128,-1,35
 556 367 556 367 533 355 c 2,36,-1
 464 320 l 1,37,-1
 464 -101 l 1,38,-1
 390 -101 l 1,39,-1
 390 55 l 1,40,-1
 77 55 l 1,0,-1
162 364 m 0,41,42
 162 295 162 295 256 295 c 0,43,44
 298 295 298 295 332 306 c 128,-1,45
 366 317 366 317 390 334 c 1,46,-1
 390 391 l 1,47,48
 363 409 363 409 329.5 421.5 c 128,-1,49
 296 434 296 434 259 434 c 0,50,51
 207 434 207 434 184.5 415 c 128,-1,52
 162 396 162 396 162 364 c 0,41,42
EndSplineSet
Substitution2: "'ss04' Style Set 4 in 'DFLT' lookup 99 subtable" KaRa.Nnagari.ss04
Substitution2: "'ss03' Style Set 3 in 'DFLT' lookup 90 subtable" KaRa.Nnagari.ss03
Substitution2: "'ss02' Style Set 2 in 'DFLT' lookup 65 subtable" KaRa.Nnagari.ss02
Substitution2: "Single Substitution lookup 49 subtable" KaRaPost.Nnagari
Ligature2: "'cjct' Conjunct Forms in 'DFLT' lookup 27 subtable" KaHalf.Nnagari Ra.Nnagari
AlternateSubs2: "'aalt' +BBIEQQQ1 +BDAEOwRMBEIENQRABD0EMARCBDgEMgQ9BEsENQAA +BDIEMARABDgEMAQ9BEIESwAA in 'DFLT' lookup 1 subtable" KaRa.Nnagari.ss02 KaRa.Nnagari.ss03 KaRa.Nnagari.ss04 KaRaPost.Nnagari
EndChar

StartChar: KaLa.Nnagari
Encoding: 1114127 -1 103
Width: 899
VWidth: 1460
GlyphClass: 2
Flags: W
AnchorPoint: "+BBEENQQ3BEsEPARPBD0EPQQ+BDUA--1" 493 602 basechar 0
AnchorPoint: "+BBEENQQ3BEsEPARPBD0EPQQ+BDUA--0" 488 -101 basechar 0
LayerCount: 2
Fore
SplineSet
77 -101 m 1,0,1
 65 -83 65 -83 52.5 -49.5 c 128,-1,2
 40 -16 40 -16 40 26 c 0,3,4
 40 96 40 96 79.5 131 c 128,-1,5
 119 166 119 166 184 166 c 0,6,7
 223 166 223 166 251 150.5 c 128,-1,8
 279 135 279 135 296 109 c 1,9,10
 326 167 326 167 405 167 c 0,11,12
 432 167 432 167 452 159 c 1,13,-1
 452 263 l 1,14,15
 426 248 426 248 391 238.5 c 128,-1,16
 356 229 356 229 317 229 c 0,17,18
 232 229 232 229 187 263 c 128,-1,19
 142 297 142 297 142 364 c 0,20,21
 142 422 142 422 183.5 461.5 c 128,-1,22
 225 501 225 501 316 501 c 0,23,24
 353 501 353 501 388.5 490.5 c 128,-1,25
 424 480 424 480 452 465 c 1,26,-1
 452 558 l 1,27,-1
 -108 558 l 1,28,-1
 -108 622 l 1,29,-1
 526 622 l 1,30,-1
 526 393 l 1,31,-1
 571 416 l 2,32,33
 600 431 600 431 631.5 442 c 128,-1,34
 663 453 663 453 693 453 c 0,35,36
 748 453 748 453 776 424 c 128,-1,37
 804 395 804 395 804 345 c 2,38,-1
 804 220 l 1,39,-1
 726 220 l 1,40,-1
 726 339 l 2,41,42
 726 365 726 365 714 375.5 c 128,-1,43
 702 386 702 386 682 386 c 0,44,45
 663 386 663 386 640.5 376.5 c 128,-1,46
 618 367 618 367 595 355 c 2,47,-1
 526 320 l 1,48,-1
 526 -101 l 1,49,-1
 452 -101 l 1,50,-1
 452 94 l 1,51,52
 434 101 434 101 411 101 c 0,53,54
 378 101 378 101 356.5 83 c 128,-1,55
 335 65 335 65 333 25 c 2,56,-1
 331 -7 l 1,57,-1
 263 -7 l 1,58,-1
 261 25 l 2,59,60
 259 64 259 64 240.5 82 c 128,-1,61
 222 100 222 100 190 100 c 0,62,63
 156 100 156 100 136 80.5 c 128,-1,64
 116 61 116 61 116 24 c 0,65,66
 116 -15 116 -15 126.5 -44.5 c 128,-1,67
 137 -74 137 -74 153 -101 c 1,68,-1
 77 -101 l 1,0,1
224 364 m 0,69,70
 224 295 224 295 318 295 c 0,71,72
 360 295 360 295 394 306 c 128,-1,73
 428 317 428 317 452 334 c 1,74,-1
 452 391 l 1,75,76
 425 409 425 409 391.5 421.5 c 128,-1,77
 358 434 358 434 321 434 c 0,78,79
 269 434 269 434 246.5 415 c 128,-1,80
 224 396 224 396 224 364 c 0,69,70
EndSplineSet
Substitution2: "'ss04' Style Set 4 in 'DFLT' lookup 99 subtable" KaLa.Nnagari.ss04
Substitution2: "'ss02' Style Set 2 in 'DFLT' lookup 65 subtable" KaLa.Nnagari.ss02
Ligature2: "'cjct' Conjunct Forms in 'DFLT' lookup 27 subtable" KaHalf.Nnagari La.Nnagari
AlternateSubs2: "'aalt' +BBIEQQQ1 +BDAEOwRMBEIENQRABD0EMARCBDgEMgQ9BEsENQAA +BDIEMARABDgEMAQ9BEIESwAA in 'DFLT' lookup 1 subtable" KaLa.Nnagari.ss02 KaLa.Nnagari.ss04
EndChar

StartChar: KaVa.Nnagari
Encoding: 1114128 -1 104
Width: 837
VWidth: 1460
GlyphClass: 2
Flags: W
AnchorPoint: "+BBEENQQ3BEsEPARPBD0EPQQ+BDUA--1" 431 602 basechar 0
AnchorPoint: "+BBEENQQ3BEsEPARPBD0EPQQ+BDUA--0" 426 -125 basechar 0
LayerCount: 2
Fore
SplineSet
219 -100 m 0,0,1
 122 -100 122 -100 72.5 -57 c 128,-1,2
 23 -14 23 -14 23 56 c 0,3,4
 23 127 23 127 73 169.5 c 128,-1,5
 123 212 123 212 222 212 c 0,6,7
 281 212 281 212 321 200 c 128,-1,8
 361 188 361 188 390 171 c 1,9,-1
 390 273 l 1,10,11
 364 258 364 258 329 248.5 c 128,-1,12
 294 239 294 239 255 239 c 0,13,14
 170 239 170 239 125 273 c 128,-1,15
 80 307 80 307 80 374 c 0,16,17
 80 432 80 432 121.5 471.5 c 128,-1,18
 163 511 163 511 254 511 c 0,19,20
 291 511 291 511 326.5 500.5 c 128,-1,21
 362 490 362 490 390 475 c 1,22,-1
 390 558 l 1,23,-1
 -170 558 l 1,24,-1
 -170 622 l 1,25,-1
 464 622 l 1,26,-1
 464 403 l 1,27,-1
 509 426 l 2,28,29
 538 441 538 441 569.5 452 c 128,-1,30
 601 463 601 463 631 463 c 0,31,32
 686 463 686 463 714 434 c 128,-1,33
 742 405 742 405 742 355 c 2,34,-1
 742 230 l 1,35,-1
 664 230 l 1,36,-1
 664 349 l 2,37,38
 664 375 664 375 652 385.5 c 128,-1,39
 640 396 640 396 620 396 c 0,40,41
 601 396 601 396 578.5 386.5 c 128,-1,42
 556 377 556 377 533 365 c 2,43,-1
 464 330 l 1,44,-1
 464 -101 l 1,45,-1
 390 -101 l 1,46,-1
 390 -63 l 1,47,48
 362 -78 362 -78 320 -89 c 128,-1,49
 278 -100 278 -100 219 -100 c 0,0,1
162 374 m 0,50,51
 162 305 162 305 256 305 c 0,52,53
 298 305 298 305 332 316 c 128,-1,54
 366 327 366 327 390 344 c 1,55,-1
 390 401 l 1,56,57
 363 419 363 419 329.5 431.5 c 128,-1,58
 296 444 296 444 259 444 c 0,59,60
 207 444 207 444 184.5 425 c 128,-1,61
 162 406 162 406 162 374 c 0,50,51
101 56 m 0,62,63
 101 19 101 19 130.5 -5.5 c 128,-1,64
 160 -30 160 -30 231 -30 c 0,65,66
 290 -30 290 -30 326 -17 c 128,-1,67
 362 -4 362 -4 390 16 c 1,68,-1
 390 95 l 1,69,70
 365 114 365 114 327.5 128 c 128,-1,71
 290 142 290 142 234 142 c 0,72,73
 158 142 158 142 129.5 118.5 c 128,-1,74
 101 95 101 95 101 56 c 0,62,63
EndSplineSet
Substitution2: "'ss02' Style Set 2 in 'DFLT' lookup 65 subtable" KaVa.Nnagari.ss02
Ligature2: "'cjct' Conjunct Forms in 'DFLT' lookup 27 subtable" KaHalf.Nnagari Va.Nnagari
Substitution2: "'aalt' +BBIEQQQ1 +BDAEOwRMBEIENQRABD0EMARCBDgEMgQ9BEsENQAA +BDIEMARABDgEMAQ9BEIESwAA in 'DFLT' lookup 0 subtable" KaVa.Nnagari.ss02
EndChar

StartChar: KaSsa.Nnagari
Encoding: 1114129 -1 105
Width: 751
VWidth: 1460
GlyphClass: 2
Flags: W
AnchorPoint: "+BBEENQQ3BEsEPARPBD0EPQQ+BDUA--1" 324 602 basechar 0
AnchorPoint: "+BBEENQQ3BEsEPARPBD0EPQQ+BDUA--0" 617 0 basechar 0
LayerCount: 2
Fore
SplineSet
309 0 m 1,0,-1
 309 220 l 2,1,2
 309 270 309 270 289 290.5 c 128,-1,3
 269 311 269 311 219 311 c 2,4,-1
 44 311 l 1,5,-1
 44 388 l 1,6,7
 82 406 82 406 125 433.5 c 128,-1,8
 168 461 168 461 206 493 c 128,-1,9
 244 525 244 525 269 558 c 1,10,-1
 25 558 l 1,11,-1
 25 622 l 1,12,-1
 357 622 l 1,13,-1
 357 558 l 1,14,15
 329 508 329 508 279 460.5 c 128,-1,16
 229 413 229 413 171 379 c 1,17,-1
 220 379 l 2,18,19
 326 379 326 379 363 324 c 1,20,-1
 656 324 l 1,21,-1
 656 0 l 1,22,-1
 578 0 l 1,23,-1
 578 256 l 1,24,-1
 385 256 l 1,25,26
 387 240 387 240 387 220 c 2,27,-1
 387 0 l 1,28,-1
 309 0 l 1,0,-1
EndSplineSet
Ligature2: "'akhn' Akhand in 'DFLT' lookup 17 subtable" Ka.Nnagari Virama.Nnagari Ssa.Nnagari
EndChar

StartChar: KaSsaNna.Nnagari
Encoding: 1114130 -1 106
Width: 755
VWidth: 1460
GlyphClass: 2
Flags: W
AnchorPoint: "+BBEENQQ3BEsEPARPBD0EPQQ+BDUA--1" 328 602 basechar 0
AnchorPoint: "+BBEENQQ3BEsEPARPBD0EPQQ+BDUA--0" 621 -101 basechar 0
LayerCount: 2
Fore
SplineSet
25 -101 m 1,0,-1
 25 164 l 1,1,-1
 307 164 l 1,2,-1
 307 280 l 2,3,4
 307 324 307 324 287 340 c 128,-1,5
 267 356 267 356 224 356 c 2,6,-1
 58 356 l 1,7,-1
 58 431 l 1,8,9
 93 445 93 445 131 466.5 c 128,-1,10
 169 488 169 488 203.5 512 c 128,-1,11
 238 536 238 536 262 558 c 1,12,-1
 29 558 l 1,13,-1
 29 622 l 1,14,-1
 361 622 l 1,15,-1
 361 558 l 1,16,17
 348 541 348 541 321.5 517.5 c 128,-1,18
 295 494 295 494 260 469.5 c 128,-1,19
 225 445 225 445 186 424 c 1,20,-1
 229 424 l 2,21,22
 267 424 267 424 297 415.5 c 128,-1,23
 327 407 327 407 347 389 c 1,24,-1
 660 389 l 1,25,-1
 660 -101 l 1,26,-1
 582 -101 l 1,27,-1
 582 100 l 1,28,-1
 384 100 l 1,29,-1
 384 -101 l 1,30,-1
 306 -101 l 1,31,-1
 306 100 l 1,32,-1
 103 100 l 1,33,-1
 103 -101 l 1,34,-1
 25 -101 l 1,0,-1
385 285 m 2,35,-1
 385 164 l 1,36,-1
 582 164 l 1,37,-1
 582 321 l 1,38,-1
 382 321 l 1,39,40
 385 304 385 304 385 285 c 2,35,-1
EndSplineSet
Ligature2: "'akhn' Akhand in 'DFLT' lookup 17 subtable" Ka.Nnagari Virama.Nnagari Ssa.Nnagari Virama.Nnagari Nna.Nnagari
EndChar

StartChar: KaSsaMa.Nnagari
Encoding: 1114131 -1 107
Width: 1109
VWidth: 1460
GlyphClass: 2
Flags: W
AnchorPoint: "+BBEENQQ3BEsEPARPBD0EPQQ+BDUA--1" 961 602 basechar 0
AnchorPoint: "+BBEENQQ3BEsEPARPBD0EPQQ+BDUA--0" 955 0 basechar 0
LayerCount: 2
Fore
SplineSet
309 0 m 1,0,-1
 309 220 l 2,1,2
 309 270 309 270 289 290.5 c 128,-1,3
 269 311 269 311 219 311 c 2,4,-1
 44 311 l 1,5,-1
 44 388 l 1,6,7
 82 406 82 406 125 433.5 c 128,-1,8
 168 461 168 461 206 493 c 128,-1,9
 244 525 244 525 269 558 c 1,10,-1
 25 558 l 1,11,-1
 25 622 l 1,12,-1
 994 622 l 1,13,-1
 994 0 l 1,14,-1
 916 0 l 1,15,-1
 916 254 l 1,16,-1
 849 254 l 2,17,18
 786 254 786 254 742 250 c 1,19,20
 793 202 793 202 793 133 c 0,21,22
 793 73 793 73 756.5 39 c 128,-1,23
 720 5 720 5 655 5 c 0,24,25
 594 5 594 5 554 42 c 128,-1,26
 514 79 514 79 514 142 c 0,27,28
 514 233 514 233 588 278 c 1,29,30
 552 290 552 290 498 290 c 2,31,-1
 378 290 l 1,32,33
 387 261 387 261 387 220 c 2,34,-1
 387 0 l 1,35,-1
 309 0 l 1,0,-1
493 360 m 2,36,37
 553 360 553 360 596.5 346.5 c 128,-1,38
 640 333 640 333 672 311 c 1,39,40
 738 326 738 326 833 326 c 2,41,-1
 916 326 l 1,42,-1
 916 558 l 1,43,-1
 357 558 l 1,44,45
 329 508 329 508 279 460.5 c 128,-1,46
 229 413 229 413 171 379 c 1,47,-1
 220 379 l 2,48,49
 285 379 285 379 322 360 c 1,50,-1
 493 360 l 2,36,37
592 142 m 0,51,52
 592 112 592 112 609.5 93.5 c 128,-1,53
 627 75 627 75 655 75 c 0,54,55
 681 75 681 75 698 89 c 128,-1,56
 715 103 715 103 715 137 c 0,57,58
 715 166 715 166 701.5 191 c 128,-1,59
 688 216 688 216 665 235 c 1,60,61
 626 222 626 222 609 199.5 c 128,-1,62
 592 177 592 177 592 142 c 0,51,52
EndSplineSet
Ligature2: "'akhn' Akhand in 'DFLT' lookup 17 subtable" Ka.Nnagari Virama.Nnagari Ssa.Nnagari Virama.Nnagari Ma.Nnagari
EndChar

StartChar: KaSsaRa.Nnagari
Encoding: 1114132 -1 108
Width: 801
VWidth: 1460
GlyphClass: 2
Flags: W
AnchorPoint: "+BBEENQQ3BEsEPARPBD0EPQQ+BDUA--1" 324 602 basechar 0
AnchorPoint: "+BBEENQQ3BEsEPARPBD0EPQQ+BDUA--0" 667 0 basechar 0
LayerCount: 2
Fore
SplineSet
293 93 m 1,0,-1
 293 161 l 1,1,-1
 309 161 l 1,2,-1
 309 220 l 2,3,4
 309 270 309 270 289 290.5 c 128,-1,5
 269 311 269 311 219 311 c 2,6,-1
 44 311 l 1,7,-1
 44 388 l 1,8,9
 82 406 82 406 125 433.5 c 128,-1,10
 168 461 168 461 206 493 c 128,-1,11
 244 525 244 525 269 558 c 1,12,-1
 25 558 l 1,13,-1
 25 622 l 1,14,-1
 357 622 l 1,15,-1
 357 558 l 1,16,17
 329 508 329 508 279 460.5 c 128,-1,18
 229 413 229 413 171 379 c 1,19,-1
 220 379 l 2,20,21
 326 379 326 379 363 324 c 1,22,-1
 706 324 l 1,23,-1
 706 0 l 1,24,-1
 628 0 l 1,25,-1
 628 93 l 1,26,-1
 387 93 l 1,27,-1
 387 0 l 1,28,-1
 309 0 l 1,29,-1
 309 93 l 1,30,-1
 293 93 l 1,0,-1
387 220 m 2,31,-1
 387 161 l 1,32,-1
 628 161 l 1,33,-1
 628 256 l 1,34,-1
 385 256 l 1,35,36
 387 240 387 240 387 220 c 2,31,-1
EndSplineSet
Substitution2: "'ss03' Style Set 3 in 'DFLT' lookup 90 subtable" KaSsaRa.Nnagari.ss03
Ligature2: "'akhn' Akhand in 'DFLT' lookup 17 subtable" Ka.Nnagari Virama.Nnagari Ssa.Nnagari Virama.Nnagari Ra.Nnagari
Substitution2: "'aalt' +BBIEQQQ1 +BDAEOwRMBEIENQRABD0EMARCBDgEMgQ9BEsENQAA +BDIEMARABDgEMAQ9BEIESwAA in 'DFLT' lookup 0 subtable" KaSsaRa.Nnagari.ss03
EndChar

StartChar: KaSsaVa.Nnagari
Encoding: 1114133 -1 109
Width: 855
VWidth: 1460
GlyphClass: 2
Flags: W
AnchorPoint: "+BBEENQQ3BEsEPARPBD0EPQQ+BDUA--1" 324 602 basechar 0
AnchorPoint: "+BBEENQQ3BEsEPARPBD0EPQQ+BDUA--0" 721 -101 basechar 0
LayerCount: 2
Fore
SplineSet
309 -60 m 1,0,-1
 309 205 l 2,1,2
 309 251 309 251 289.5 271 c 128,-1,3
 270 291 270 291 226 291 c 2,4,-1
 54 291 l 1,5,-1
 54 366 l 1,6,7
 93 383 93 383 135.5 413.5 c 128,-1,8
 178 444 178 444 214.5 481.5 c 128,-1,9
 251 519 251 519 270 558 c 1,10,-1
 25 558 l 1,11,-1
 25 622 l 1,12,-1
 357 622 l 1,13,-1
 357 558 l 1,14,15
 338 503 338 503 290.5 448.5 c 128,-1,16
 243 394 243 394 183 359 c 1,17,-1
 231 359 l 2,18,19
 307 359 307 359 346 324 c 1,20,-1
 760 324 l 1,21,-1
 760 -101 l 1,22,-1
 682 -101 l 1,23,-1
 682 -49 l 1,24,25
 654 -64 654 -64 611 -76 c 128,-1,26
 568 -88 568 -88 507 -88 c 0,27,28
 430 -88 430 -88 382 -60 c 1,29,-1
 309 -60 l 1,0,-1
510 224 m 0,30,31
 571 224 571 224 612 211 c 128,-1,32
 653 198 653 198 682 180 c 1,33,-1
 682 256 l 1,34,-1
 383 256 l 1,35,36
 387 235 387 235 387 210 c 2,37,-1
 387 199 l 1,38,39
 436 224 436 224 510 224 c 0,30,31
389 68 m 0,40,41
 389 31 389 31 418.5 6.5 c 128,-1,42
 448 -18 448 -18 519 -18 c 0,43,44
 580 -18 580 -18 616.5 -4 c 128,-1,45
 653 10 653 10 682 31 c 1,46,-1
 682 104 l 1,47,48
 657 124 657 124 618.5 139 c 128,-1,49
 580 154 580 154 522 154 c 0,50,51
 446 154 446 154 417.5 130.5 c 128,-1,52
 389 107 389 107 389 68 c 0,40,41
EndSplineSet
Ligature2: "'akhn' Akhand in 'DFLT' lookup 17 subtable" Ka.Nnagari Virama.Nnagari Ssa.Nnagari Virama.Nnagari Va.Nnagari
EndChar

StartChar: KhaNa.Nnagari
Encoding: 1114134 -1 110
Width: 816
VWidth: 1460
GlyphClass: 2
Flags: W
LayerCount: 2
Fore
SplineSet
232 0 m 1,0,-1
 130 173 l 2,1,2
 104 217 104 217 85.5 239.5 c 128,-1,3
 67 262 67 262 47 275 c 1,4,-1
 47 346 l 1,5,-1
 56 347 l 2,6,7
 128 355 128 355 176 409 c 128,-1,8
 224 463 224 463 224 552 c 2,9,-1
 224 558 l 1,10,-1
 25 558 l 1,11,-1
 25 622 l 1,12,-1
 701 622 l 1,13,-1
 701 0 l 1,14,-1
 700 0 l 1,15,-1
 700 -101 l 1,16,-1
 626 -101 l 1,17,-1
 626 -35 l 1,18,-1
 554 -35 l 2,19,20
 504 -35 504 -35 470 -42 c 1,21,22
 491 -58 491 -58 506 -83 c 128,-1,23
 521 -108 521 -108 521 -137 c 0,24,25
 521 -186 521 -186 491 -214.5 c 128,-1,26
 461 -243 461 -243 411 -243 c 0,27,28
 362 -243 362 -243 328 -214 c 128,-1,29
 294 -185 294 -185 294 -137 c 0,30,31
 294 -56 294 -56 359 -13 c 128,-1,32
 424 30 424 30 554 30 c 2,33,-1
 623 30 l 1,34,-1
 623 283 l 1,35,36
 536 340 536 340 478 404.5 c 128,-1,37
 420 469 420 469 387 558 c 1,38,-1
 304 558 l 1,39,-1
 304 552 l 2,40,41
 304 452 304 452 255.5 387 c 128,-1,42
 207 322 207 322 128 297 c 1,43,44
 147 281 147 281 164 259 c 128,-1,45
 181 237 181 237 200 206 c 2,46,-1
 323 0 l 1,47,-1
 232 0 l 1,0,-1
472 558 m 1,48,49
 493 500 493 500 531 455.5 c 128,-1,50
 569 411 569 411 623 373 c 1,51,-1
 623 558 l 1,52,-1
 472 558 l 1,48,49
366 -134 m 0,53,54
 366 -156 366 -156 378.5 -167.5 c 128,-1,55
 391 -179 391 -179 410 -179 c 0,56,57
 428 -179 428 -179 439.5 -167 c 128,-1,58
 451 -155 451 -155 451 -137 c 0,59,60
 451 -116 451 -116 438.5 -98 c 128,-1,61
 426 -80 426 -80 406 -68 c 1,62,63
 389 -78 389 -78 377.5 -94.5 c 128,-1,64
 366 -111 366 -111 366 -134 c 0,53,54
EndSplineSet
Ligature2: "'cjct' Conjunct Forms in 'DFLT' lookup 27 subtable" KhaHalf.Nnagari Na.Nnagari
EndChar

StartChar: KhaRa.Nnagari
Encoding: 1114135 -1 111
Width: 831
VWidth: 1460
GlyphClass: 2
Flags: W
AnchorPoint: "+BBEENQQ3BEsEPARPBD0EPQQ+BDUA--1" 683 602 basechar 0
AnchorPoint: "+BBEENQQ3BEsEPARPBD0EPQQ+BDUA--0" 677 0 basechar 0
LayerCount: 2
Fore
SplineSet
247 0 m 1,0,-1
 145 173 l 2,1,2
 119 217 119 217 100.5 239.5 c 128,-1,3
 82 262 82 262 62 275 c 1,4,-1
 62 346 l 1,5,-1
 71 347 l 2,6,7
 143 355 143 355 191 409 c 128,-1,8
 239 463 239 463 239 552 c 2,9,-1
 239 558 l 1,10,-1
 40 558 l 1,11,-1
 40 622 l 1,12,-1
 716 622 l 1,13,-1
 716 0 l 1,14,-1
 638 0 l 1,15,-1
 638 110 l 1,16,-1
 345 110 l 1,17,-1
 345 178 l 1,18,-1
 638 178 l 1,19,-1
 638 283 l 1,20,21
 551 340 551 340 493 404.5 c 128,-1,22
 435 469 435 469 402 558 c 1,23,-1
 319 558 l 1,24,-1
 319 552 l 2,25,26
 319 452 319 452 270.5 387 c 128,-1,27
 222 322 222 322 143 297 c 1,28,29
 162 281 162 281 179 259 c 128,-1,30
 196 237 196 237 215 206 c 2,31,-1
 338 0 l 1,32,-1
 247 0 l 1,0,-1
487 558 m 1,33,34
 508 500 508 500 546 455.5 c 128,-1,35
 584 411 584 411 638 373 c 1,36,-1
 638 558 l 1,37,-1
 487 558 l 1,33,34
EndSplineSet
Substitution2: "'ss03' Style Set 3 in 'DFLT' lookup 90 subtable" KhaRa.Nnagari.ss03
Ligature2: "'cjct' Conjunct Forms in 'DFLT' lookup 27 subtable" KhaHalf.Nnagari Ra.Nnagari
Substitution2: "'aalt' +BBIEQQQ1 +BDAEOwRMBEIENQRABD0EMARCBDgEMgQ9BEsENQAA +BDIEMARABDgEMAQ9BEIESwAA in 'DFLT' lookup 0 subtable" KhaRa.Nnagari.ss03
EndChar

StartChar: KhaVa.Nnagari
Encoding: 1114136 -1 112
Width: 816
VWidth: 1460
GlyphClass: 2
Flags: W
AnchorPoint: "+BBEENQQ3BEsEPARPBD0EPQQ+BDUA--0" 662 -207 basechar 0
LayerCount: 2
Fore
SplineSet
232 0 m 1,0,-1
 130 173 l 2,1,2
 104 217 104 217 85.5 239.5 c 128,-1,3
 67 262 67 262 47 275 c 1,4,-1
 47 346 l 1,5,-1
 56 347 l 2,6,7
 128 355 128 355 176 409 c 128,-1,8
 224 463 224 463 224 552 c 2,9,-1
 224 558 l 1,10,-1
 25 558 l 1,11,-1
 25 622 l 1,12,-1
 701 622 l 1,13,-1
 701 0 l 1,14,-1
 700 0 l 1,15,-1
 700 -101 l 1,16,-1
 653 -101 l 1,17,-1
 666 -124 l 1,18,19
 649 -138 649 -138 621 -154 c 128,-1,20
 593 -170 593 -170 551 -181 c 128,-1,21
 509 -192 509 -192 449 -192 c 0,22,23
 352 -192 352 -192 302.5 -149 c 128,-1,24
 253 -106 253 -106 253 -36 c 0,25,26
 253 -17 253 -17 257 0 c 1,27,-1
 232 0 l 1,0,-1
200 206 m 2,28,-1
 286 61 l 1,29,30
 310 89 310 89 351.5 104.5 c 128,-1,31
 393 120 393 120 452 120 c 0,32,33
 512 120 512 120 553 107.5 c 128,-1,34
 594 95 594 95 623 77 c 1,35,-1
 623 283 l 1,36,37
 536 340 536 340 478 404.5 c 128,-1,38
 420 469 420 469 387 558 c 1,39,-1
 304 558 l 1,40,-1
 304 552 l 2,41,42
 304 452 304 452 255.5 387 c 128,-1,43
 207 322 207 322 128 297 c 1,44,45
 147 281 147 281 164 259 c 128,-1,46
 181 237 181 237 200 206 c 2,28,-1
472 558 m 1,47,48
 493 500 493 500 531 455.5 c 128,-1,49
 569 411 569 411 623 373 c 1,50,-1
 623 558 l 1,51,-1
 472 558 l 1,47,48
623 0 m 1,52,-1
 623 1 l 1,53,54
 598 21 598 21 560 35.5 c 128,-1,55
 522 50 522 50 464 50 c 0,56,57
 388 50 388 50 359.5 26.5 c 128,-1,58
 331 3 331 3 331 -36 c 0,59,60
 331 -73 331 -73 360.5 -97.5 c 128,-1,61
 390 -122 390 -122 461 -122 c 0,62,63
 523 -122 523 -122 560 -107.5 c 128,-1,64
 597 -93 597 -93 626 -72 c 1,65,-1
 626 -1 l 1,66,67
 625 -1 625 -1 624 0 c 2,68,-1
 623 0 l 1,52,-1
EndSplineSet
Ligature2: "'cjct' Conjunct Forms in 'DFLT' lookup 27 subtable" KhaHalf.Nnagari Va.Nnagari
EndChar

StartChar: GaDha.Nnagari
Encoding: 1114137 -1 113
Width: 1262
VWidth: 1460
GlyphClass: 2
Flags: W
AnchorPoint: "+BBEENQQ3BEsEPARPBD0EPQQ+BDUA--1" 990 602 basechar 0
AnchorPoint: "+BBEENQQ3BEsEPARPBD0EPQQ+BDUA--0" 1108 0 basechar 0
LayerCount: 2
Fore
SplineSet
209 236 m 0,0,1
 153 236 153 236 117 266 c 128,-1,2
 81 296 81 296 81 346 c 0,3,4
 81 398 81 398 121 432 c 128,-1,5
 161 466 161 466 256 470 c 1,6,7
 254 493 254 493 251.5 514.5 c 128,-1,8
 249 536 249 536 246 558 c 1,9,-1
 60 558 l 1,10,-1
 60 622 l 1,11,-1
 372 622 l 2,12,13
 423 622 423 622 465.5 615.5 c 128,-1,14
 508 609 508 609 537 595 c 1,15,16
 587 627 587 627 654 627 c 0,17,18
 715 627 715 627 761 600 c 128,-1,19
 807 573 807 573 829 526 c 1,20,21
 863 627 863 627 975 627 c 0,22,23
 1058 627 1058 627 1102.5 574.5 c 128,-1,24
 1147 522 1147 522 1147 423 c 2,25,-1
 1147 0 l 1,26,-1
 1069 0 l 1,27,-1
 1069 421 l 2,28,29
 1069 486 1069 486 1043.5 520.5 c 128,-1,30
 1018 555 1018 555 970 555 c 256,31,32
 922 555 922 555 898.5 519 c 128,-1,33
 875 483 875 483 872 415 c 2,34,-1
 870 365 l 1,35,-1
 792 365 l 1,36,-1
 790 405 l 2,37,38
 787 470 787 470 752.5 512.5 c 128,-1,39
 718 555 718 555 651 555 c 0,40,41
 633 555 633 555 616 551 c 1,42,43
 653 534 653 534 678 500 c 128,-1,44
 703 466 703 466 703 413 c 0,45,46
 703 356 703 356 670 325.5 c 128,-1,47
 637 295 637 295 582 295 c 256,48,49
 527 295 527 295 491 329.5 c 128,-1,50
 455 364 455 364 455 435 c 0,51,52
 455 468 455 468 463.5 496.5 c 128,-1,53
 472 525 472 525 487 547 c 1,54,55
 461 554 461 554 434 556 c 128,-1,56
 407 558 407 558 379 558 c 2,57,-1
 319 558 l 1,58,59
 325 511 325 511 329 463 c 128,-1,60
 333 415 333 415 333 370 c 0,61,62
 333 300 333 300 300 268 c 128,-1,63
 267 236 267 236 209 236 c 0,0,1
531 437 m 0,64,65
 531 398 531 398 547 381.5 c 128,-1,66
 563 365 563 365 582 365 c 0,67,68
 627 365 627 365 627 415 c 0,69,70
 627 454 627 454 604 480.5 c 128,-1,71
 581 507 581 507 555 514 c 1,72,73
 531 482 531 482 531 437 c 0,64,65
154 347 m 0,74,75
 154 325 154 325 168.5 311.5 c 128,-1,76
 183 298 183 298 208 298 c 0,77,78
 232 298 232 298 246 314 c 128,-1,79
 260 330 260 330 260 370 c 0,80,81
 260 388 260 388 259 406 c 1,82,83
 200 404 200 404 177 388 c 128,-1,84
 154 372 154 372 154 347 c 0,74,75
EndSplineSet
Substitution2: "'ss02' Style Set 2 in 'DFLT' lookup 65 subtable" GaDha.Nnagari.ss02
Ligature2: "'cjct' Conjunct Forms in 'DFLT' lookup 27 subtable" GaHalf.Nnagari Dha.Nnagari
Substitution2: "'aalt' +BBIEQQQ1 +BDAEOwRMBEIENQRABD0EMARCBDgEMgQ9BEsENQAA +BDIEMARABDgEMAQ9BEIESwAA in 'DFLT' lookup 0 subtable" GaDha.Nnagari.ss02
EndChar

StartChar: GaDhaRa.Nnagari
Encoding: 1114138 -1 114
Width: 1262
VWidth: 1460
GlyphClass: 2
Flags: W
AnchorPoint: "+BBEENQQ3BEsEPARPBD0EPQQ+BDUA--1" 990 602 basechar 0
AnchorPoint: "+BBEENQQ3BEsEPARPBD0EPQQ+BDUA--0" 1108 0 basechar 0
LayerCount: 2
Fore
SplineSet
209 236 m 0,0,1
 153 236 153 236 117 266 c 128,-1,2
 81 296 81 296 81 346 c 0,3,4
 81 398 81 398 121 432 c 128,-1,5
 161 466 161 466 256 470 c 1,6,7
 254 493 254 493 251.5 514.5 c 128,-1,8
 249 536 249 536 246 558 c 1,9,-1
 60 558 l 1,10,-1
 60 622 l 1,11,-1
 372 622 l 2,12,13
 423 622 423 622 465.5 615.5 c 128,-1,14
 508 609 508 609 537 595 c 1,15,16
 587 627 587 627 654 627 c 0,17,18
 715 627 715 627 761 600 c 128,-1,19
 807 573 807 573 829 526 c 1,20,21
 863 627 863 627 975 627 c 0,22,23
 1058 627 1058 627 1102.5 574.5 c 128,-1,24
 1147 522 1147 522 1147 423 c 2,25,-1
 1147 0 l 1,26,-1
 1069 0 l 1,27,-1
 1069 136 l 1,28,-1
 721 136 l 1,29,-1
 721 204 l 1,30,-1
 1069 204 l 1,31,-1
 1069 421 l 2,32,33
 1069 486 1069 486 1043.5 520.5 c 128,-1,34
 1018 555 1018 555 970 555 c 256,35,36
 922 555 922 555 898.5 519 c 128,-1,37
 875 483 875 483 872 415 c 2,38,-1
 870 365 l 1,39,-1
 792 365 l 1,40,-1
 790 405 l 2,41,42
 787 470 787 470 752.5 512.5 c 128,-1,43
 718 555 718 555 651 555 c 0,44,45
 633 555 633 555 616 551 c 1,46,47
 653 534 653 534 678 500 c 128,-1,48
 703 466 703 466 703 413 c 0,49,50
 703 356 703 356 670 325.5 c 128,-1,51
 637 295 637 295 582 295 c 256,52,53
 527 295 527 295 491 329.5 c 128,-1,54
 455 364 455 364 455 435 c 0,55,56
 455 468 455 468 463.5 496.5 c 128,-1,57
 472 525 472 525 487 547 c 1,58,59
 461 554 461 554 434 556 c 128,-1,60
 407 558 407 558 379 558 c 2,61,-1
 319 558 l 1,62,63
 325 511 325 511 329 463 c 128,-1,64
 333 415 333 415 333 370 c 0,65,66
 333 300 333 300 300 268 c 128,-1,67
 267 236 267 236 209 236 c 0,0,1
531 437 m 0,68,69
 531 398 531 398 547 381.5 c 128,-1,70
 563 365 563 365 582 365 c 0,71,72
 627 365 627 365 627 415 c 0,73,74
 627 454 627 454 604 480.5 c 128,-1,75
 581 507 581 507 555 514 c 1,76,77
 531 482 531 482 531 437 c 0,68,69
154 347 m 0,78,79
 154 325 154 325 168.5 311.5 c 128,-1,80
 183 298 183 298 208 298 c 0,81,82
 232 298 232 298 246 314 c 128,-1,83
 260 330 260 330 260 370 c 0,84,85
 260 388 260 388 259 406 c 1,86,87
 200 404 200 404 177 388 c 128,-1,88
 154 372 154 372 154 347 c 0,78,79
EndSplineSet
Substitution2: "'ss03' Style Set 3 in 'DFLT' lookup 90 subtable" GaDhaRa.Nnagari.ss03
Substitution2: "'ss02' Style Set 2 in 'DFLT' lookup 65 subtable" GaDhaRa.Nnagari.ss02
Ligature2: "'cjct' Conjunct Forms in 'DFLT' lookup 26 subtable" GaHalf.Nnagari DhaHalf.Nnagari Ra.Nnagari
AlternateSubs2: "'aalt' +BBIEQQQ1 +BDAEOwRMBEIENQRABD0EMARCBDgEMgQ9BEsENQAA +BDIEMARABDgEMAQ9BEIESwAA in 'DFLT' lookup 1 subtable" GaDhaRa.Nnagari.ss02 GaDhaRa.Nnagari.ss03
EndChar

StartChar: GaDhaVa.Nnagari
Encoding: 1114139 -1 115
Width: 1262
VWidth: 1460
GlyphClass: 2
Flags: W
AnchorPoint: "+BBEENQQ3BEsEPARPBD0EPQQ+BDUA--1" 990 602 basechar 0
AnchorPoint: "+BBEENQQ3BEsEPARPBD0EPQQ+BDUA--0" 1108 0 basechar 0
LayerCount: 2
Fore
SplineSet
209 236 m 0,0,1
 153 236 153 236 117 266 c 128,-1,2
 81 296 81 296 81 346 c 0,3,4
 81 398 81 398 121 432 c 128,-1,5
 161 466 161 466 256 470 c 1,6,7
 254 493 254 493 251.5 514.5 c 128,-1,8
 249 536 249 536 246 558 c 1,9,-1
 60 558 l 1,10,-1
 60 622 l 1,11,-1
 372 622 l 2,12,13
 423 622 423 622 465.5 615.5 c 128,-1,14
 508 609 508 609 537 595 c 1,15,16
 587 627 587 627 654 627 c 0,17,18
 715 627 715 627 761 600 c 128,-1,19
 807 573 807 573 829 526 c 1,20,21
 863 627 863 627 975 627 c 0,22,23
 1058 627 1058 627 1102.5 574.5 c 128,-1,24
 1147 522 1147 522 1147 423 c 2,25,-1
 1147 0 l 1,26,-1
 1069 0 l 1,27,-1
 1069 42 l 1,28,29
 1041 27 1041 27 999.5 16 c 128,-1,30
 958 5 958 5 899 5 c 0,31,32
 802 5 802 5 752.5 48 c 128,-1,33
 703 91 703 91 703 161 c 0,34,35
 703 232 703 232 753 274.5 c 128,-1,36
 803 317 803 317 902 317 c 0,37,38
 960 317 960 317 1000 305 c 128,-1,39
 1040 293 1040 293 1069 276 c 1,40,-1
 1069 421 l 2,41,42
 1069 486 1069 486 1043.5 520.5 c 128,-1,43
 1018 555 1018 555 970 555 c 256,44,45
 922 555 922 555 898.5 519 c 128,-1,46
 875 483 875 483 872 415 c 2,47,-1
 870 365 l 1,48,-1
 792 365 l 1,49,-1
 790 405 l 2,50,51
 787 470 787 470 752.5 512.5 c 128,-1,52
 718 555 718 555 651 555 c 0,53,54
 633 555 633 555 616 551 c 1,55,56
 653 534 653 534 678 500 c 128,-1,57
 703 466 703 466 703 413 c 0,58,59
 703 356 703 356 670 325.5 c 128,-1,60
 637 295 637 295 582 295 c 256,61,62
 527 295 527 295 491 329.5 c 128,-1,63
 455 364 455 364 455 435 c 0,64,65
 455 468 455 468 463.5 496.5 c 128,-1,66
 472 525 472 525 487 547 c 1,67,68
 461 554 461 554 434 556 c 128,-1,69
 407 558 407 558 379 558 c 2,70,-1
 319 558 l 1,71,72
 325 511 325 511 329 463 c 128,-1,73
 333 415 333 415 333 370 c 0,74,75
 333 300 333 300 300 268 c 128,-1,76
 267 236 267 236 209 236 c 0,0,1
531 437 m 0,77,78
 531 398 531 398 547 381.5 c 128,-1,79
 563 365 563 365 582 365 c 0,80,81
 627 365 627 365 627 415 c 0,82,83
 627 454 627 454 604 480.5 c 128,-1,84
 581 507 581 507 555 514 c 1,85,86
 531 482 531 482 531 437 c 0,77,78
154 347 m 0,87,88
 154 325 154 325 168.5 311.5 c 128,-1,89
 183 298 183 298 208 298 c 0,90,91
 232 298 232 298 246 314 c 128,-1,92
 260 330 260 330 260 370 c 0,93,94
 260 388 260 388 259 406 c 1,95,96
 200 404 200 404 177 388 c 128,-1,97
 154 372 154 372 154 347 c 0,87,88
781 161 m 0,98,99
 781 124 781 124 810.5 99.5 c 128,-1,100
 840 75 840 75 911 75 c 0,101,102
 969 75 969 75 1005 88 c 128,-1,103
 1041 101 1041 101 1069 120 c 1,104,-1
 1069 201 l 1,105,106
 1044 220 1044 220 1007 233.5 c 128,-1,107
 970 247 970 247 914 247 c 0,108,109
 838 247 838 247 809.5 223.5 c 128,-1,110
 781 200 781 200 781 161 c 0,98,99
EndSplineSet
Substitution2: "'ss02' Style Set 2 in 'DFLT' lookup 65 subtable" GaDhaVa.Nnagari.ss02
Ligature2: "'cjct' Conjunct Forms in 'DFLT' lookup 26 subtable" GaHalf.Nnagari DhaHalf.Nnagari Va.Nnagari
Substitution2: "'aalt' +BBIEQQQ1 +BDAEOwRMBEIENQRABD0EMARCBDgEMgQ9BEsENQAA +BDIEMARABDgEMAQ9BEIESwAA in 'DFLT' lookup 0 subtable" GaDhaVa.Nnagari.ss02
EndChar

StartChar: GaNa.Nnagari
Encoding: 1114140 -1 116
Width: 699
VWidth: 1460
GlyphClass: 2
Flags: W
AnchorPoint: "+BBEENQQ3BEsEPARPBD0EPQQ+BDUA--1" 550 602 basechar 0
AnchorPoint: "+BBEENQQ3BEsEPARPBD0EPQQ+BDUA--0" 546 -101 basechar 0
LayerCount: 2
Fore
SplineSet
213 152 m 0,0,1
 152 152 152 152 109.5 189 c 128,-1,2
 67 226 67 226 67 290 c 0,3,4
 67 330 67 330 88 364.5 c 128,-1,5
 109 399 109 399 154.5 422 c 128,-1,6
 200 445 200 445 274 450 c 1,7,8
 271 478 271 478 267.5 505 c 128,-1,9
 264 532 264 532 260 558 c 1,10,-1
 60 558 l 1,11,-1
 60 622 l 1,12,-1
 583 622 l 1,13,-1
 583 -101 l 1,14,-1
 509 -101 l 1,15,-1
 509 -25 l 1,16,-1
 394 -25 l 2,17,18
 344 -25 344 -25 310 -32 c 1,19,20
 331 -48 331 -48 346 -73 c 128,-1,21
 361 -98 361 -98 361 -127 c 0,22,23
 361 -176 361 -176 331 -204.5 c 128,-1,24
 301 -233 301 -233 251 -233 c 0,25,26
 202 -233 202 -233 168 -204 c 128,-1,27
 134 -175 134 -175 134 -127 c 0,28,29
 134 -46 134 -46 199 -3 c 128,-1,30
 264 40 264 40 394 40 c 2,31,-1
 509 40 l 1,32,-1
 509 558 l 1,33,-1
 339 558 l 1,34,35
 347 501 347 501 352.5 441.5 c 128,-1,36
 358 382 358 382 358 322 c 0,37,38
 358 234 358 234 320 193 c 128,-1,39
 282 152 282 152 213 152 c 0,0,1
145 290 m 0,40,41
 145 259 145 259 164.5 240.5 c 128,-1,42
 184 222 184 222 212 222 c 0,43,44
 247 222 247 222 263.5 246 c 128,-1,45
 280 270 280 270 280 322 c 0,46,47
 280 350 280 350 279 379 c 1,48,49
 202 373 202 373 173.5 347.5 c 128,-1,50
 145 322 145 322 145 290 c 0,40,41
206 -124 m 0,51,52
 206 -146 206 -146 218.5 -157.5 c 128,-1,53
 231 -169 231 -169 250 -169 c 0,54,55
 268 -169 268 -169 279.5 -157 c 128,-1,56
 291 -145 291 -145 291 -127 c 0,57,58
 291 -106 291 -106 278.5 -88 c 128,-1,59
 266 -70 266 -70 246 -58 c 1,60,61
 229 -68 229 -68 217.5 -84.5 c 128,-1,62
 206 -101 206 -101 206 -124 c 0,51,52
EndSplineSet
Ligature2: "'cjct' Conjunct Forms in 'DFLT' lookup 27 subtable" GaHalf.Nnagari Na.Nnagari
EndChar

StartChar: GaBa.Nnagari
Encoding: 1114141 -1 117
Width: 699
VWidth: 1460
GlyphClass: 2
Flags: W
AnchorPoint: "+BBEENQQ3BEsEPARPBD0EPQQ+BDUA--1" 550 602 basechar 0
AnchorPoint: "+BBEENQQ3BEsEPARPBD0EPQQ+BDUA--0" 546 -101 basechar 0
LayerCount: 2
Fore
SplineSet
213 152 m 0,0,1
 152 152 152 152 109.5 189 c 128,-1,2
 67 226 67 226 67 290 c 0,3,4
 67 330 67 330 88 364.5 c 128,-1,5
 109 399 109 399 154.5 422 c 128,-1,6
 200 445 200 445 274 450 c 1,7,8
 271 478 271 478 267.5 505 c 128,-1,9
 264 532 264 532 260 558 c 1,10,-1
 60 558 l 1,11,-1
 60 622 l 1,12,-1
 583 622 l 1,13,-1
 583 -101 l 1,14,-1
 540 -101 l 1,15,-1
 559 -142 l 1,16,17
 541 -156 541 -156 512 -172.5 c 128,-1,18
 483 -189 483 -189 439.5 -200.5 c 128,-1,19
 396 -212 396 -212 331 -212 c 0,20,21
 222 -212 222 -212 167.5 -165 c 128,-1,22
 113 -118 113 -118 113 -48 c 0,23,24
 113 23 113 23 167 69.5 c 128,-1,25
 221 116 221 116 331 116 c 0,26,27
 396 116 396 116 439 104 c 128,-1,28
 482 92 482 92 509 76 c 1,29,-1
 509 558 l 1,30,-1
 339 558 l 1,31,32
 347 501 347 501 352.5 441.5 c 128,-1,33
 358 382 358 382 358 322 c 0,34,35
 358 234 358 234 320 193 c 128,-1,36
 282 152 282 152 213 152 c 0,0,1
145 290 m 0,37,38
 145 259 145 259 164.5 240.5 c 128,-1,39
 184 222 184 222 212 222 c 0,40,41
 247 222 247 222 263.5 246 c 128,-1,42
 280 270 280 270 280 322 c 0,43,44
 280 350 280 350 279 379 c 1,45,46
 202 373 202 373 173.5 347.5 c 128,-1,47
 145 322 145 322 145 290 c 0,37,38
509 -101 m 1,48,-1
 509 8 l 1,49,50
 480 24 480 24 439.5 36 c 128,-1,51
 399 48 399 48 343 48 c 0,52,53
 322 48 322 48 305 46 c 1,54,-1
 475 -120 l 1,55,56
 495 -112 495 -112 514 -101 c 1,57,-1
 509 -101 l 1,48,-1
191 -48 m 0,58,59
 191 -93 191 -93 224.5 -118.5 c 128,-1,60
 258 -144 258 -144 343 -144 c 0,61,62
 375 -144 375 -144 404 -139 c 1,63,-1
 234 28 l 1,64,65
 211 16 211 16 201 -3.5 c 128,-1,66
 191 -23 191 -23 191 -48 c 0,58,59
EndSplineSet
Substitution2: "'ss03' Style Set 3 in 'DFLT' lookup 90 subtable" GaBa.Nnagari.ss03
Ligature2: "'cjct' Conjunct Forms in 'DFLT' lookup 27 subtable" GaHalf.Nnagari Ba.Nnagari
Substitution2: "'aalt' +BBIEQQQ1 +BDAEOwRMBEIENQRABD0EMARCBDgEMgQ9BEsENQAA +BDIEMARABDgEMAQ9BEIESwAA in 'DFLT' lookup 0 subtable" GaBa.Nnagari.ss03
EndChar

StartChar: GaBaRa.Nnagari
Encoding: 1114142 -1 118
Width: 699
VWidth: 1460
GlyphClass: 2
Flags: W
AnchorPoint: "+BBEENQQ3BEsEPARPBD0EPQQ+BDUA--1" 550 602 basechar 0
AnchorPoint: "+BBEENQQ3BEsEPARPBD0EPQQ+BDUA--0" 546 -101 basechar 0
LayerCount: 2
Fore
SplineSet
213 152 m 0,0,1
 152 152 152 152 109.5 189 c 128,-1,2
 67 226 67 226 67 290 c 0,3,4
 67 330 67 330 88 364.5 c 128,-1,5
 109 399 109 399 154.5 422 c 128,-1,6
 200 445 200 445 274 450 c 1,7,8
 271 478 271 478 267.5 505 c 128,-1,9
 264 532 264 532 260 558 c 1,10,-1
 60 558 l 1,11,-1
 60 622 l 1,12,-1
 583 622 l 1,13,-1
 583 -101 l 1,14,-1
 537 -101 l 1,15,-1
 546 -120 l 1,16,17
 528 -134 528 -134 499 -150.5 c 128,-1,18
 470 -167 470 -167 426.5 -178.5 c 128,-1,19
 383 -190 383 -190 318 -190 c 0,20,21
 209 -190 209 -190 154.5 -143 c 128,-1,22
 100 -96 100 -96 100 -26 c 0,23,24
 100 45 100 45 154.5 91.5 c 128,-1,25
 209 138 209 138 318 138 c 0,26,27
 391 138 391 138 436.5 123 c 128,-1,28
 482 108 482 108 509 91 c 1,29,-1
 509 558 l 1,30,-1
 339 558 l 1,31,32
 347 501 347 501 352.5 441.5 c 128,-1,33
 358 382 358 382 358 322 c 0,34,35
 358 234 358 234 320 193 c 128,-1,36
 282 152 282 152 213 152 c 0,0,1
145 290 m 0,37,38
 145 259 145 259 164.5 240.5 c 128,-1,39
 184 222 184 222 212 222 c 0,40,41
 247 222 247 222 263.5 246 c 128,-1,42
 280 270 280 270 280 322 c 0,43,44
 280 350 280 350 279 379 c 1,45,46
 202 373 202 373 173.5 347.5 c 128,-1,47
 145 322 145 322 145 290 c 0,37,38
330 70 m 0,48,49
 309 70 309 70 292 68 c 1,50,-1
 462 -98 l 1,51,52
 486 -88 486 -88 509 -74 c 1,53,-1
 509 22 l 1,54,55
 479 40 479 40 436 55 c 128,-1,56
 393 70 393 70 330 70 c 0,48,49
178 -26 m 0,57,58
 178 -71 178 -71 211.5 -96.5 c 128,-1,59
 245 -122 245 -122 330 -122 c 0,60,61
 362 -122 362 -122 391 -117 c 1,62,-1
 221 50 l 1,63,64
 198 38 198 38 188 18.5 c 128,-1,65
 178 -1 178 -1 178 -26 c 0,57,58
163 -295 m 1,66,-1
 163 -227 l 1,67,-1
 516 -227 l 1,68,-1
 516 -295 l 1,69,-1
 163 -295 l 1,66,-1
EndSplineSet
Substitution2: "'ss03' Style Set 3 in 'DFLT' lookup 90 subtable" GaBaRa.Nnagari.ss03
Ligature2: "'cjct' Conjunct Forms in 'DFLT' lookup 26 subtable" GaHalf.Nnagari BaHalf.Nnagari Ra.Nnagari
Substitution2: "'aalt' +BBIEQQQ1 +BDAEOwRMBEIENQRABD0EMARCBDgEMgQ9BEsENQAA +BDIEMARABDgEMAQ9BEIESwAA in 'DFLT' lookup 0 subtable" GaBaRa.Nnagari.ss03
EndChar

StartChar: GaBha.Nnagari
Encoding: 1114143 -1 119
Width: 699
VWidth: 1460
GlyphClass: 2
Flags: W
AnchorPoint: "+BBEENQQ3BEsEPARPBD0EPQQ+BDUA--1" 550 602 basechar 0
AnchorPoint: "+BBEENQQ3BEsEPARPBD0EPQQ+BDUA--0" 546 -101 basechar 0
LayerCount: 2
Fore
SplineSet
90 -243 m 1,0,-1
 90 36 l 1,1,-1
 509 36 l 1,2,-1
 509 558 l 1,3,-1
 339 558 l 1,4,5
 347 501 347 501 352.5 441.5 c 128,-1,6
 358 382 358 382 358 322 c 0,7,8
 358 234 358 234 320 193 c 128,-1,9
 282 152 282 152 213 152 c 0,10,11
 152 152 152 152 109.5 189 c 128,-1,12
 67 226 67 226 67 290 c 0,13,14
 67 330 67 330 88 364.5 c 128,-1,15
 109 399 109 399 154.5 422 c 128,-1,16
 200 445 200 445 274 450 c 1,17,18
 271 478 271 478 267.5 505 c 128,-1,19
 264 532 264 532 260 558 c 1,20,-1
 60 558 l 1,21,-1
 60 622 l 1,22,-1
 583 622 l 1,23,-1
 583 -101 l 1,24,-1
 509 -101 l 1,25,-1
 509 -34 l 1,26,-1
 168 -34 l 1,27,-1
 168 -243 l 1,28,-1
 90 -243 l 1,0,-1
145 290 m 0,29,30
 145 259 145 259 164.5 240.5 c 128,-1,31
 184 222 184 222 212 222 c 0,32,33
 247 222 247 222 263.5 246 c 128,-1,34
 280 270 280 270 280 322 c 0,35,36
 280 350 280 350 279 379 c 1,37,38
 202 373 202 373 173.5 347.5 c 128,-1,39
 145 322 145 322 145 290 c 0,29,30
EndSplineSet
Ligature2: "'cjct' Conjunct Forms in 'DFLT' lookup 27 subtable" GaHalf.Nnagari Bha.Nnagari
EndChar

StartChar: GaBhaRa.Nnagari
Encoding: 1114144 -1 120
Width: 699
VWidth: 1460
GlyphClass: 2
Flags: W
AnchorPoint: "+BBEENQQ3BEsEPARPBD0EPQQ+BDUA--1" 550 602 basechar 0
AnchorPoint: "+BBEENQQ3BEsEPARPBD0EPQQ+BDUA--0" 546 -101 basechar 0
LayerCount: 2
Fore
SplineSet
87 -173 m 1,0,-1
 87 106 l 1,1,-1
 509 106 l 1,2,-1
 509 558 l 1,3,-1
 339 558 l 1,4,5
 347 501 347 501 352.5 441.5 c 128,-1,6
 358 382 358 382 358 322 c 0,7,8
 358 234 358 234 320 193 c 128,-1,9
 282 152 282 152 213 152 c 0,10,11
 152 152 152 152 109.5 189 c 128,-1,12
 67 226 67 226 67 290 c 0,13,14
 67 330 67 330 88 364.5 c 128,-1,15
 109 399 109 399 154.5 422 c 128,-1,16
 200 445 200 445 274 450 c 1,17,18
 271 478 271 478 267.5 505 c 128,-1,19
 264 532 264 532 260 558 c 1,20,-1
 60 558 l 1,21,-1
 60 622 l 1,22,-1
 583 622 l 1,23,-1
 583 -101 l 1,24,-1
 553 -101 l 1,25,-1
 553 -153 l 1,26,-1
 200 -153 l 1,27,-1
 200 -85 l 1,28,-1
 509 -85 l 1,29,-1
 509 36 l 1,30,-1
 165 36 l 1,31,-1
 165 -173 l 1,32,-1
 87 -173 l 1,0,-1
145 290 m 0,33,34
 145 259 145 259 164.5 240.5 c 128,-1,35
 184 222 184 222 212 222 c 0,36,37
 247 222 247 222 263.5 246 c 128,-1,38
 280 270 280 270 280 322 c 0,39,40
 280 350 280 350 279 379 c 1,41,42
 202 373 202 373 173.5 347.5 c 128,-1,43
 145 322 145 322 145 290 c 0,33,34
EndSplineSet
Substitution2: "'ss03' Style Set 3 in 'DFLT' lookup 90 subtable" GaBhaRa.Nnagari.ss03
Ligature2: "'cjct' Conjunct Forms in 'DFLT' lookup 26 subtable" GaHalf.Nnagari BhaHalf.Nnagari Ra.Nnagari
Substitution2: "'aalt' +BBIEQQQ1 +BDAEOwRMBEIENQRABD0EMARCBDgEMgQ9BEsENQAA +BDIEMARABDgEMAQ9BEIESwAA in 'DFLT' lookup 0 subtable" GaBhaRa.Nnagari.ss03
EndChar

StartChar: GaRa.Nnagari
Encoding: 1114145 -1 121
Width: 699
VWidth: 1460
GlyphClass: 2
Flags: W
AnchorPoint: "+BBEENQQ3BEsEPARPBD0EPQQ+BDUA--1" 551 602 basechar 0
AnchorPoint: "+BBEENQQ3BEsEPARPBD0EPQQ+BDUA--0" 546 -101 basechar 0
LayerCount: 2
Fore
SplineSet
165 -1 m 1,0,-1
 165 67 l 1,1,-1
 510 67 l 1,2,-1
 510 558 l 1,3,-1
 339 558 l 1,4,5
 347 501 347 501 352.5 441.5 c 128,-1,6
 358 382 358 382 358 322 c 0,7,8
 358 234 358 234 320 193 c 128,-1,9
 282 152 282 152 213 152 c 0,10,11
 152 152 152 152 109.5 189 c 128,-1,12
 67 226 67 226 67 290 c 0,13,14
 67 330 67 330 88 364.5 c 128,-1,15
 109 399 109 399 154.5 422 c 128,-1,16
 200 445 200 445 274 450 c 1,17,18
 271 478 271 478 267.5 505 c 128,-1,19
 264 532 264 532 260 558 c 1,20,-1
 60 558 l 1,21,-1
 60 622 l 1,22,-1
 584 622 l 1,23,-1
 584 -101 l 1,24,-1
 510 -101 l 1,25,-1
 510 -1 l 1,26,-1
 165 -1 l 1,0,-1
145 290 m 0,27,28
 145 259 145 259 164.5 240.5 c 128,-1,29
 184 222 184 222 212 222 c 0,30,31
 247 222 247 222 263.5 246 c 128,-1,32
 280 270 280 270 280 322 c 0,33,34
 280 350 280 350 279 379 c 1,35,36
 202 373 202 373 173.5 347.5 c 128,-1,37
 145 322 145 322 145 290 c 0,27,28
EndSplineSet
Substitution2: "'ss03' Style Set 3 in 'DFLT' lookup 90 subtable" GaRa.Nnagari.ss03
Ligature2: "'cjct' Conjunct Forms in 'DFLT' lookup 27 subtable" GaHalf.Nnagari Ra.Nnagari
Substitution2: "'aalt' +BBIEQQQ1 +BDAEOwRMBEIENQRABD0EMARCBDgEMgQ9BEsENQAA +BDIEMARABDgEMAQ9BEIESwAA in 'DFLT' lookup 0 subtable" GaRa.Nnagari.ss03
EndChar

StartChar: GaRaVa.Nnagari
Encoding: 1114146 -1 122
Width: 699
VWidth: 1460
GlyphClass: 2
Flags: W
AnchorPoint: "+BBEENQQ3BEsEPARPBD0EPQQ+BDUA--1" 550 602 basechar 0
AnchorPoint: "+BBEENQQ3BEsEPARPBD0EPQQ+BDUA--0" 546 -101 basechar 0
LayerCount: 2
Fore
SplineSet
164 30 m 1,0,-1
 164 98 l 1,1,-1
 509 98 l 1,2,-1
 509 558 l 1,3,-1
 339 558 l 1,4,5
 347 501 347 501 352.5 441.5 c 128,-1,6
 358 382 358 382 358 322 c 0,7,8
 358 234 358 234 320 193 c 128,-1,9
 282 152 282 152 213 152 c 0,10,11
 152 152 152 152 109.5 189 c 128,-1,12
 67 226 67 226 67 290 c 0,13,14
 67 330 67 330 88 364.5 c 128,-1,15
 109 399 109 399 154.5 422 c 128,-1,16
 200 445 200 445 274 450 c 1,17,18
 271 478 271 478 267.5 505 c 128,-1,19
 264 532 264 532 260 558 c 1,20,-1
 60 558 l 1,21,-1
 60 622 l 1,22,-1
 583 622 l 1,23,-1
 583 -101 l 1,24,-1
 546 -101 l 1,25,-1
 521 -151 l 1,26,27
 496 -128 496 -128 456 -110.5 c 128,-1,28
 416 -93 416 -93 351 -93 c 0,29,30
 275 -93 275 -93 246.5 -116.5 c 128,-1,31
 218 -140 218 -140 218 -179 c 0,32,33
 218 -216 218 -216 247.5 -240.5 c 128,-1,34
 277 -265 277 -265 348 -265 c 0,35,36
 414 -265 414 -265 452 -248.5 c 128,-1,37
 490 -232 490 -232 521 -209 c 1,38,-1
 553 -267 l 1,39,40
 536 -281 536 -281 508 -297 c 128,-1,41
 480 -313 480 -313 438 -324 c 128,-1,42
 396 -335 396 -335 336 -335 c 0,43,44
 239 -335 239 -335 189.5 -292 c 128,-1,45
 140 -249 140 -249 140 -179 c 0,46,47
 140 -108 140 -108 190 -65.5 c 128,-1,48
 240 -23 240 -23 339 -23 c 0,49,50
 399 -23 399 -23 439.5 -35.5 c 128,-1,51
 480 -48 480 -48 509 -66 c 1,52,-1
 509 30 l 1,53,-1
 164 30 l 1,0,-1
145 290 m 0,54,55
 145 259 145 259 164.5 240.5 c 128,-1,56
 184 222 184 222 212 222 c 0,57,58
 247 222 247 222 263.5 246 c 128,-1,59
 280 270 280 270 280 322 c 0,60,61
 280 350 280 350 279 379 c 1,62,63
 202 373 202 373 173.5 347.5 c 128,-1,64
 145 322 145 322 145 290 c 0,54,55
EndSplineSet
Substitution2: "'ss03' Style Set 3 in 'DFLT' lookup 90 subtable" GaRaVa.Nnagari.ss03
Ligature2: "'cjct' Conjunct Forms in 'DFLT' lookup 26 subtable" GaHalf.Nnagari Ra.Nnagari Virama.Nnagari Va.Nnagari
Substitution2: "'aalt' +BBIEQQQ1 +BDAEOwRMBEIENQRABD0EMARCBDgEMgQ9BEsENQAA +BDIEMARABDgEMAQ9BEIESwAA in 'DFLT' lookup 0 subtable" GaRaVa.Nnagari.ss03
EndChar

StartChar: GaLa.Nnagari
Encoding: 1114147 -1 123
Width: 699
VWidth: 1460
GlyphClass: 2
Flags: W
AnchorPoint: "+BBEENQQ3BEsEPARPBD0EPQQ+BDUA--1" 550 602 basechar 0
AnchorPoint: "+BBEENQQ3BEsEPARPBD0EPQQ+BDUA--0" 546 -101 basechar 0
LayerCount: 2
Fore
SplineSet
213 152 m 0,0,1
 152 152 152 152 109.5 189 c 128,-1,2
 67 226 67 226 67 290 c 0,3,4
 67 330 67 330 88 364.5 c 128,-1,5
 109 399 109 399 154.5 422 c 128,-1,6
 200 445 200 445 274 450 c 1,7,8
 271 478 271 478 267.5 505 c 128,-1,9
 264 532 264 532 260 558 c 1,10,-1
 60 558 l 1,11,-1
 60 622 l 1,12,-1
 583 622 l 1,13,-1
 583 -101 l 1,14,-1
 509 -101 l 1,15,-1
 509 -50 l 1,16,17
 489 -41 489 -41 462 -41 c 0,18,19
 429 -41 429 -41 407.5 -59 c 128,-1,20
 386 -77 386 -77 384 -117 c 2,21,-1
 382 -149 l 1,22,-1
 314 -149 l 1,23,-1
 312 -117 l 2,24,25
 310 -78 310 -78 291.5 -60 c 128,-1,26
 273 -42 273 -42 241 -42 c 0,27,28
 207 -42 207 -42 187 -61.5 c 128,-1,29
 167 -81 167 -81 167 -118 c 0,30,31
 167 -157 167 -157 177.5 -186.5 c 128,-1,32
 188 -216 188 -216 204 -243 c 1,33,-1
 128 -243 l 1,34,35
 116 -225 116 -225 103.5 -191.5 c 128,-1,36
 91 -158 91 -158 91 -116 c 0,37,38
 91 -46 91 -46 130.5 -11 c 128,-1,39
 170 24 170 24 235 24 c 0,40,41
 274 24 274 24 302 8.5 c 128,-1,42
 330 -7 330 -7 347 -33 c 1,43,44
 377 25 377 25 456 25 c 0,45,46
 487 25 487 25 509 14 c 1,47,-1
 509 558 l 1,48,-1
 339 558 l 1,49,50
 347 501 347 501 352.5 441.5 c 128,-1,51
 358 382 358 382 358 322 c 0,52,53
 358 234 358 234 320 193 c 128,-1,54
 282 152 282 152 213 152 c 0,0,1
145 290 m 0,55,56
 145 259 145 259 164.5 240.5 c 128,-1,57
 184 222 184 222 212 222 c 0,58,59
 247 222 247 222 263.5 246 c 128,-1,60
 280 270 280 270 280 322 c 0,61,62
 280 350 280 350 279 379 c 1,63,64
 202 373 202 373 173.5 347.5 c 128,-1,65
 145 322 145 322 145 290 c 0,55,56
EndSplineSet
Ligature2: "'cjct' Conjunct Forms in 'DFLT' lookup 27 subtable" GaHalf.Nnagari La.Nnagari
EndChar

StartChar: GaVa.Nnagari
Encoding: 1114148 -1 124
Width: 699
VWidth: 1460
GlyphClass: 2
Flags: W
AnchorPoint: "+BBEENQQ3BEsEPARPBD0EPQQ+BDUA--1" 550 602 basechar 0
AnchorPoint: "+BBEENQQ3BEsEPARPBD0EPQQ+BDUA--0" 546 -101 basechar 0
LayerCount: 2
Fore
SplineSet
213 152 m 0,0,1
 152 152 152 152 109.5 189 c 128,-1,2
 67 226 67 226 67 290 c 0,3,4
 67 330 67 330 88 364.5 c 128,-1,5
 109 399 109 399 154.5 422 c 128,-1,6
 200 445 200 445 274 450 c 1,7,8
 271 478 271 478 267.5 505 c 128,-1,9
 264 532 264 532 260 558 c 1,10,-1
 60 558 l 1,11,-1
 60 622 l 1,12,-1
 583 622 l 1,13,-1
 583 -101 l 1,14,-1
 534 -101 l 1,15,-1
 549 -129 l 1,16,17
 532 -143 532 -143 504 -159 c 128,-1,18
 476 -175 476 -175 434 -186 c 128,-1,19
 392 -197 392 -197 332 -197 c 0,20,21
 235 -197 235 -197 185.5 -154 c 128,-1,22
 136 -111 136 -111 136 -41 c 0,23,24
 136 30 136 30 186 72.5 c 128,-1,25
 236 115 236 115 335 115 c 0,26,27
 397 115 397 115 438.5 102 c 128,-1,28
 480 89 480 89 509 70 c 1,29,-1
 509 558 l 1,30,-1
 339 558 l 1,31,32
 347 501 347 501 352.5 441.5 c 128,-1,33
 358 382 358 382 358 322 c 0,34,35
 358 234 358 234 320 193 c 128,-1,36
 282 152 282 152 213 152 c 0,0,1
145 290 m 0,37,38
 145 259 145 259 164.5 240.5 c 128,-1,39
 184 222 184 222 212 222 c 0,40,41
 247 222 247 222 263.5 246 c 128,-1,42
 280 270 280 270 280 322 c 0,43,44
 280 350 280 350 279 379 c 1,45,46
 202 373 202 373 173.5 347.5 c 128,-1,47
 145 322 145 322 145 290 c 0,37,38
214 -41 m 0,48,49
 214 -78 214 -78 243.5 -102.5 c 128,-1,50
 273 -127 273 -127 344 -127 c 0,51,52
 406 -127 406 -127 443 -112.5 c 128,-1,53
 480 -98 480 -98 509 -77 c 1,54,-1
 509 -6 l 1,55,56
 484 14 484 14 445.5 29.5 c 128,-1,57
 407 45 407 45 347 45 c 0,58,59
 271 45 271 45 242.5 21.5 c 128,-1,60
 214 -2 214 -2 214 -41 c 0,48,49
EndSplineSet
Ligature2: "'cjct' Conjunct Forms in 'DFLT' lookup 27 subtable" GaHalf.Nnagari Va.Nnagari
EndChar

StartChar: GaVaRa.Nnagari
Encoding: 1114149 -1 125
Width: 699
VWidth: 1460
GlyphClass: 2
Flags: W
AnchorPoint: "+BBEENQQ3BEsEPARPBD0EPQQ+BDUA--1" 550 602 basechar 0
AnchorPoint: "+BBEENQQ3BEsEPARPBD0EPQQ+BDUA--0" 546 -101 basechar 0
LayerCount: 2
Fore
SplineSet
213 152 m 0,0,1
 152 152 152 152 109.5 189 c 128,-1,2
 67 226 67 226 67 290 c 0,3,4
 67 330 67 330 88 364.5 c 128,-1,5
 109 399 109 399 154.5 422 c 128,-1,6
 200 445 200 445 274 450 c 1,7,8
 271 478 271 478 267.5 505 c 128,-1,9
 264 532 264 532 260 558 c 1,10,-1
 60 558 l 1,11,-1
 60 622 l 1,12,-1
 583 622 l 1,13,-1
 583 -101 l 1,14,-1
 544 -101 l 1,15,-1
 548 -109 l 1,16,17
 531 -123 531 -123 503 -139 c 128,-1,18
 475 -155 475 -155 433 -166 c 128,-1,19
 391 -177 391 -177 331 -177 c 0,20,21
 234 -177 234 -177 184.5 -134 c 128,-1,22
 135 -91 135 -91 135 -21 c 0,23,24
 135 50 135 50 185 92.5 c 128,-1,25
 235 135 235 135 334 135 c 0,26,27
 396 135 396 135 438 121.5 c 128,-1,28
 480 108 480 108 509 89 c 1,29,-1
 509 558 l 1,30,-1
 339 558 l 1,31,32
 347 501 347 501 352.5 441.5 c 128,-1,33
 358 382 358 382 358 322 c 0,34,35
 358 234 358 234 320 193 c 128,-1,36
 282 152 282 152 213 152 c 0,0,1
145 290 m 0,37,38
 145 259 145 259 164.5 240.5 c 128,-1,39
 184 222 184 222 212 222 c 0,40,41
 247 222 247 222 263.5 246 c 128,-1,42
 280 270 280 270 280 322 c 0,43,44
 280 350 280 350 279 379 c 1,45,46
 202 373 202 373 173.5 347.5 c 128,-1,47
 145 322 145 322 145 290 c 0,37,38
213 -21 m 0,48,49
 213 -58 213 -58 242.5 -82.5 c 128,-1,50
 272 -107 272 -107 343 -107 c 0,51,52
 405 -107 405 -107 442.5 -92.5 c 128,-1,53
 480 -78 480 -78 509 -56 c 1,54,-1
 509 13 l 1,55,56
 484 34 484 34 445 49.5 c 128,-1,57
 406 65 406 65 346 65 c 0,58,59
 270 65 270 65 241.5 41.5 c 128,-1,60
 213 18 213 18 213 -21 c 0,48,49
163 -295 m 1,61,-1
 163 -227 l 1,62,-1
 516 -227 l 1,63,-1
 516 -295 l 1,64,-1
 163 -295 l 1,61,-1
EndSplineSet
Substitution2: "'ss03' Style Set 3 in 'DFLT' lookup 90 subtable" GaVaRa.Nnagari.ss03
Ligature2: "'cjct' Conjunct Forms in 'DFLT' lookup 26 subtable" GaHalf.Nnagari VaHalf.Nnagari Ra.Nnagari
Substitution2: "'aalt' +BBIEQQQ1 +BDAEOwRMBEIENQRABD0EMARCBDgEMgQ9BEsENQAA +BDIEMARABDgEMAQ9BEIESwAA in 'DFLT' lookup 0 subtable" GaVaRa.Nnagari.ss03
EndChar

StartChar: GhaGha.Nnagari
Encoding: 1114150 -1 126
Width: 1401
VWidth: 1460
GlyphClass: 2
Flags: W
AnchorPoint: "+BBEENQQ3BEsEPARPBD0EPQQ+BDUA--1" 1253 602 basechar 0
AnchorPoint: "+BBEENQQ3BEsEPARPBD0EPQQ+BDUA--0" 1247 0 basechar 0
LayerCount: 2
Fore
SplineSet
243 220 m 0,0,1
 173 220 173 220 133 249.5 c 128,-1,2
 93 279 93 279 76.5 329 c 128,-1,3
 60 379 60 379 60 440 c 2,4,-1
 60 622 l 1,5,-1
 1286 622 l 1,6,-1
 1286 0 l 1,7,-1
 1208 0 l 1,8,-1
 1208 261 l 1,9,10
 1189 244 1189 244 1163 234.5 c 128,-1,11
 1137 225 1137 225 1102 225 c 0,12,13
 1048 225 1048 225 1013.5 249.5 c 128,-1,14
 979 274 979 274 960 308 c 1,15,16
 942 272 942 272 907 246 c 128,-1,17
 872 220 872 220 817 220 c 0,18,19
 782 220 782 220 756 231.5 c 128,-1,20
 730 243 730 243 712 263 c 1,21,-1
 712 0 l 1,22,-1
 634 0 l 1,23,-1
 634 261 l 1,24,25
 615 244 615 244 589 234.5 c 128,-1,26
 563 225 563 225 528 225 c 0,27,28
 474 225 474 225 439.5 249.5 c 128,-1,29
 405 274 405 274 386 308 c 1,30,31
 368 272 368 272 333 246 c 128,-1,32
 298 220 298 220 243 220 c 0,0,1
712 440 m 2,33,34
 712 371 712 371 736 331.5 c 128,-1,35
 760 292 760 292 817 292 c 0,36,37
 854 292 854 292 877 311 c 128,-1,38
 900 330 900 330 911 360.5 c 128,-1,39
 922 391 922 391 922 427 c 2,40,-1
 922 496 l 1,41,-1
 998 496 l 1,42,-1
 998 427 l 2,43,44
 998 399 998 399 1007.5 369 c 128,-1,45
 1017 339 1017 339 1041 318 c 128,-1,46
 1065 297 1065 297 1107 297 c 0,47,48
 1150 297 1150 297 1174 315.5 c 128,-1,49
 1198 334 1198 334 1208 364 c 1,50,-1
 1208 558 l 1,51,-1
 712 558 l 1,52,-1
 712 440 l 2,33,34
138 440 m 2,53,54
 138 371 138 371 162 331.5 c 128,-1,55
 186 292 186 292 243 292 c 0,56,57
 280 292 280 292 303 311 c 128,-1,58
 326 330 326 330 337 360.5 c 128,-1,59
 348 391 348 391 348 427 c 2,60,-1
 348 496 l 1,61,-1
 424 496 l 1,62,-1
 424 427 l 2,63,64
 424 399 424 399 433.5 369 c 128,-1,65
 443 339 443 339 467 318 c 128,-1,66
 491 297 491 297 533 297 c 0,67,68
 576 297 576 297 600 315.5 c 128,-1,69
 624 334 624 334 634 364 c 1,70,-1
 634 558 l 1,71,-1
 138 558 l 1,72,-1
 138 440 l 2,53,54
EndSplineSet
Ligature2: "'cjct' Conjunct Forms in 'DFLT' lookup 27 subtable" GhaHalf.Nnagari Gha.Nnagari
EndChar

StartChar: GhaNa.Nnagari
Encoding: 1114151 -1 127
Width: 807
VWidth: 1460
GlyphClass: 2
Flags: W
AnchorPoint: "+BBEENQQ3BEsEPARPBD0EPQQ+BDUA--1" 659 602 basechar 0
AnchorPoint: "+BBEENQQ3BEsEPARPBD0EPQQ+BDUA--0" 653 -100 basechar 0
LayerCount: 2
Fore
SplineSet
235 265 m 0,0,1
 167 265 167 265 129 291 c 128,-1,2
 91 317 91 317 75.5 358 c 128,-1,3
 60 399 60 399 60 445 c 2,4,-1
 60 622 l 1,5,-1
 692 622 l 1,6,-1
 692 -100 l 1,7,-1
 614 -100 l 1,8,-1
 614 113 l 1,9,-1
 489 113 l 2,10,11
 439 113 439 113 405 106 c 1,12,13
 426 90 426 90 441 65 c 128,-1,14
 456 40 456 40 456 11 c 0,15,16
 456 -38 456 -38 426 -66.5 c 128,-1,17
 396 -95 396 -95 346 -95 c 0,18,19
 297 -95 297 -95 263 -66 c 128,-1,20
 229 -37 229 -37 229 11 c 0,21,22
 229 92 229 92 294 135 c 128,-1,23
 359 178 359 178 489 178 c 2,24,-1
 614 178 l 1,25,-1
 614 305 l 1,26,27
 596 289 596 289 571 279.5 c 128,-1,28
 546 270 546 270 513 270 c 0,29,30
 461 270 461 270 427.5 289.5 c 128,-1,31
 394 309 394 309 376 338 c 1,32,33
 357 308 357 308 322.5 286.5 c 128,-1,34
 288 265 288 265 235 265 c 0,0,1
138 445 m 2,35,36
 138 400 138 400 161 368.5 c 128,-1,37
 184 337 184 337 238 337 c 0,38,39
 290 337 290 337 314 367.5 c 128,-1,40
 338 398 338 398 338 442 c 2,41,-1
 338 471 l 1,42,-1
 414 471 l 1,43,-1
 414 442 l 2,44,45
 414 398 414 398 440 370 c 128,-1,46
 466 342 466 342 518 342 c 0,47,48
 557 342 557 342 580.5 360.5 c 128,-1,49
 604 379 604 379 614 409 c 1,50,-1
 614 558 l 1,51,-1
 138 558 l 1,52,-1
 138 445 l 2,35,36
301 14 m 0,53,54
 301 -8 301 -8 313.5 -19.5 c 128,-1,55
 326 -31 326 -31 345 -31 c 0,56,57
 363 -31 363 -31 374.5 -19 c 128,-1,58
 386 -7 386 -7 386 11 c 0,59,60
 386 32 386 32 373.5 50 c 128,-1,61
 361 68 361 68 341 80 c 1,62,63
 324 70 324 70 312.5 53.5 c 128,-1,64
 301 37 301 37 301 14 c 0,53,54
EndSplineSet
Ligature2: "'cjct' Conjunct Forms in 'DFLT' lookup 27 subtable" GhaHalf.Nnagari Na.Nnagari
EndChar

StartChar: GhaRa.Nnagari
Encoding: 1114152 -1 128
Width: 807
VWidth: 1460
GlyphClass: 2
Flags: W
AnchorPoint: "+BBEENQQ3BEsEPARPBD0EPQQ+BDUA--1" 659 602 basechar 0
AnchorPoint: "+BBEENQQ3BEsEPARPBD0EPQQ+BDUA--0" 653 -100 basechar 0
LayerCount: 2
Fore
SplineSet
269 56 m 1,0,-1
 269 124 l 1,1,-1
 614 124 l 1,2,-1
 614 305 l 1,3,4
 596 289 596 289 571 279.5 c 128,-1,5
 546 270 546 270 513 270 c 0,6,7
 461 270 461 270 427.5 289.5 c 128,-1,8
 394 309 394 309 376 338 c 1,9,10
 357 308 357 308 322.5 286.5 c 128,-1,11
 288 265 288 265 235 265 c 0,12,13
 167 265 167 265 129 291 c 128,-1,14
 91 317 91 317 75.5 358 c 128,-1,15
 60 399 60 399 60 445 c 2,16,-1
 60 622 l 1,17,-1
 692 622 l 1,18,-1
 692 -100 l 1,19,-1
 614 -100 l 1,20,-1
 614 56 l 1,21,-1
 269 56 l 1,0,-1
138 445 m 2,22,23
 138 400 138 400 161 368.5 c 128,-1,24
 184 337 184 337 238 337 c 0,25,26
 290 337 290 337 314 367.5 c 128,-1,27
 338 398 338 398 338 442 c 2,28,-1
 338 471 l 1,29,-1
 414 471 l 1,30,-1
 414 442 l 2,31,32
 414 398 414 398 440 370 c 128,-1,33
 466 342 466 342 518 342 c 0,34,35
 557 342 557 342 580.5 360.5 c 128,-1,36
 604 379 604 379 614 409 c 1,37,-1
 614 558 l 1,38,-1
 138 558 l 1,39,-1
 138 445 l 2,22,23
EndSplineSet
Substitution2: "'ss03' Style Set 3 in 'DFLT' lookup 90 subtable" GhaRa.Nnagari.ss03
Ligature2: "'cjct' Conjunct Forms in 'DFLT' lookup 27 subtable" GhaHalf.Nnagari Ra.Nnagari
Substitution2: "'aalt' +BBIEQQQ1 +BDAEOwRMBEIENQRABD0EMARCBDgEMgQ9BEsENQAA +BDIEMARABDgEMAQ9BEIESwAA in 'DFLT' lookup 0 subtable" GhaRa.Nnagari.ss03
EndChar

StartChar: GhaVa.Nnagari
Encoding: 1114153 -1 129
Width: 807
VWidth: 1460
GlyphClass: 2
Flags: W
AnchorPoint: "+BBEENQQ3BEsEPARPBD0EPQQ+BDUA--1" 659 602 basechar 0
AnchorPoint: "+BBEENQQ3BEsEPARPBD0EPQQ+BDUA--0" 653 -100 basechar 0
LayerCount: 2
Fore
SplineSet
235 265 m 0,0,1
 167 265 167 265 129 291 c 128,-1,2
 91 317 91 317 75.5 358 c 128,-1,3
 60 399 60 399 60 445 c 2,4,-1
 60 622 l 1,5,-1
 692 622 l 1,6,-1
 692 -100 l 1,7,-1
 614 -100 l 1,8,-1
 614 -51 l 1,9,10
 586 -66 586 -66 543.5 -77.5 c 128,-1,11
 501 -89 501 -89 441 -89 c 0,12,13
 344 -89 344 -89 294.5 -46 c 128,-1,14
 245 -3 245 -3 245 67 c 0,15,16
 245 138 245 138 295 180.5 c 128,-1,17
 345 223 345 223 444 223 c 0,18,19
 504 223 504 223 544.5 210.5 c 128,-1,20
 585 198 585 198 614 180 c 1,21,-1
 614 305 l 1,22,23
 596 289 596 289 571 279.5 c 128,-1,24
 546 270 546 270 513 270 c 0,25,26
 461 270 461 270 427.5 289.5 c 128,-1,27
 394 309 394 309 376 338 c 1,28,29
 357 308 357 308 322.5 286.5 c 128,-1,30
 288 265 288 265 235 265 c 0,0,1
138 445 m 2,31,32
 138 400 138 400 161 368.5 c 128,-1,33
 184 337 184 337 238 337 c 0,34,35
 290 337 290 337 314 367.5 c 128,-1,36
 338 398 338 398 338 442 c 2,37,-1
 338 471 l 1,38,-1
 414 471 l 1,39,-1
 414 442 l 2,40,41
 414 398 414 398 440 370 c 128,-1,42
 466 342 466 342 518 342 c 0,43,44
 557 342 557 342 580.5 360.5 c 128,-1,45
 604 379 604 379 614 409 c 1,46,-1
 614 558 l 1,47,-1
 138 558 l 1,48,-1
 138 445 l 2,31,32
323 67 m 0,49,50
 323 30 323 30 352.5 5.5 c 128,-1,51
 382 -19 382 -19 453 -19 c 0,52,53
 513 -19 513 -19 549.5 -5.5 c 128,-1,54
 586 8 586 8 614 28 c 1,55,-1
 614 105 l 1,56,57
 589 124 589 124 551 138.5 c 128,-1,58
 513 153 513 153 456 153 c 0,59,60
 380 153 380 153 351.5 129.5 c 128,-1,61
 323 106 323 106 323 67 c 0,49,50
EndSplineSet
Ligature2: "'cjct' Conjunct Forms in 'DFLT' lookup 27 subtable" GhaHalf.Nnagari Va.Nnagari
EndChar

StartChar: NgaGa.Nnagari
Encoding: 1114154 -1 130
Width: 766
VWidth: 1460
GlyphClass: 2
Flags: W
AnchorPoint: "+BBEENQQ3BEsEPARPBD0EPQQ+BDUA--1" 462 602 basechar 0
AnchorPoint: "+BBEENQQ3BEsEPARPBD0EPQQ+BDUA--0" 555 -180 basechar 0
LayerCount: 2
Fore
SplineSet
50 186 m 1,0,-1
 50 237 l 1,1,-1
 385 558 l 1,2,-1
 50 558 l 1,3,-1
 50 622 l 1,4,-1
 495 622 l 1,5,-1
 495 563 l 1,6,-1
 172 254 l 1,7,-1
 698 254 l 1,8,-1
 698 186 l 1,9,-1
 593 186 l 1,10,-1
 593 -180 l 1,11,-1
 519 -180 l 1,12,-1
 519 186 l 1,13,-1
 360 186 l 1,14,15
 368 130 368 130 373.5 64.5 c 128,-1,16
 379 -1 379 -1 379 -50 c 0,17,18
 379 -122 379 -122 345.5 -154 c 128,-1,19
 312 -186 312 -186 253 -186 c 0,20,21
 197 -186 197 -186 160.5 -156.5 c 128,-1,22
 124 -127 124 -127 124 -75 c 0,23,24
 124 -22 124 -22 165 12.5 c 128,-1,25
 206 47 206 47 301 51 c 1,26,27
 299 86 299 86 295 120.5 c 128,-1,28
 291 155 291 155 286 186 c 1,29,-1
 50 186 l 1,0,-1
595 318 m 0,30,31
 546 318 546 318 517.5 345 c 128,-1,32
 489 372 489 372 489 417 c 256,33,34
 489 462 489 462 517.5 489 c 128,-1,35
 546 516 546 516 595 516 c 0,36,37
 643 516 643 516 672 489 c 128,-1,38
 701 462 701 462 701 417 c 256,39,40
 701 372 701 372 672 345 c 128,-1,41
 643 318 643 318 595 318 c 0,30,31
595 376 m 0,42,43
 615 376 615 376 625 387 c 128,-1,44
 635 398 635 398 635 417 c 256,45,46
 635 436 635 436 625 447 c 128,-1,47
 615 458 615 458 595 458 c 0,48,49
 576 458 576 458 565.5 447 c 128,-1,50
 555 436 555 436 555 417 c 256,51,52
 555 398 555 398 565.5 387 c 128,-1,53
 576 376 576 376 595 376 c 0,42,43
198 -74 m 0,54,55
 198 -96 198 -96 212.5 -110 c 128,-1,56
 227 -124 227 -124 252 -124 c 0,57,58
 278 -124 278 -124 292 -107 c 128,-1,59
 306 -90 306 -90 306 -50 c 0,60,61
 306 -33 306 -33 305 -13 c 1,62,63
 245 -16 245 -16 221.5 -32.5 c 128,-1,64
 198 -49 198 -49 198 -74 c 0,54,55
EndSplineSet
Ligature2: "'cjct' Conjunct Forms in 'DFLT' lookup 27 subtable" NgaHalf.Nnagari Ga.Nnagari
EndChar

StartChar: NgaTa.Nnagari
Encoding: 1114155 -1 131
Width: 766
VWidth: 1460
GlyphClass: 2
Flags: W
AnchorPoint: "+BBEENQQ3BEsEPARPBD0EPQQ+BDUA--1" 462 602 basechar 0
AnchorPoint: "+BBEENQQ3BEsEPARPBD0EPQQ+BDUA--0" 555 -180 basechar 0
LayerCount: 2
Fore
SplineSet
50 186 m 1,0,-1
 50 237 l 1,1,-1
 385 558 l 1,2,-1
 50 558 l 1,3,-1
 50 622 l 1,4,-1
 495 622 l 1,5,-1
 495 563 l 1,6,-1
 172 254 l 1,7,-1
 698 254 l 1,8,-1
 698 186 l 1,9,-1
 593 186 l 1,10,-1
 593 -180 l 1,11,-1
 519 -180 l 1,12,-1
 519 82 l 1,13,-1
 476 82 l 2,14,15
 370 82 370 82 301.5 50 c 128,-1,16
 233 18 233 18 199.5 -35.5 c 128,-1,17
 166 -89 166 -89 166 -155 c 2,18,-1
 166 -178 l 1,19,-1
 88 -178 l 1,20,-1
 88 -148 l 2,21,22
 88 -62 88 -62 132.5 6.5 c 128,-1,23
 177 75 177 75 263.5 115.5 c 128,-1,24
 350 156 350 156 476 156 c 2,25,-1
 519 156 l 1,26,-1
 519 186 l 1,27,-1
 50 186 l 1,0,-1
595 318 m 0,28,29
 546 318 546 318 517.5 345 c 128,-1,30
 489 372 489 372 489 417 c 256,31,32
 489 462 489 462 517.5 489 c 128,-1,33
 546 516 546 516 595 516 c 0,34,35
 643 516 643 516 672 489 c 128,-1,36
 701 462 701 462 701 417 c 256,37,38
 701 372 701 372 672 345 c 128,-1,39
 643 318 643 318 595 318 c 0,28,29
595 376 m 0,40,41
 615 376 615 376 625 387 c 128,-1,42
 635 398 635 398 635 417 c 256,43,44
 635 436 635 436 625 447 c 128,-1,45
 615 458 615 458 595 458 c 0,46,47
 576 458 576 458 565.5 447 c 128,-1,48
 555 436 555 436 555 417 c 256,49,50
 555 398 555 398 565.5 387 c 128,-1,51
 576 376 576 376 595 376 c 0,40,41
EndSplineSet
Ligature2: "'cjct' Conjunct Forms in 'DFLT' lookup 27 subtable" NgaHalf.Nnagari Ta.Nnagari
EndChar

StartChar: NgaNa.Nnagari
Encoding: 1114156 -1 132
Width: 766
VWidth: 1460
GlyphClass: 2
Flags: W
AnchorPoint: "+BBEENQQ3BEsEPARPBD0EPQQ+BDUA--1" 462 602 basechar 0
AnchorPoint: "+BBEENQQ3BEsEPARPBD0EPQQ+BDUA--0" 555 -180 basechar 0
LayerCount: 2
Fore
SplineSet
50 186 m 1,0,-1
 50 237 l 1,1,-1
 385 558 l 1,2,-1
 50 558 l 1,3,-1
 50 622 l 1,4,-1
 495 622 l 1,5,-1
 495 563 l 1,6,-1
 172 254 l 1,7,-1
 698 254 l 1,8,-1
 698 186 l 1,9,-1
 593 186 l 1,10,-1
 593 -180 l 1,11,-1
 519 -180 l 1,12,-1
 519 38 l 1,13,-1
 410 38 l 2,14,15
 360 38 360 38 326 31 c 1,16,17
 347 15 347 15 362 -10 c 128,-1,18
 377 -35 377 -35 377 -64 c 0,19,20
 377 -113 377 -113 347 -141.5 c 128,-1,21
 317 -170 317 -170 267 -170 c 0,22,23
 218 -170 218 -170 184 -141 c 128,-1,24
 150 -112 150 -112 150 -64 c 0,25,26
 150 17 150 17 215 60 c 128,-1,27
 280 103 280 103 410 103 c 2,28,-1
 519 103 l 1,29,-1
 519 186 l 1,30,-1
 50 186 l 1,0,-1
595 318 m 0,31,32
 546 318 546 318 517.5 345 c 128,-1,33
 489 372 489 372 489 417 c 256,34,35
 489 462 489 462 517.5 489 c 128,-1,36
 546 516 546 516 595 516 c 0,37,38
 643 516 643 516 672 489 c 128,-1,39
 701 462 701 462 701 417 c 256,40,41
 701 372 701 372 672 345 c 128,-1,42
 643 318 643 318 595 318 c 0,31,32
595 376 m 0,43,44
 615 376 615 376 625 387 c 128,-1,45
 635 398 635 398 635 417 c 256,46,47
 635 436 635 436 625 447 c 128,-1,48
 615 458 615 458 595 458 c 0,49,50
 576 458 576 458 565.5 447 c 128,-1,51
 555 436 555 436 555 417 c 256,52,53
 555 398 555 398 565.5 387 c 128,-1,54
 576 376 576 376 595 376 c 0,43,44
222 -61 m 0,55,56
 222 -83 222 -83 234.5 -94.5 c 128,-1,57
 247 -106 247 -106 266 -106 c 0,58,59
 284 -106 284 -106 295.5 -94 c 128,-1,60
 307 -82 307 -82 307 -64 c 0,61,62
 307 -43 307 -43 294.5 -25 c 128,-1,63
 282 -7 282 -7 262 5 c 1,64,65
 245 -5 245 -5 233.5 -21.5 c 128,-1,66
 222 -38 222 -38 222 -61 c 0,55,56
EndSplineSet
Ligature2: "'cjct' Conjunct Forms in 'DFLT' lookup 27 subtable" NgaHalf.Nnagari Na.Nnagari
EndChar

StartChar: NgaMa.Nnagari
Encoding: 1114157 -1 133
Width: 766
VWidth: 1460
GlyphClass: 2
Flags: W
AnchorPoint: "+BBEENQQ3BEsEPARPBD0EPQQ+BDUA--1" 462 602 basechar 0
AnchorPoint: "+BBEENQQ3BEsEPARPBD0EPQQ+BDUA--0" 555 -180 basechar 0
LayerCount: 2
Fore
SplineSet
50 186 m 1,0,-1
 50 237 l 1,1,-1
 385 558 l 1,2,-1
 50 558 l 1,3,-1
 50 622 l 1,4,-1
 495 622 l 1,5,-1
 495 563 l 1,6,-1
 172 254 l 1,7,-1
 698 254 l 1,8,-1
 698 186 l 1,9,-1
 593 186 l 1,10,-1
 593 -180 l 1,11,-1
 519 -180 l 1,12,-1
 519 -6 l 1,13,-1
 368 -6 l 2,14,15
 356 -6 356 -6 346 -6 c 1,16,17
 347 -39 347 -39 347 -68 c 0,18,19
 347 -128 347 -128 315.5 -157 c 128,-1,20
 284 -186 284 -186 231 -186 c 256,21,22
 178 -186 178 -186 144.5 -157 c 128,-1,23
 111 -128 111 -128 111 -79 c 0,24,25
 111 -21 111 -21 146.5 13 c 128,-1,26
 182 47 182 47 265 59 c 1,27,28
 263 91 263 91 259.5 122.5 c 128,-1,29
 256 154 256 154 252 186 c 1,30,-1
 50 186 l 1,0,-1
595 318 m 0,31,32
 546 318 546 318 517.5 345 c 128,-1,33
 489 372 489 372 489 417 c 256,34,35
 489 462 489 462 517.5 489 c 128,-1,36
 546 516 546 516 595 516 c 0,37,38
 643 516 643 516 672 489 c 128,-1,39
 701 462 701 462 701 417 c 256,40,41
 701 372 701 372 672 345 c 128,-1,42
 643 318 643 318 595 318 c 0,31,32
595 376 m 0,43,44
 615 376 615 376 625 387 c 128,-1,45
 635 398 635 398 635 417 c 256,46,47
 635 436 635 436 625 447 c 128,-1,48
 615 458 615 458 595 458 c 0,49,50
 576 458 576 458 565.5 447 c 128,-1,51
 555 436 555 436 555 417 c 256,52,53
 555 398 555 398 565.5 387 c 128,-1,54
 576 376 576 376 595 376 c 0,43,44
368 65 m 2,55,-1
 519 65 l 1,56,-1
 519 186 l 1,57,-1
 329 186 l 1,58,59
 332 156 332 156 335.5 125.5 c 128,-1,60
 339 95 339 95 341 65 c 1,61,62
 354 65 354 65 368 65 c 2,55,-1
188 -77 m 0,63,64
 188 -95 188 -95 198.5 -106.5 c 128,-1,65
 209 -118 209 -118 230 -118 c 0,66,67
 249 -118 249 -118 259.5 -105.5 c 128,-1,68
 270 -93 270 -93 270 -60 c 0,69,70
 270 -36 270 -36 269 -11 c 1,71,72
 224 -18 224 -18 206 -33.5 c 128,-1,73
 188 -49 188 -49 188 -77 c 0,63,64
EndSplineSet
Ligature2: "'cjct' Conjunct Forms in 'DFLT' lookup 27 subtable" NgaHalf.Nnagari Ma.Nnagari
EndChar

StartChar: NgaVa.Nnagari
Encoding: 1114158 -1 134
Width: 766
VWidth: 1460
GlyphClass: 2
Flags: W
AnchorPoint: "+BBEENQQ3BEsEPARPBD0EPQQ+BDUA--1" 462 602 basechar 0
AnchorPoint: "+BBEENQQ3BEsEPARPBD0EPQQ+BDUA--0" 555 -180 basechar 0
LayerCount: 2
Fore
SplineSet
50 186 m 1,0,-1
 50 237 l 1,1,-1
 385 558 l 1,2,-1
 50 558 l 1,3,-1
 50 622 l 1,4,-1
 495 622 l 1,5,-1
 495 563 l 1,6,-1
 172 254 l 1,7,-1
 698 254 l 1,8,-1
 698 186 l 1,9,-1
 593 186 l 1,10,-1
 593 -180 l 1,11,-1
 519 -180 l 1,12,-1
 519 -123 l 1,13,14
 491 -138 491 -138 448 -150 c 128,-1,15
 405 -162 405 -162 344 -162 c 0,16,17
 247 -162 247 -162 197.5 -119 c 128,-1,18
 148 -76 148 -76 148 -6 c 0,19,20
 148 65 148 65 198 107.5 c 128,-1,21
 248 150 248 150 347 150 c 0,22,23
 408 150 408 150 449 137 c 128,-1,24
 490 124 490 124 519 106 c 1,25,-1
 519 186 l 1,26,-1
 50 186 l 1,0,-1
595 318 m 0,27,28
 546 318 546 318 517.5 345 c 128,-1,29
 489 372 489 372 489 417 c 256,30,31
 489 462 489 462 517.5 489 c 128,-1,32
 546 516 546 516 595 516 c 0,33,34
 643 516 643 516 672 489 c 128,-1,35
 701 462 701 462 701 417 c 256,36,37
 701 372 701 372 672 345 c 128,-1,38
 643 318 643 318 595 318 c 0,27,28
595 376 m 0,39,40
 615 376 615 376 625 387 c 128,-1,41
 635 398 635 398 635 417 c 256,42,43
 635 436 635 436 625 447 c 128,-1,44
 615 458 615 458 595 458 c 0,45,46
 576 458 576 458 565.5 447 c 128,-1,47
 555 436 555 436 555 417 c 256,48,49
 555 398 555 398 565.5 387 c 128,-1,50
 576 376 576 376 595 376 c 0,39,40
226 -6 m 0,51,52
 226 -43 226 -43 255.5 -67.5 c 128,-1,53
 285 -92 285 -92 356 -92 c 0,54,55
 417 -92 417 -92 453.5 -78 c 128,-1,56
 490 -64 490 -64 519 -43 c 1,57,-1
 519 30 l 1,58,59
 494 50 494 50 455.5 65 c 128,-1,60
 417 80 417 80 359 80 c 0,61,62
 283 80 283 80 254.5 56.5 c 128,-1,63
 226 33 226 33 226 -6 c 0,51,52
EndSplineSet
Ligature2: "'cjct' Conjunct Forms in 'DFLT' lookup 27 subtable" NgaHalf.Nnagari Va.Nnagari
EndChar

StartChar: CaCa.Nnagari
Encoding: 1114159 -1 135
Width: 639
VWidth: 1460
GlyphClass: 2
Flags: W
AnchorPoint: "+BBEENQQ3BEsEPARPBD0EPQQ+BDUA--1" 491 602 basechar 0
AnchorPoint: "+BBEENQQ3BEsEPARPBD0EPQQ+BDUA--0" 486 -161 basechar 0
LayerCount: 2
Fore
SplineSet
450 -161 m 1,0,-1
 450 -157 l 1,1,2
 414 -115 414 -115 352 -76 c 128,-1,3
 290 -37 290 -37 217.5 -7.5 c 128,-1,4
 145 22 145 22 75 34 c 1,5,-1
 57 148 l 1,6,7
 106 165 106 165 157 181.5 c 128,-1,8
 208 198 208 198 260 215 c 1,9,10
 216 235 216 235 170.5 249.5 c 128,-1,11
 125 264 125 264 81 272 c 1,12,-1
 63 386 l 1,13,14
 156 418 156 418 253 449 c 128,-1,15
 350 480 350 480 450 513 c 1,16,-1
 450 558 l 1,17,-1
 40 558 l 1,18,-1
 40 622 l 1,19,-1
 524 622 l 1,20,-1
 524 -161 l 1,21,-1
 450 -161 l 1,0,-1
150 334 m 1,22,23
 201 322 201 322 255.5 300 c 128,-1,24
 310 278 310 278 362 248 c 1,25,26
 384 255 384 255 406 262 c 128,-1,27
 428 269 428 269 450 277 c 1,28,-1
 450 433 l 1,29,30
 373 409 373 409 297.5 384 c 128,-1,31
 222 359 222 359 150 334 c 1,22,23
442 195 m 1,32,33
 446 192 446 192 450 189 c 1,34,-1
 450 197 l 1,35,36
 446 196 446 196 442 195 c 1,32,33
144 96 m 1,37,38
 220 78 220 78 302.5 38.5 c 128,-1,39
 385 -1 385 -1 450 -54 c 1,40,-1
 450 87 l 1,41,42
 431 108 431 108 406 127.5 c 128,-1,43
 381 147 381 147 352 166 c 1,44,45
 299 149 299 149 247 131.5 c 128,-1,46
 195 114 195 114 144 96 c 1,37,38
EndSplineSet
Ligature2: "'cjct' Conjunct Forms in 'DFLT' lookup 27 subtable" CaHalf.Nnagari Ca.Nnagari
EndChar

StartChar: CaCha.Nnagari
Encoding: 1114160 -1 136
Width: 866
VWidth: 1460
GlyphClass: 2
Flags: W
AnchorPoint: "+BBEENQQ3BEsEPARPBD0EPQQ+BDUA--1" 490 602 basechar 0
AnchorPoint: "+BBEENQQ3BEsEPARPBD0EPQQ+BDUA--0" 474 -117 basechar 0
LayerCount: 2
Fore
SplineSet
449 43 m 1,0,-1
 449 128 l 1,1,-1
 386 128 l 2,2,3
 311 128 311 128 276 107 c 128,-1,4
 241 86 241 86 241 39 c 0,5,6
 241 -6 241 -6 292 -33.5 c 128,-1,7
 343 -61 343 -61 449 -61 c 0,8,9
 617 -61 617 -61 695 14 c 1,10,11
 644 34 644 34 619.5 68 c 128,-1,12
 595 102 595 102 595 145 c 0,13,14
 595 189 595 189 623.5 219.5 c 128,-1,15
 652 250 652 250 701 250 c 0,16,17
 751 250 751 250 782.5 221 c 128,-1,18
 814 192 814 192 814 133 c 0,19,20
 814 58 814 58 770.5 -0.5 c 128,-1,21
 727 -59 727 -59 645.5 -93 c 128,-1,22
 564 -127 564 -127 449 -127 c 0,23,24
 307 -127 307 -127 234 -84.5 c 128,-1,25
 161 -42 161 -42 161 39 c 0,26,27
 161 108 161 108 220.5 148 c 128,-1,28
 280 188 280 188 386 188 c 2,29,-1
 390 188 l 1,30,31
 348 219 348 219 296.5 245.5 c 128,-1,32
 245 272 245 272 189.5 291.5 c 128,-1,33
 134 311 134 311 81 320 c 1,34,-1
 63 434 l 1,35,36
 154 465 154 465 249 495.5 c 128,-1,37
 344 526 344 526 442 558 c 1,38,-1
 -145 558 l 1,39,-1
 -145 622 l 1,40,-1
 523 622 l 1,41,-1
 523 43 l 1,42,-1
 449 43 l 1,0,-1
150 382 m 1,43,44
 224 364 224 364 304 326 c 128,-1,45
 384 288 384 288 449 237 c 1,46,-1
 449 481 l 1,47,48
 372 456 372 456 297 431.5 c 128,-1,49
 222 407 222 407 150 382 c 1,43,44
664 145 m 0,50,51
 664 94 664 94 731 68 c 1,52,53
 744 98 744 98 744 133 c 0,54,55
 744 186 744 186 702 186 c 0,56,57
 685 186 685 186 674.5 174.5 c 128,-1,58
 664 163 664 163 664 145 c 0,50,51
EndSplineSet
Substitution2: "'ss01' Style Set 1 in 'DFLT' lookup 51 subtable" CaCha.Nnagari.ss01
Ligature2: "'cjct' Conjunct Forms in 'DFLT' lookup 27 subtable" CaHalf.Nnagari Cha.Nnagari
Substitution2: "'aalt' +BBIEQQQ1 +BDAEOwRMBEIENQRABD0EMARCBDgEMgQ9BEsENQAA +BDIEMARABDgEMAQ9BEIESwAA in 'DFLT' lookup 0 subtable" CaCha.Nnagari.ss01
EndChar

StartChar: CaChaRa.Nnagari
Encoding: 1114161 -1 137
Width: 866
VWidth: 1460
GlyphClass: 2
Flags: W
AnchorPoint: "+BBEENQQ3BEsEPARPBD0EPQQ+BDUA--1" 490 602 basechar 0
AnchorPoint: "+BBEENQQ3BEsEPARPBD0EPQQ+BDUA--0" 484 -341 basechar 0
LayerCount: 2
Fore
SplineSet
138 -255 m 1,0,-1
 138 -187 l 1,1,-1
 448 -187 l 1,2,-1
 448 -127 l 1,3,4
 306 -127 306 -127 233.5 -84.5 c 128,-1,5
 161 -42 161 -42 161 39 c 0,6,7
 161 108 161 108 220.5 148 c 128,-1,8
 280 188 280 188 386 188 c 2,9,-1
 390 188 l 1,10,11
 348 219 348 219 296.5 245.5 c 128,-1,12
 245 272 245 272 189.5 291.5 c 128,-1,13
 134 311 134 311 81 320 c 1,14,-1
 63 434 l 1,15,16
 154 465 154 465 249 495.5 c 128,-1,17
 344 526 344 526 442 558 c 1,18,-1
 -145 558 l 1,19,-1
 -145 622 l 1,20,-1
 523 622 l 1,21,-1
 523 43 l 1,22,-1
 449 43 l 1,23,-1
 449 128 l 1,24,-1
 386 128 l 2,25,26
 311 128 311 128 276 107 c 128,-1,27
 241 86 241 86 241 39 c 0,28,29
 241 -6 241 -6 292 -33.5 c 128,-1,30
 343 -61 343 -61 449 -61 c 0,31,32
 617 -61 617 -61 695 14 c 1,33,34
 644 34 644 34 619.5 68 c 128,-1,35
 595 102 595 102 595 145 c 0,36,37
 595 189 595 189 623.5 219.5 c 128,-1,38
 652 250 652 250 701 250 c 0,39,40
 751 250 751 250 782.5 221 c 128,-1,41
 814 192 814 192 814 133 c 0,42,43
 814 66 814 66 779.5 12 c 128,-1,44
 745 -42 745 -42 679.5 -77 c 128,-1,45
 614 -112 614 -112 522 -123 c 1,46,-1
 522 -341 l 1,47,-1
 448 -341 l 1,48,-1
 448 -255 l 1,49,-1
 138 -255 l 1,0,-1
150 382 m 1,50,51
 224 364 224 364 304 326 c 128,-1,52
 384 288 384 288 449 237 c 1,53,-1
 449 481 l 1,54,55
 372 456 372 456 297 431.5 c 128,-1,56
 222 407 222 407 150 382 c 1,50,51
664 145 m 0,57,58
 664 94 664 94 731 68 c 1,59,60
 744 98 744 98 744 133 c 0,61,62
 744 186 744 186 702 186 c 0,63,64
 685 186 685 186 674.5 174.5 c 128,-1,65
 664 163 664 163 664 145 c 0,57,58
EndSplineSet
Substitution2: "'ss04' Style Set 4 in 'DFLT' lookup 99 subtable" CaChaRa.Nnagari.ss04
Substitution2: "'ss03' Style Set 3 in 'DFLT' lookup 90 subtable" CaChaRa.Nnagari.ss03
Substitution2: "'ss01' Style Set 1 in 'DFLT' lookup 51 subtable" CaChaRa.Nnagari.ss01
Ligature2: "'cjct' Conjunct Forms in 'DFLT' lookup 26 subtable" CaHalf.Nnagari ChaHalf.Nnagari Ra.Nnagari
AlternateSubs2: "'aalt' +BBIEQQQ1 +BDAEOwRMBEIENQRABD0EMARCBDgEMgQ9BEsENQAA +BDIEMARABDgEMAQ9BEIESwAA in 'DFLT' lookup 1 subtable" CaChaRa.Nnagari.ss01 CaChaRa.Nnagari.ss03 CaChaRa.Nnagari.ss04
EndChar

StartChar: CaChaLa.Nnagari
Encoding: 1114162 -1 138
Width: 866
VWidth: 1460
GlyphClass: 2
Flags: W
AnchorPoint: "+BBEENQQ3BEsEPARPBD0EPQQ+BDUA--1" 490 602 basechar 0
AnchorPoint: "+BBEENQQ3BEsEPARPBD0EPQQ+BDUA--0" 487 -400 basechar 0
LayerCount: 2
Fore
SplineSet
78 -400 m 1,0,1
 66 -382 66 -382 53.5 -348.5 c 128,-1,2
 41 -315 41 -315 41 -273 c 0,3,4
 41 -203 41 -203 80.5 -168 c 128,-1,5
 120 -133 120 -133 185 -133 c 0,6,7
 224 -133 224 -133 252 -148.5 c 128,-1,8
 280 -164 280 -164 297 -190 c 1,9,10
 327 -132 327 -132 406 -132 c 0,11,12
 431 -132 431 -132 451 -139 c 1,13,-1
 451 -127 l 1,14,-1
 449 -127 l 2,15,16
 307 -127 307 -127 234 -84.5 c 128,-1,17
 161 -42 161 -42 161 39 c 0,18,19
 161 108 161 108 220.5 148 c 128,-1,20
 280 188 280 188 386 188 c 2,21,-1
 390 188 l 1,22,23
 348 219 348 219 296.5 245.5 c 128,-1,24
 245 272 245 272 189.5 291.5 c 128,-1,25
 134 311 134 311 81 320 c 1,26,-1
 63 434 l 1,27,28
 154 465 154 465 249 495.5 c 128,-1,29
 344 526 344 526 442 558 c 1,30,-1
 -145 558 l 1,31,-1
 -145 622 l 1,32,-1
 523 622 l 1,33,-1
 523 43 l 1,34,-1
 449 43 l 1,35,-1
 449 128 l 1,36,-1
 386 128 l 2,37,38
 311 128 311 128 276 107 c 128,-1,39
 241 86 241 86 241 39 c 0,40,41
 241 -6 241 -6 292 -33.5 c 128,-1,42
 343 -61 343 -61 449 -61 c 0,43,44
 617 -61 617 -61 695 14 c 1,45,46
 644 34 644 34 619.5 68 c 128,-1,47
 595 102 595 102 595 145 c 0,48,49
 595 189 595 189 623.5 219.5 c 128,-1,50
 652 250 652 250 701 250 c 0,51,52
 751 250 751 250 782.5 221 c 128,-1,53
 814 192 814 192 814 133 c 0,54,55
 814 67 814 67 780 13 c 128,-1,56
 746 -41 746 -41 681 -76.5 c 128,-1,57
 616 -112 616 -112 525 -123 c 1,58,-1
 525 -400 l 1,59,-1
 451 -400 l 1,60,-1
 451 -204 l 1,61,62
 433 -198 433 -198 412 -198 c 0,63,64
 379 -198 379 -198 357.5 -216 c 128,-1,65
 336 -234 336 -234 334 -274 c 2,66,-1
 332 -306 l 1,67,-1
 264 -306 l 1,68,-1
 262 -274 l 2,69,70
 260 -235 260 -235 241.5 -217 c 128,-1,71
 223 -199 223 -199 191 -199 c 0,72,73
 157 -199 157 -199 137 -218.5 c 128,-1,74
 117 -238 117 -238 117 -275 c 0,75,76
 117 -314 117 -314 127.5 -343.5 c 128,-1,77
 138 -373 138 -373 154 -400 c 1,78,-1
 78 -400 l 1,0,1
150 382 m 1,79,80
 224 364 224 364 304 326 c 128,-1,81
 384 288 384 288 449 237 c 1,82,-1
 449 481 l 1,83,84
 372 456 372 456 297 431.5 c 128,-1,85
 222 407 222 407 150 382 c 1,79,80
664 145 m 0,86,87
 664 94 664 94 731 68 c 1,88,89
 744 98 744 98 744 133 c 0,90,91
 744 186 744 186 702 186 c 0,92,93
 685 186 685 186 674.5 174.5 c 128,-1,94
 664 163 664 163 664 145 c 0,86,87
EndSplineSet
Substitution2: "'ss01' Style Set 1 in 'DFLT' lookup 51 subtable" CaChaLa.Nnagari.ss01
Ligature2: "'cjct' Conjunct Forms in 'DFLT' lookup 26 subtable" CaHalf.Nnagari ChaHalf.Nnagari La.Nnagari
Substitution2: "'aalt' +BBIEQQQ1 +BDAEOwRMBEIENQRABD0EMARCBDgEMgQ9BEsENQAA +BDIEMARABDgEMAQ9BEIESwAA in 'DFLT' lookup 0 subtable" CaChaLa.Nnagari.ss01
EndChar

